<?xml version="1.0" standalone="no"?><!-- Generator: Gravit.io --><svg xmlns="http://www.w3.org/2000/svg" xmlns:xlink="http://www.w3.org/1999/xlink" style="isolation:isolate" viewBox="798 410 252.523 278.772" width="252.523" height="278.772"><defs><clipPath id="_clipPath_06WeewFXMkAeeDlq2ywYt5tAhqvAIV4I"><rect x="798" y="410" width="252.523" height="278.772"/></clipPath></defs><g clip-path="url(#_clipPath_06WeewFXMkAeeDlq2ywYt5tAhqvAIV4I)"><linearGradient id="_lgradient_1" x1="0.8316065411101349" y1="0.8553428705614923" x2="0.19800155740717507" y2="0.1111440669883158" gradientTransform="matrix(252.523,0,0,291.589,798,403.592)" gradientUnits="userSpaceOnUse"><stop offset="0.8695652173913043%" stop-opacity="1" style="stop-color:rgb(150,230,161)"/><stop offset="100%" stop-opacity="1" style="stop-color:rgb(212,252,121)"/></linearGradient><path d=" M 1031.584 633.218 L 987.392 658.732 L 943.201 684.246 C 932.748 690.281 915.775 690.281 905.322 684.246 L 861.131 658.732 L 816.939 633.218 C 806.486 627.183 798 612.484 798 600.414 L 798 549.386 L 798 498.358 C 798 486.288 806.486 471.589 816.939 465.554 L 861.131 440.04 L 905.322 414.526 C 915.775 408.491 932.748 408.491 943.201 414.526 L 987.392 440.04 L 1031.584 465.554 C 1042.037 471.589 1050.523 486.288 1050.523 498.358 L 1050.523 549.386 L 1050.523 600.414 C 1050.523 612.484 1042.037 627.183 1031.584 633.218 Z " fill="url(#_lgradient_1)"/></g></svg>