<?xml version="1.0" standalone="no"?><!-- Generator: Gravit.io --><svg xmlns="http://www.w3.org/2000/svg" xmlns:xlink="http://www.w3.org/1999/xlink" style="isolation:isolate" viewBox="813 781.526 238 262.336" width="238" height="262.336"><defs><clipPath id="_clipPath_aKPGbya7VW4totYVDQvvBB5eq7rn83N8"><rect x="813" y="781.526" width="238" height="262.336"/></clipPath></defs><g clip-path="url(#_clipPath_aKPGbya7VW4totYVDQvvBB5eq7rn83N8)"><linearGradient id="_lgradient_1" x1="-0.09243697478991608" y1="0.14087676959395212" x2="1.0252100840336138" y2="0.795853965733444" gradientTransform="matrix(-238,0,0,-274.819,1051,1050.103)" gradientUnits="userSpaceOnUse"><stop offset="2.1739130434782608%" stop-opacity="1" style="stop-color:rgb(38,177,228)"/><stop offset="99.1304347826087%" stop-opacity="1" style="stop-color:rgb(79,223,147)"/></linearGradient><path d=" M 831.445 833.34 L 872.5 809.637 L 913.555 785.934 C 923.735 780.056 940.265 780.056 950.445 785.934 L 991.5 809.637 L 1032.555 833.34 C 1042.735 839.217 1051 853.533 1051 865.288 L 1051 912.694 L 1051 960.1 C 1051 971.855 1042.735 986.17 1032.555 992.048 L 991.5 1015.751 L 950.445 1039.454 C 940.265 1045.331 923.735 1045.331 913.555 1039.454 L 872.5 1015.751 L 831.445 992.048 C 821.265 986.17 813 971.855 813 960.1 L 813 912.694 L 813 865.288 C 813 853.533 821.265 839.217 831.445 833.34 Z " fill="url(#_lgradient_1)"/></g></svg>