<?xml version="1.0" standalone="no"?><!-- Generator: Gravit.io --><svg xmlns="http://www.w3.org/2000/svg" xmlns:xlink="http://www.w3.org/1999/xlink" style="isolation:isolate" viewBox="675 315.26 572.336 556.425" width="572.336" height="556.425"><defs><clipPath id="_clipPath_ILIEQFKwsImHREl1YBb18uCAJkgtordA"><rect x="675" y="315.26" width="572.336" height="556.425"/></clipPath></defs><g clip-path="url(#_clipPath_ILIEQFKwsImHREl1YBb18uCAJkgtordA)"><path d=" M 694.677 315.581 L 1232.323 413.419 C 1243.183 415.396 1249.583 425.63 1246.606 436.259 L 1129.394 854.741 C 1126.417 865.37 1115.107 872.891 1104.154 871.525 L 694.846 820.475 C 683.893 819.109 675 809.038 675 798 L 675 332 C 675 320.962 683.817 313.604 694.677 315.581 Z " fill="rgb(248,247,253)"/><path d=" M 694.677 315.581 L 1232.323 413.419 C 1243.183 415.396 1249.583 425.63 1246.606 436.259 L 1129.394 854.741 C 1126.417 865.37 1115.107 872.891 1104.154 871.525 L 694.846 820.475 C 683.893 819.109 675 809.038 675 798 L 675 332 C 675 320.962 683.817 313.604 694.677 315.581 Z " fill="rgb(248,247,253)"/></g></svg>