<?xml version="1.0" standalone="no"?>
<!DOCTYPE svg PUBLIC "-//W3C//DTD SVG 20010904//EN"
 "http://www.w3.org/TR/2001/REC-SVG-20010904/DTD/svg10.dtd">
<svg version="1.0" xmlns="http://www.w3.org/2000/svg"
 width="450.000000pt" height="450.000000pt" viewBox="0 0 450.000000 450.000000"
 preserveAspectRatio="xMidYMid meet">
<metadata>
Created by potrace 1.10, written by Peter Selinger 2001-2011
</metadata>
<g transform="translate(0.000000,450.000000) scale(0.050000,-0.050000)"
fill="#000000" stroke="none">
<path d="M4666 8140 c-13 -51 -203 -56 -354 -10 -109 33 -159 38 -144 14 5 -9
3 -27 -5 -40 -22 -35 -260 -124 -274 -102 -6 10 -36 18 -65 18 -30 0 -81 18
-114 40 -69 46 -94 50 -86 15 11 -52 -157 -341 -274 -471 -158 -174 -337 -446
-392 -596 -23 -65 -82 -199 -130 -298 -57 -116 -88 -208 -89 -260 -4 -247 28
-738 55 -854 18 -78 25 -158 17 -190 -8 -31 -12 -83 -9 -116 3 -33 3 -114 1
-180 -20 -688 1 -844 111 -818 87 21 107 52 28 45 -60 -6 -70 0 -83 48 -26 93
-46 535 -25 535 10 0 16 25 11 55 -4 30 1 77 11 104 l18 50 27 -50 c14 -27 28
-85 31 -129 6 -99 80 -535 107 -630 11 -38 52 -205 91 -370 39 -165 84 -352
101 -415 16 -63 29 -135 29 -161 0 -26 18 -114 39 -197 98 -374 31 -534 -268
-637 -61 -21 -190 -73 -286 -116 -96 -43 -283 -112 -415 -153 -132 -42 -315
-106 -407 -144 -141 -59 -201 -72 -395 -85 -190 -12 -239 -23 -289 -59 -33
-25 -165 -86 -294 -135 -279 -108 -265 -98 -358 -265 -40 -73 -111 -187 -158
-253 -100 -143 -175 -289 -321 -627 l-108 -251 0 -226 0 -226 50 0 c28 0 51 9
53 20 1 11 3 28 5 38 4 31 32 50 32 23 0 -68 183 -114 206 -53 8 21 31 23 97
11 48 -9 225 -16 393 -16 169 1 312 -4 319 -11 6 -7 29 -12 51 -12 35 0 33 5
-13 41 -29 23 -53 50 -53 60 0 26 162 -37 190 -74 13 -18 35 -29 50 -24 86 29
-91 138 -290 179 -277 57 -434 104 -426 128 10 32 300 11 439 -31 69 -21 130
-33 135 -27 36 36 -285 133 -450 136 -79 1 -128 11 -128 24 0 12 20 20 45 16
141 -19 215 -22 215 -8 0 25 -68 39 -426 89 -385 53 -361 44 -331 130 l23 66
162 -10 c180 -12 290 8 174 32 -37 7 -104 13 -150 13 -91 1 -172 18 -171 37 2
56 71 92 214 114 l155 24 -145 3 c-161 2 -163 4 -101 131 54 112 76 113 160 8
134 -170 312 -343 536 -523 240 -192 400 -387 400 -486 0 -40 10 -48 60 -48
56 0 58 2 37 55 -12 30 -34 108 -50 174 -15 65 -54 168 -85 230 -31 61 -74
147 -94 191 -21 43 -92 134 -158 201 -238 242 -387 409 -363 409 49 0 -98 78
-171 91 -92 15 -91 5 -9 134 36 58 72 121 79 140 39 106 117 25 444 -465 277
-413 330 -487 344 -473 13 13 -74 173 -208 379 -70 108 -143 225 -162 260 -19
35 -51 88 -71 118 -20 30 -31 64 -23 76 7 11 5 19 -6 15 -24 -7 -206 196 -190
212 33 33 106 9 147 -48 55 -78 74 -62 30 24 l-33 66 74 -69 c40 -39 141 -160
223 -270 130 -174 148 -191 137 -132 -7 38 -37 100 -67 138 -156 196 -165 212
-130 239 28 22 24 25 -30 25 -43 0 -71 13 -85 41 -12 22 -31 35 -41 28 -10 -6
-19 -2 -19 8 0 64 110 45 123 -21 5 -25 15 -30 36 -17 22 14 24 28 7 66 -20
44 -14 51 78 103 121 68 110 82 134 -169 11 -115 26 -240 32 -279 8 -50 -4
-34 -41 60 -57 141 -63 152 -80 135 -7 -6 1 -37 17 -68 16 -31 36 -88 44 -127
8 -38 40 -94 72 -124 32 -30 58 -70 57 -90 0 -34 -2 -33 -30 3 -28 37 -29 37
-29 1 0 -21 19 -57 41 -81 63 -67 105 -271 108 -519 1 -121 11 -236 22 -255
29 -50 22 513 -8 618 -13 46 -31 122 -41 170 -9 48 -32 121 -50 162 -31 72
-31 75 6 75 24 0 42 -19 50 -50 7 -27 22 -50 32 -50 26 0 25 13 -2 64 -24 45
100 39 157 -8 18 -15 25 -13 25 8 0 46 -44 76 -114 76 -48 0 -66 9 -66 32 0
26 -6 28 -29 9 -22 -19 -33 -16 -50 16 -29 56 -26 103 7 103 15 0 91 67 168
150 149 159 156 161 206 39 78 -187 45 -711 -51 -829 -65 -79 -92 -548 -42
-735 17 -63 33 -146 37 -185 6 -64 74 -120 74 -61 0 11 16 21 35 22 33 0 33 1
-1 21 -33 19 -32 25 17 82 53 64 217 392 281 564 37 102 156 242 188 222 10
-6 13 -25 7 -41 -8 -21 -2 -26 21 -17 53 20 39 -74 -38 -249 -38 -88 -70 -176
-70 -195 0 -20 -38 -111 -83 -203 -81 -161 -83 -166 -45 -195 63 -48 94 -38
57 18 -22 35 -26 59 -12 85 33 62 103 243 103 266 0 99 222 481 279 481 77 0
78 -28 11 -270 -27 -99 -64 -261 -81 -360 -17 -99 -35 -196 -41 -215 -9 -31 4
-35 107 -35 l118 0 36 165 c104 476 162 685 191 685 34 0 40 -114 16 -317 -7
-65 -9 -113 -4 -108 14 14 64 231 78 341 8 60 22 94 36 89 35 -10 114 -180
101 -215 -6 -16 -23 -102 -37 -190 -15 -88 -41 -221 -58 -296 -18 -75 -32
-140 -32 -145 0 -5 35 -9 78 -9 80 0 122 55 122 160 0 19 64 119 142 222 138
182 222 280 188 221 -24 -44 -47 -164 -29 -152 9 5 12 -20 7 -56 -5 -36 -17
-139 -25 -230 l-15 -165 106 0 c120 0 116 -8 135 234 6 79 3 149 -7 155 -11 6
-7 55 10 116 15 58 28 128 28 155 1 75 24 98 86 86 55 -11 56 -14 54 -144 -3
-181 23 -357 40 -272 l13 60 35 -80 c20 -44 40 -132 47 -195 l11 -115 117 0
c114 0 117 1 116 55 0 50 -3 52 -27 20 -49 -64 -80 -36 -169 155 -31 66 -71
132 -90 147 -54 45 -48 323 7 323 22 0 40 -13 40 -30 0 -36 33 -40 45 -6 5 17
45 6 126 -35 l119 -59 0 -190 c0 -104 -7 -233 -15 -285 -13 -85 -10 -95 23
-95 44 0 62 38 62 127 0 62 76 555 87 567 3 3 31 -6 61 -19 l56 -25 -12 -160
c-7 -88 -30 -231 -52 -318 -22 -86 -40 -160 -40 -165 0 -4 27 -7 60 -7 35 0
60 11 60 25 1 183 48 590 71 616 16 18 24 37 18 43 -6 6 17 55 50 109 34 53
67 113 74 132 7 20 32 35 59 35 27 0 48 9 48 20 0 11 -13 20 -30 20 -39 0 -39
48 0 80 17 14 30 41 30 62 0 20 17 53 38 72 20 20 60 82 88 137 28 56 101 168
162 249 62 81 112 156 112 167 0 25 -253 -296 -292 -370 -16 -31 -39 -57 -50
-57 -12 0 2 40 30 89 29 48 52 105 52 125 0 20 -25 -7 -58 -64 -88 -154 -211
-232 -172 -110 6 20 3 42 -7 48 -10 6 -24 42 -31 79 -14 74 -92 166 -92 108 0
-18 14 -46 32 -64 17 -17 27 -43 21 -56 -8 -20 -10 -20 -11 0 -3 36 -42 31
-42 -5 0 -16 -13 -30 -30 -30 -16 0 -30 -14 -30 -32 0 -17 -20 -60 -45 -95
-25 -35 -46 -89 -48 -120 -1 -31 -18 -72 -37 -90 -32 -31 -33 -30 -21 17 12
48 12 48 -17 12 -27 -33 -36 -34 -66 -11 -20 15 -39 30 -43 32 -4 3 11 29 35
59 62 79 51 94 -19 24 -80 -80 -101 -208 -46 -289 88 -130 108 -271 40 -284
-205 -39 -704 177 -630 273 24 31 24 31 -9 6 -30 -24 -39 -24 -60 4 -125 165
-194 250 -252 311 -37 40 -100 126 -140 193 -91 148 -243 356 -253 345 -9 -8
54 -140 86 -181 41 -51 146 -260 137 -269 -6 -6 3 -35 19 -66 16 -31 34 -91
41 -133 7 -42 20 -91 30 -110 28 -52 24 -63 -66 -184 -66 -90 -87 -107 -101
-83 -9 17 -26 31 -38 31 -101 0 -130 70 -145 344 -25 473 -75 702 -188 866
-35 51 -16 -26 28 -113 85 -167 157 -989 84 -966 -22 7 -41 0 -48 -20 -25 -64
-247 -32 -250 36 -2 34 -5 36 -12 8 -10 -40 -104 -46 -235 -16 -57 14 -84 12
-94 -5 -8 -12 -19 -18 -25 -13 -5 6 30 68 79 138 48 70 93 144 100 164 7 23
31 37 65 38 l54 2 -48 19 c-26 10 -50 16 -52 13 -2 -3 -33 -50 -70 -105 -36
-55 -99 -140 -138 -189 -39 -49 -92 -130 -117 -180 -25 -50 -40 -68 -34 -41 7
28 19 84 28 125 15 74 182 344 238 387 40 30 12 68 -51 68 -42 0 -47 -5 -27
-29 27 -32 -53 -202 -149 -320 -75 -92 -75 -56 -1 170 68 206 73 235 34 211
-22 -14 -47 -90 -144 -432 -35 -126 -84 -270 -108 -320 -25 -49 -66 -148 -92
-220 l-48 -130 -28 100 c-32 110 -14 313 43 490 16 50 57 198 93 330 35 132
72 254 82 270 11 17 24 41 29 55 37 94 38 95 45 30 12 -109 41 -72 41 53 0 65
6 146 14 180 7 34 2 95 -11 135 -24 71 -22 76 43 132 54 46 57 51 13 24 -45
-27 -61 -29 -85 -9 -25 20 -30 19 -30 -9 0 -20 -9 -28 -23 -19 -17 10 -19 0
-9 -34 36 -116 52 -232 40 -278 l-13 -50 -27 60 c-25 58 -26 57 -22 -48 3 -71
-4 -111 -21 -117 -15 -5 -25 9 -25 34 0 23 -39 120 -86 217 l-85 175 120 53
c67 29 189 77 271 106 83 30 213 76 290 104 170 61 222 82 395 163 157 73 155
72 155 33 0 -117 192 -460 333 -593 68 -64 131 -106 424 -283 58 -35 65 -48
55 -98 -7 -36 -4 -53 8 -46 11 7 20 25 20 41 0 36 -1 36 170 -1 217 -46 239
-42 349 61 l97 91 170 7 c261 12 522 141 674 334 98 123 220 371 220 446 0 36
9 51 25 44 14 -6 59 -21 100 -35 84 -27 88 -44 47 -178 -43 -137 -100 -261
-189 -407 -44 -73 -73 -133 -64 -133 16 0 -86 -266 -119 -310 -8 -11 -31 -72
-50 -136 -33 -107 -40 -116 -85 -105 -33 9 -44 5 -35 -10 17 -26 -45 -199 -72
-199 -10 0 -19 16 -20 35 -1 21 -5 25 -11 10 -6 -14 -20 -25 -31 -25 -41 0 7
105 107 234 88 113 214 346 187 346 -5 0 -33 -47 -62 -105 -30 -58 -91 -150
-137 -205 -102 -121 -175 -245 -150 -254 10 -3 4 -51 -13 -106 -32 -101 -41
-171 -54 -410 -6 -113 -25 -213 -84 -445 l-14 -55 131 0 c121 0 133 4 142 45
152 692 250 780 251 225 1 -189 37 -250 41 -70 4 154 31 158 76 13 24 -76 43
-154 43 -175 0 -31 15 -38 81 -38 l80 0 -70 105 c-39 57 -71 112 -71 122 0 9
-27 52 -61 94 -69 87 -83 274 -19 247 17 -7 79 -21 139 -32 167 -28 175 -42
199 -350 12 -154 11 -162 -21 -133 -31 28 -33 27 -23 -11 9 -36 26 -42 120
-42 94 0 107 5 98 35 -22 75 -54 290 -45 299 6 6 35 -67 64 -162 30 -95 62
-172 71 -172 24 0 27 -12 -52 229 -78 237 -85 294 -39 332 28 23 28 28 1 43
-37 21 175 348 222 343 19 -2 21 5 8 21 -13 16 0 51 41 113 33 49 96 166 140
259 123 264 171 352 250 455 l73 95 -12 -80 -13 -80 30 66 c16 36 38 61 48 54
24 -14 -20 -163 -100 -338 -63 -141 -91 -255 -110 -453 -18 -196 -168 -505
-211 -436 -10 17 -49 -5 -125 -69 -123 -106 -126 -107 -176 -61 -50 45 -46 11
13 -116 27 -59 50 -118 50 -131 0 -49 83 -246 104 -246 12 0 15 22 7 55 -66
274 -36 374 123 414 131 33 251 -245 166 -384 -22 -36 -40 -70 -40 -75 0 -5
81 -8 180 -7 l180 2 0 112 c0 119 -63 288 -127 340 -44 37 -43 42 28 123 79
90 110 151 247 490 182 448 183 450 247 451 49 0 18 44 -35 49 -5 0 -19 7 -31
14 -28 18 -77 -14 -61 -40 7 -12 -15 -69 -48 -128 -105 -183 -136 -260 -190
-474 -60 -239 -83 -290 -166 -369 -94 -89 -141 -62 -128 72 10 111 -18 121
-30 11 -9 -84 -31 -104 -96 -88 l-52 13 99 120 c80 95 105 143 122 234 72 370
206 836 239 833 12 -1 46 -3 75 -5 49 -3 51 -8 42 -78 l-11 -75 29 60 c46 96
15 -102 -46 -297 -28 -86 -46 -161 -40 -167 10 -10 93 166 93 199 0 12 19 83
41 159 l41 138 94 -12 c52 -7 118 -22 148 -33 l54 -21 -59 -113 c-32 -62 -63
-147 -68 -187 -5 -41 -20 -95 -33 -120 -14 -25 -40 -95 -59 -156 -19 -60 -67
-195 -106 -299 -39 -103 -59 -175 -43 -160 26 27 250 533 313 709 17 48 55 97
96 125 144 97 137 25 -17 -162 -136 -165 -303 -521 -365 -779 -43 -182 -46
-228 -9 -144 15 33 63 137 106 230 44 94 105 249 135 347 90 292 300 554 287
360 -6 -93 -8 -97 -71 -103 -36 -4 -61 -15 -54 -25 6 -11 35 -13 63 -6 51 13
52 12 38 -75 -21 -137 -163 -572 -264 -811 -50 -120 -96 -228 -102 -242 -6
-15 6 -25 32 -25 28 0 50 21 69 65 15 36 51 115 79 175 62 134 160 438 213
663 22 92 59 221 82 287 24 66 49 154 56 196 20 118 54 79 47 -56 l-6 -120 46
65 c42 59 116 89 116 47 0 -10 -42 -107 -92 -215 -94 -200 -158 -383 -141
-400 5 -6 16 11 24 36 8 26 33 74 56 106 23 32 74 145 113 250 71 187 74 191
141 198 141 13 288 -72 189 -110 -17 -6 -30 -31 -30 -54 -1 -24 -19 -82 -40
-130 -22 -48 -40 -102 -40 -120 -1 -35 -248 -303 -280 -303 -11 0 -34 -29 -52
-65 -19 -36 -59 -95 -91 -131 -62 -71 -74 -109 -29 -92 16 6 39 36 52 67 19
48 340 381 340 355 0 -24 -68 -167 -111 -236 -48 -76 -66 -151 -31 -129 10 6
61 90 112 186 52 96 108 191 125 210 17 19 59 120 94 226 70 213 64 212 177
34 58 -90 51 -105 -22 -54 -45 32 -61 14 -22 -25 16 -16 16 -33 0 -63 -32 -59
-28 -64 33 -32 155 81 240 -4 158 -157 -27 -52 -41 -94 -31 -94 11 0 27 20 37
45 16 43 18 43 32 7 10 -25 4 -60 -18 -97 -18 -32 -33 -69 -33 -83 0 -13 -13
-42 -28 -63 -25 -34 -27 -28 -22 61 4 55 -3 105 -14 112 -12 8 -4 44 22 94 45
88 55 164 22 164 -11 0 -20 -15 -20 -32 0 -18 -22 -74 -49 -125 -26 -51 -69
-149 -95 -217 -35 -95 -59 -130 -101 -148 -30 -12 -55 -30 -55 -39 0 -8 -17
-11 -38 -5 -21 5 -43 0 -50 -11 -14 -22 88 -19 163 5 37 12 45 7 45 -27 0 -36
6 -39 40 -21 51 27 50 19 -10 -101 l-51 -99 154 0 c132 0 161 6 203 45 48 44
49 44 27 2 -29 -56 122 -67 158 -11 20 31 21 31 11 -1 -9 -29 2 -35 72 -35
l82 0 -13 165 c-7 91 -13 195 -13 231 0 43 -12 70 -34 78 -50 19 -111 92 -250
296 -68 99 -164 221 -215 270 -50 50 -116 124 -147 166 -62 83 -204 182 -235
164 -10 -7 -14 0 -8 16 34 89 -283 274 -470 274 -52 0 -148 19 -213 41 -65 23
-165 50 -223 61 -57 11 -152 40 -210 65 -58 25 -143 58 -189 72 -47 15 -110
51 -140 81 -142 136 -402 348 -456 371 -155 65 -348 128 -427 138 -122 17
-228 76 -301 169 l-63 79 41 277 c23 152 49 317 59 366 39 194 148 659 194
830 27 99 74 279 106 400 120 465 243 764 212 520 -6 -55 -16 -183 -21 -286
-4 -102 -26 -250 -47 -330 -22 -79 -45 -179 -52 -221 -11 -62 -20 -74 -47 -62
-74 30 -115 35 -93 11 28 -30 146 -63 157 -44 37 59 112 484 112 636 1 97 10
214 21 261 14 62 13 96 -5 124 -20 32 -17 58 17 145 45 117 134 776 114 851
-6 25 -1 58 12 74 42 51 -13 263 -141 539 -66 141 -114 262 -108 268 6 6 -16
39 -49 73 -33 34 -112 156 -176 271 -90 161 -140 227 -219 289 -57 45 -142
113 -189 151 -72 58 -81 61 -52 20 81 -117 75 -125 -27 -34 -207 185 -292 247
-312 227 -8 -8 -3 -33 11 -56 51 -81 3 -60 -94 40 -111 115 -122 120 -137 63z
m-986 -197 c0 -35 -66 -103 -100 -103 -29 0 -25 17 22 93 42 68 78 73 78 10z
m-52 -170 c-9 -25 -91 -73 -122 -73 -7 0 8 23 34 50 50 54 106 68 88 23z
m1914 -308 c29 -74 48 -147 42 -162 -6 -16 -30 29 -54 99 -24 70 -59 160 -79
198 -34 68 -34 69 1 35 20 -19 60 -95 90 -170z m-2193 -134 c-48 -72 -59 -49
-17 32 19 37 38 56 42 43 5 -13 -7 -47 -25 -75z m1599 -202 c53 -7 109 -17
125 -23 33 -13 36 -129 3 -162 -19 -19 -15 -24 16 -24 45 0 185 -140 296 -295
42 -58 80 -105 86 -105 6 0 -3 20 -21 45 -17 25 -56 86 -85 135 -30 50 -71
112 -92 139 -38 49 -38 50 8 87 l46 37 -55 -12 c-30 -6 -55 -7 -55 -2 0 24
115 66 164 61 92 -10 232 -195 241 -317 3 -47 17 -77 38 -84 68 -21 160 -389
97 -389 -19 0 -17 -60 11 -323 9 -77 5 -117 -11 -127 -19 -12 -19 -18 0 -30
84 -52 10 -1045 -94 -1247 -47 -91 -49 -51 -5 106 56 202 38 224 -25 30 -81
-252 -159 -456 -186 -489 -13 -16 -58 -100 -99 -185 -42 -85 -83 -155 -92
-155 -20 0 -98 -170 -101 -218 -1 -20 -5 -23 -11 -7 -11 27 40 196 85 282 15
29 27 67 27 83 -1 44 -81 -115 -111 -220 -13 -49 -62 -224 -108 -389 -167
-599 -286 -731 -660 -731 -494 0 -715 283 -802 1030 -10 88 -27 186 -38 218
-31 89 -24 135 20 146 22 6 40 19 40 29 0 10 -21 12 -47 6 -46 -12 -48 -8 -62
149 -7 89 -21 189 -31 222 -22 75 13 81 41 7 11 -29 25 -48 30 -43 6 6 1 33
-9 61 -16 42 -11 58 29 96 27 25 49 56 49 67 -1 12 -17 0 -38 -26 -47 -62 -88
-41 -60 32 11 29 15 65 9 80 -5 15 8 73 30 129 22 56 37 106 33 110 -5 4 -26
-40 -48 -98 -59 -154 -96 -139 -96 38 0 79 -7 150 -15 159 -8 8 -15 -9 -15
-39 0 -62 -15 -67 -53 -18 -24 30 -24 27 -6 -24 17 -48 15 -64 -10 -83 -17
-12 -31 -33 -31 -45 0 -13 -10 -23 -22 -23 -13 0 -18 17 -13 38 6 21 -10 74
-35 119 -67 117 -100 225 -73 241 15 10 13 46 -7 122 -31 119 -23 164 12 63
12 -35 29 -63 39 -63 9 0 22 -17 28 -38 7 -21 30 -42 52 -48 51 -13 51 -54 -1
-54 -22 0 -40 -9 -40 -21 0 -27 58 -139 71 -139 6 0 1 17 -10 39 -48 88 11
152 82 88 63 -57 41 5 -28 78 -192 203 -203 228 -188 426 14 182 62 358 114
419 19 22 44 60 56 84 46 88 307 37 444 -88 28 -25 60 -46 70 -46 10 1 -3 18
-31 39 -77 59 -35 69 83 19 135 -57 154 -71 186 -147 42 -101 11 -100 -79 2
-47 53 -93 89 -103 80 -9 -9 10 -38 43 -65 l60 -48 -70 13 c-62 12 -67 10 -44
-18 23 -28 19 -33 -30 -39 -50 -5 -45 -10 49 -45 58 -22 125 -60 149 -85 64
-68 30 -77 -37 -9 -101 100 -352 133 -483 63 -139 -74 -216 -169 -156 -192 43
-17 635 1 677 20 27 13 35 7 35 -25 0 -35 -9 -40 -55 -31 -30 6 -113 -8 -185
-30 -163 -52 -265 -52 -380 -2 l-90 40 67 -58 c87 -75 152 -83 318 -38 168 45
285 65 285 49 0 -7 -18 -47 -40 -88 -58 -108 -49 -150 11 -50 28 47 60 85 70
85 25 0 -71 -190 -121 -240 -21 -21 -53 -68 -71 -104 -19 -36 -55 -94 -81
-129 -45 -60 -128 -316 -128 -393 0 -57 46 -29 64 39 9 34 87 201 175 372 88
171 178 356 200 412 22 56 73 151 113 211 l72 109 -42 122 c-23 67 -42 140
-42 162 0 24 -9 36 -21 28 -12 -7 -31 15 -44 49 -13 34 -31 62 -39 62 -17 0 1
-58 28 -93 11 -14 10 -28 -2 -36 -11 -7 -44 25 -73 70 -35 56 -61 79 -82 71
-18 -7 -62 15 -107 53 -53 45 -140 85 -288 130 -243 75 -234 62 -140 228 90
157 170 337 152 337 -8 0 -43 -61 -78 -135 -102 -214 -272 -518 -319 -569 -50
-54 -105 -348 -117 -618 -3 -92 -8 -195 -9 -228 l-3 -60 -26 60 c-45 106 -40
-354 6 -553 21 -88 29 -152 18 -141 -87 87 -125 670 -64 974 18 90 34 279 36
433 5 275 80 553 185 679 15 17 27 40 27 51 0 12 50 56 111 99 61 43 141 103
178 133 92 76 99 69 30 -33 -71 -105 -77 -146 -9 -63 47 58 53 59 244 62 296
6 334 8 321 21 -6 6 -113 11 -238 10 l-226 -2 42 42 c47 47 174 65 407 58 255
-8 372 -5 500 14 72 11 148 17 170 14 22 -3 84 -12 138 -19z m-1817 -212 c-39
-70 -71 -119 -71 -109 0 35 127 280 135 258 4 -12 -25 -79 -64 -149z m2789
-12 c0 -14 -4 -25 -8 -25 -13 0 -92 132 -91 152 1 27 99 -98 99 -127z m-3020
-828 c0 -174 -14 -201 -29 -55 -9 83 4 218 21 218 5 0 8 -73 8 -163z m3060
-232 c0 -63 -9 -128 -19 -144 -12 -18 -17 22 -15 115 5 170 34 196 34 29z
m-1760 -10 c41 -66 54 -175 22 -175 -9 0 -27 39 -39 87 -12 49 -28 103 -35
120 -21 56 11 36 52 -32z m-587 -140 c-7 -25 -13 -56 -13 -70 0 -14 -25 -25
-60 -25 -74 0 -75 12 -6 84 65 68 95 72 79 11z m307 -7 c87 -58 88 -88 1 -88
-46 0 -61 12 -79 63 -34 97 -32 98 78 25z m-1021 -73 c-1 -75 -4 -79 -21 -37
-17 43 -9 122 13 122 5 0 8 -38 8 -85z m-18 -349 c26 -68 0 -103 -33 -44 -32
58 -36 126 -7 107 12 -7 30 -35 40 -63z m351 -481 c51 -151 86 -225 106 -225
29 0 -30 -58 -60 -59 -22 -2 -62 108 -110 299 -88 351 -58 344 64 -15z m128
-95 c0 -56 -29 -67 -48 -18 -19 50 -14 68 18 68 19 0 30 -19 30 -50z m-89
-273 c35 -36 104 -255 172 -547 23 -99 59 -251 81 -337 40 -160 39 -219 -1
-119 -12 31 -59 205 -104 386 -104 420 -155 580 -202 631 -20 23 -37 54 -36
70 0 20 9 17 29 -11 15 -22 43 -55 61 -73z m108 -13 c35 -123 21 -140 -27 -34
-45 96 -49 143 -11 120 9 -6 27 -45 38 -86z m-163 -284 c23 -93 62 -251 85
-349 24 -99 56 -198 70 -220 66 -103 188 -485 146 -459 -9 6 -17 24 -17 41 0
46 -147 415 -156 390 -12 -36 33 -246 98 -453 126 -405 120 -377 83 -405 -58
-44 -75 -27 -80 80 -6 154 -15 205 -71 415 -28 105 -56 249 -62 320 -13 145
-26 208 -126 610 -91 367 -92 373 -49 280 20 -44 56 -156 79 -250z m74 22 c9
-42 7 -63 -5 -55 -11 7 -25 48 -32 91 -7 43 -18 95 -23 115 -6 20 2 10 17 -23
16 -33 35 -90 43 -128z m2308 83 c-19 -117 -87 -483 -128 -685 -29 -142 -109
-606 -158 -910 -16 -104 -31 -141 -56 -146 -31 -6 -32 -1 -6 51 30 60 70 292
68 395 -1 33 -18 -14 -39 -105 -20 -91 -50 -190 -66 -220 -16 -30 -43 -95 -61
-145 -17 -49 -75 -144 -127 -210 -130 -161 -251 -330 -238 -330 9 0 174 204
217 268 51 76 25 -28 -35 -141 -40 -75 -85 -168 -101 -207 l-27 -70 59 69 c33
38 60 81 60 95 0 15 14 20 35 13 28 -8 29 -7 7 9 -24 17 -22 31 12 89 22 37
52 104 66 147 27 84 116 268 129 268 59 0 92 -66 56 -111 -8 -10 -6 -12 4 -4
49 39 58 -22 20 -146 -6 -20 4 -30 28 -30 24 0 34 11 28 32 -4 18 4 46 18 61
15 15 45 62 67 104 61 116 90 133 90 51 -1 -137 -209 -456 -354 -544 -104 -63
-101 -62 -112 -18 -7 27 -10 25 -12 -9 -2 -50 -177 -126 -291 -126 -60 0 -66
5 -57 45 10 40 8 42 -17 12 -34 -41 -117 -68 -117 -38 0 12 23 41 50 65 28 24
65 67 83 95 l33 51 -59 -55 c-33 -30 -69 -55 -82 -55 -12 0 -27 -16 -34 -36
-14 -44 -139 -184 -164 -183 -63 2 -87 97 -44 173 l42 76 -51 -60 c-57 -67
-88 -40 -69 60 5 28 2 50 -8 50 -26 0 -21 55 7 72 13 8 27 4 31 -8 5 -13 17
-24 27 -24 27 0 22 55 -7 65 -15 5 15 49 75 111 55 56 145 179 200 273 55 93
110 170 121 171 34 0 209 176 209 209 0 16 39 122 87 235 48 113 97 238 108
276 91 308 138 436 181 498 27 40 45 59 39 42 -38 -107 -84 -213 -98 -229 -9
-10 -17 -38 -17 -62 0 -23 -18 -95 -40 -160 -29 -83 -34 -120 -18 -130 30 -19
-3 -121 -105 -326 -95 -191 -93 -241 3 -78 64 108 124 269 211 563 17 59 67
162 110 228 84 130 147 292 134 349 -5 20 -22 -9 -41 -73 -33 -106 -125 -282
-147 -282 -26 0 15 121 109 320 55 116 111 244 126 285 36 104 55 94 36 -20z
m-495 -818 c-22 -64 -41 -107 -42 -96 -2 36 61 234 71 223 6 -5 -8 -62 -29
-127z m-1411 -516 c34 -101 225 -311 282 -311 30 0 34 -56 8 -98 -14 -21 -45
-24 -135 -13 -157 20 -124 -7 50 -40 77 -14 197 -49 266 -76 180 -70 214 -78
268 -64 70 17 61 51 -13 51 -74 0 -392 94 -409 121 -41 67 24 86 274 81 143
-3 272 5 305 17 81 31 85 15 15 -73 -34 -42 -75 -109 -91 -149 -17 -39 -77
-124 -135 -186 l-104 -114 -38 46 -38 47 11 -64 c6 -38 2 -66 -12 -71 -17 -5
-16 -31 3 -96 64 -227 48 -264 -92 -218 -71 23 -76 22 -121 -33 -57 -72 -62
-25 -7 65 31 51 48 61 85 52 43 -11 44 -10 12 21 -48 49 -59 43 -125 -60 -73
-116 -92 -81 -23 43 66 118 39 118 -33 0 -51 -84 -58 -89 -100 -66 -39 22 -40
26 -10 33 40 8 44 30 13 87 -17 32 -14 46 15 68 35 26 34 28 -13 29 -37 0 -43
5 -22 18 17 11 24 38 18 70 -6 29 -2 52 8 52 10 0 12 20 4 45 -20 63 -143 221
-152 194 -11 -35 -87 83 -124 196 -33 100 -31 145 9 145 27 0 73 -101 85 -186
5 -42 16 -83 24 -90 18 -19 -11 180 -30 206 -26 33 -104 364 -96 403 5 28 22
13 64 -58 31 -53 51 -108 45 -124 -11 -29 59 -66 81 -43 7 6 -16 79 -51 161
-35 83 -63 157 -62 166 1 28 57 -85 91 -184z m-384 -336 c6 -25 15 -79 22
-121 7 -42 17 -92 23 -110 6 -19 -16 13 -49 70 -39 68 -56 121 -49 155 12 63
41 66 53 6z m176 -67 c24 -130 31 -154 75 -266 50 -127 45 -144 -18 -59 -35
47 -121 341 -121 413 0 44 53 -28 64 -88z m-295 0 c50 -19 171 -298 171 -392
0 -20 12 -36 28 -36 15 0 42 -20 60 -45 l33 -45 -22 46 c-16 35 -16 54 3 76
20 24 20 29 -1 24 -32 -7 -69 93 -52 139 10 26 22 14 51 -50 21 -47 47 -85 59
-85 40 0 88 -98 62 -129 -19 -23 -16 -26 18 -17 48 13 54 -25 11 -81 -27 -36
-30 -35 -80 20 l-53 57 36 -60 36 -60 -83 70 c-45 39 -83 75 -84 82 -1 7 -32
44 -68 82 -74 79 -194 309 -194 373 0 45 15 51 69 31z m2679 -100 c25 -66 10
-156 -65 -373 -43 -124 -85 -256 -93 -295 -8 -38 -32 -106 -54 -150 -21 -44
-57 -129 -79 -190 -23 -60 -67 -181 -100 -267 -33 -87 -55 -162 -49 -168 15
-14 -62 -160 -95 -179 -14 -9 -38 -34 -51 -56 -23 -37 -24 -37 -13 -2 7 22 21
80 32 130 11 51 41 160 67 242 26 83 58 188 70 235 18 66 33 86 68 87 34 2 36
5 9 12 -43 11 -43 8 11 154 47 127 107 185 74 73 -25 -87 -8 -76 36 24 53 120
78 236 29 135 -18 -38 -36 -73 -38 -77 -2 -4 -15 0 -28 7 -14 9 -16 20 -4 28
10 6 67 158 126 337 107 322 123 355 147 293z m320 -193 c141 -137 183 -160
121 -67 -36 55 -29 68 15 27 14 -14 62 -45 106 -69 91 -50 105 -107 57 -224
-25 -63 -24 -70 13 -96 45 -32 25 -105 -68 -246 -26 -38 -77 -118 -114 -177
-80 -127 -94 -110 -40 50 61 181 138 307 188 307 31 0 36 6 19 23 -20 20 -50
27 -150 34 -19 2 -35 18 -35 37 0 26 -6 28 -23 11 -28 -28 -72 23 -136 158
-50 107 -110 171 -130 138 -7 -11 -6 -21 4 -21 9 0 33 -52 53 -115 20 -63 44
-136 54 -161 31 -79 19 -77 -30 6 -56 93 -141 360 -124 387 7 11 1 24 -13 29
-14 4 -19 15 -12 23 23 24 76 -17 114 -89 20 -37 48 -72 62 -76 14 -5 2 26
-27 68 -28 43 -52 89 -52 103 0 24 -24 33 -75 26 -15 -1 -25 21 -25 59 l0 61
55 -35 c30 -20 117 -97 193 -171z m-2489 -4 c15 -26 21 -62 14 -80 -6 -17 -4
-31 5 -31 10 0 22 -23 27 -51 24 -124 -80 19 -113 156 -17 71 30 75 67 6z
m2174 -232 c-7 -216 -53 -303 -53 -100 0 108 32 281 53 281 3 0 3 -81 0 -181z
m-4073 14 c0 -30 -283 -313 -314 -313 -14 0 -22 34 -21 86 2 47 -4 96 -12 109
-7 12 2 32 22 43 19 12 24 21 10 21 -73 2 -10 32 74 35 54 1 123 16 154 33 60
31 87 27 87 -14z m1880 -116 c0 -11 15 -35 33 -53 21 -21 24 -35 10 -40 -13
-4 -36 6 -52 23 -17 16 -42 33 -56 38 -20 7 -19 15 2 42 28 33 63 28 63 -10z
m2410 -199 c10 -44 6 -58 -16 -58 -27 0 -76 189 -73 282 1 34 72 -142 89 -224z
m-197 27 c-11 -69 -11 -71 12 -25 23 48 24 45 30 -43 8 -104 -21 -222 -114
-475 -73 -199 -69 -232 7 -62 30 66 57 120 60 120 10 0 -82 -461 -94 -473 -16
-16 -234 12 -234 29 0 8 33 104 72 214 52 143 74 240 78 340 8 208 65 390 122
390 16 0 34 14 41 30 21 55 32 31 20 -45z m487 8 c0 -8 -89 -209 -170 -383
-86 -186 -108 -250 -88 -250 11 0 33 31 49 69 34 82 80 120 60 49 -40 -139
-187 -401 -294 -526 -69 -80 -51 108 33 359 49 147 89 284 88 304 -1 20 -5 25
-11 10 -6 -14 -18 -25 -27 -25 -18 0 7 125 42 212 l24 58 15 -70 c10 -43 6
-120 -11 -200 -39 -188 -23 -170 49 54 69 215 146 346 204 346 20 0 37 -3 37
-7z m-2274 -36 c24 -13 52 -37 62 -54 16 -27 21 -26 34 8 14 36 15 36 17 -6 1
-51 -28 -56 -144 -24 -80 22 -89 37 -51 75 29 29 28 29 82 1z m3359 -86 c10
-56 -16 -91 -69 -91 -33 0 -34 4 -2 70 39 83 58 88 71 21z m324 11 c14 -24 -8
-82 -31 -82 -10 0 -18 23 -18 50 0 49 27 67 49 32z m111 -52 c28 -16 43 -30
35 -32 -8 -2 -22 -4 -30 -6 -8 -2 -35 -15 -60 -28 -48 -27 -59 -5 -33 64 15
39 24 39 88 2z m-2271 -240 c-30 -105 -46 -199 -39 -231 22 -100 -82 -319
-153 -319 l-58 0 33 65 c19 35 58 87 88 115 30 28 61 73 70 100 14 45 11 44
-50 -17 -72 -72 -100 -72 -53 0 17 26 59 128 94 227 109 310 152 347 68 60z
m2332 112 c-14 -26 -33 -36 -54 -28 -29 11 -27 18 13 50 54 44 72 35 41 -22z
m-3169 -73 c12 -47 0 -87 -20 -67 -23 22 -34 118 -15 118 12 0 28 -23 35 -51z
m-1238 -146 c209 -238 215 -261 96 -388 -49 -53 -140 -156 -202 -230 -62 -74
-140 -161 -173 -193 l-60 -58 15 88 c33 194 75 315 161 455 93 155 98 205 38
398 -23 74 16 52 125 -72z m1435 43 c-23 -35 -39 -46 -45 -29 -8 26 55 110 72
94 5 -5 -7 -35 -27 -65z m-4274 -7 c18 -27 76 -95 129 -151 117 -124 123 -158
26 -139 -79 15 -97 -18 -21 -37 28 -7 61 -33 74 -57 13 -25 75 -99 137 -165
115 -121 180 -226 105 -168 -291 223 -655 584 -637 631 6 15 4 27 -4 28 -33 1
-106 80 -93 101 28 45 246 12 284 -43z m4005 -41 c0 -12 -18 -45 -40 -72 -28
-36 -37 -72 -31 -120 7 -62 -50 -246 -78 -246 -5 0 -4 59 3 130 10 110 7 130
-20 130 -34 0 -65 36 -46 54 6 7 23 2 37 -10 20 -17 39 -1 82 67 54 85 93 113
93 67z m120 -14 c0 -9 -11 -28 -25 -42 -20 -22 -20 -29 0 -36 31 -12 33 -106
2 -106 -67 0 -98 83 -51 141 44 56 74 74 74 43z m-370 -101 c0 -84 -38 -72
-47 14 -4 49 1 65 20 58 15 -5 27 -37 27 -72z m788 -14 c-24 -86 -58 -137 -58
-85 0 39 59 183 71 172 4 -5 -2 -44 -13 -87z m-434 -100 c6 -6 -6 -44 -27 -84
-20 -40 -37 -84 -37 -97 0 -27 -57 -78 -71 -64 -6 6 -1 36 11 68 19 53 18 55
-9 20 -16 -21 -33 -48 -38 -60 -4 -12 -14 -16 -22 -9 -15 15 9 70 76 172 39
59 89 82 117 54z m314 -7 c23 -15 20 -31 -14 -95 -23 -42 -58 -108 -77 -147
l-36 -70 -7 66 c-8 79 50 264 83 264 12 0 35 -9 51 -18z m-4096 -99 c94 -60
218 -194 218 -236 0 -60 -44 -35 -187 104 -196 193 -208 245 -31 132z m4139
-41 c-13 -45 -34 -82 -48 -82 -19 0 -15 24 15 89 50 107 63 104 33 -7z m-2335
5 c-13 -5 -19 -21 -14 -34 5 -14 -4 -56 -21 -94 l-29 -69 -1 60 c-1 94 21 150
56 148 19 0 23 -5 9 -11z m2634 -139 c0 -24 -12 -29 -45 -21 -25 7 -61 13 -80
13 -19 0 -35 9 -35 20 0 11 36 20 80 20 60 0 80 -8 80 -32z m298 -13 l16 -44
16 49 c15 47 17 48 30 10 21 -56 7 -70 -66 -70 -127 1 -214 24 -214 58 -1 27
-3 28 -19 3 -10 -17 -25 -24 -32 -17 -32 33 23 56 133 56 105 0 121 -5 136
-45z m-5455 -164 c81 -15 181 -34 222 -41 50 -8 75 -22 75 -44 0 -25 -15 -29
-75 -19 -41 7 -162 13 -269 13 l-194 0 21 60 c24 69 25 69 220 31z m4759 -115
l-41 -86 12 80 c7 44 22 98 34 120 42 79 38 -23 -5 -114z m-2322 -17 c-13 -45
-27 -79 -32 -74 -5 5 2 52 16 104 14 51 28 85 32 74 3 -11 -4 -58 -16 -104z
m-2153 -73 c-9 -37 -5 -44 21 -34 17 7 32 3 32 -8 0 -11 33 -28 74 -38 55 -13
78 -30 87 -67 11 -47 13 -47 26 -7 15 46 192 22 209 -29 22 -68 -912 36 -986
110 -87 87 -47 105 235 111 146 3 276 7 290 8 15 1 20 -15 12 -46z m3094 -149
l-21 -67 10 67 c6 38 12 101 13 140 l4 73 7 -73 c5 -40 -1 -103 -13 -140z
m3019 -7 c0 -38 -9 -70 -20 -70 -22 0 -27 60 -8 108 19 50 28 38 28 -38z"/>
<path d="M4577 6827 c37 -16 96 -33 130 -38 40 -6 22 5 -47 30 -127 46 -182
52 -83 8z"/>
<path d="M4336 6769 c-6 -6 -71 -11 -144 -13 -73 -1 -128 -6 -123 -12 21 -21
201 -39 212 -21 7 9 65 25 130 35 l119 17 -92 3 c-50 1 -96 -3 -102 -9z"/>
<path d="M3883 6672 c62 -12 134 -40 160 -62 l47 -40 -40 50 c-60 75 -71 80
-180 77 l-100 -2 113 -23z"/>
<path d="M4699 6616 c-16 -15 -55 -28 -86 -27 -39 1 -68 -14 -90 -47 -31 -46
-31 -47 10 -22 100 63 114 9 35 -135 -172 -315 -174 -320 -128 -260 24 30 78
120 120 200 83 157 130 190 152 105 7 -28 17 -47 23 -42 5 6 -4 46 -22 90 -29
74 -29 82 0 99 18 9 28 29 24 43 -7 20 -15 19 -38 -4z"/>
<path d="M4111 6466 c-7 -19 -7 -28 1 -20 8 8 30 0 49 -17 43 -39 131 -20 145
32 9 34 6 35 -36 7 -25 -16 -49 -22 -53 -12 -15 39 -92 46 -106 10z"/>
<path d="M5385 6436 c40 -62 32 -70 -65 -65 -116 5 -331 -49 -381 -97 -87 -83
-209 -154 -264 -154 -30 0 -55 -9 -55 -19 0 -11 14 -15 30 -8 44 17 36 -21
-13 -65 -39 -34 -42 -34 -31 -3 20 55 1 41 -44 -32 -23 -37 -42 -87 -42 -112
0 -24 -8 -38 -19 -32 -10 6 -24 -7 -31 -29 -7 -22 -21 -40 -31 -40 -11 0 -19
-40 -19 -89 0 -87 -2 -90 -75 -104 -73 -15 -74 -15 -19 -26 l56 -11 -60 -80
c-34 -44 -61 -91 -61 -104 -1 -13 -31 -85 -69 -160 -37 -75 -74 -157 -82 -183
-11 -38 -25 -45 -73 -38 -59 8 -99 -19 -62 -42 24 -15 -46 -201 -99 -262 -19
-21 -44 -78 -57 -125 -13 -47 -33 -93 -46 -101 -16 -10 -16 -14 -1 -15 21 0
24 -115 4 -152 -12 -23 33 -111 51 -98 7 5 4 -1 -7 -14 -24 -28 -27 -116 -4
-116 8 0 16 -38 16 -85 1 -47 21 -148 45 -225 71 -233 71 -230 35 -230 -26 0
-32 -25 -33 -145 0 -156 -3 -157 -94 -22 -25 36 -5 -4 89 -181 24 -45 44 -95
45 -112 1 -16 20 -66 42 -110 39 -78 39 -79 30 -17 -14 94 26 116 197 110 144
-5 319 25 368 63 18 14 33 13 49 -3 13 -13 37 -22 54 -22 19 1 14 9 -14 20
-49 19 -54 34 -27 76 20 32 102 13 102 -23 0 -13 -27 -82 -61 -152 -33 -70
-56 -132 -51 -137 14 -13 106 176 163 333 58 162 62 208 8 85 -29 -64 -48 -84
-71 -75 -17 7 -40 12 -50 12 -29 0 -21 55 21 147 72 159 64 203 -10 57 -41
-80 -92 -155 -112 -166 -58 -31 -381 -33 -392 -3 -6 18 22 25 99 25 111 0 276
65 292 115 4 13 -32 2 -79 -25 -101 -57 -281 -69 -348 -22 -46 32 -161 247
-142 265 20 20 73 -35 73 -75 0 -21 9 -38 19 -38 11 0 14 15 7 32 -9 25 -3 30
26 21 160 -46 225 -54 342 -42 130 14 130 14 118 -33 -12 -44 -11 -45 13 -10
14 21 59 78 100 127 97 113 130 195 167 403 16 93 44 199 61 235 34 73 28 159
-27 377 -32 127 -55 174 -43 90 5 -32 -2 -48 -18 -45 -33 7 -31 -43 5 -163 34
-112 39 -212 11 -212 -11 0 -25 34 -32 75 -19 117 -28 138 -47 108 -13 -20
-51 -21 -193 -2 -207 28 -573 16 -585 -18 -11 -33 -44 -28 -44 6 0 19 -12 25
-32 17 -35 -13 -24 58 17 109 15 19 8 25 -25 25 -43 0 -43 2 -13 45 18 25 52
88 75 140 49 108 44 105 104 66 236 -152 734 -137 734 23 0 90 51 44 98 -89
77 -218 83 -231 91 -222 5 4 -13 84 -39 177 -53 187 -51 204 15 148 24 -21 34
-24 22 -8 -12 17 -59 80 -104 140 -46 61 -98 148 -116 195 -30 79 -78 105 -55
29 22 -67 -93 88 -124 169 -57 148 -26 171 59 45 75 -112 282 -290 235 -202
-12 22 -42 57 -67 77 -130 104 -168 270 -51 218 63 -28 676 -74 676 -51 -1 33
-127 222 -159 240 -22 11 -123 23 -225 25 -161 4 -185 10 -181 38 5 25 -5 31
-35 23 -50 -13 -51 3 -1 72 26 37 32 63 20 83 -16 25 -18 24 -19 -2 0 -37
-121 -159 -157 -159 -53 0 97 237 164 259 511 166 654 99 773 -367 48 -191 60
-208 60 -87 0 123 -73 423 -129 535 -25 50 -67 133 -93 186 -27 53 -61 107
-78 120 -22 18 -20 10 5 -30z m-694 -503 c-39 -71 -71 -150 -71 -176 -1 -86
-36 -112 -47 -36 -14 94 -8 218 9 208 8 -5 34 22 58 61 105 170 149 122 51
-57z m266 -285 c-24 -43 -46 -81 -48 -84 -9 -14 -109 22 -109 39 0 19 182 141
194 129 4 -4 -12 -42 -37 -84z m304 -9 c35 -44 60 -84 56 -87 -23 -20 -117
-29 -127 -12 -7 11 -2 20 11 20 16 0 17 9 5 25 -98 133 -47 183 55 54z m-729
-144 c12 -47 28 -103 37 -125 12 -32 10 -34 -7 -10 -52 73 -17 -32 53 -157 41
-73 74 -146 75 -161 0 -16 11 -32 24 -37 18 -6 19 9 6 54 -9 33 -11 61 -2 61
16 0 88 -141 77 -152 -26 -26 -269 -68 -392 -68 l-148 0 12 85 c11 81 -4 68
-35 -30 -10 -31 -17 -32 -57 -10 -25 14 -48 27 -52 29 -4 2 23 66 62 141 38
75 81 172 95 216 40 123 134 249 186 249 36 0 49 -17 66 -85z m248 -634 c0
-32 -71 -61 -174 -72 l-96 -10 106 38 c58 21 111 44 118 50 19 19 46 15 46 -6z
m-360 -21 c-39 -25 -114 -25 -130 0 -8 12 21 20 74 20 63 -1 78 -6 56 -20z
m227 -477 c73 -69 171 -255 121 -231 -21 10 -105 16 -188 13 -181 -5 -484 30
-502 59 -9 14 -17 13 -27 -2 -19 -32 -90 -27 -103 7 -14 35 84 168 141 193 90
39 506 10 558 -39z m-689 -66 c-27 -37 -49 -54 -54 -39 -9 26 51 102 80 102
11 0 -2 -29 -26 -63z m794 -282 c93 -89 -2 -353 -148 -413 -169 -69 -544 -10
-544 86 -1 33 -4 36 -19 13 -40 -63 -141 93 -141 220 0 133 62 153 463 145
322 -6 345 -9 389 -51z m-723 -625 c76 -119 81 -130 53 -130 -22 0 -90 105
-120 185 -32 84 -10 66 67 -55z"/>
<path d="M4480 5386 c0 -47 65 -234 85 -243 8 -3 15 -18 15 -33 0 -14 14 -31
32 -38 51 -20 56 -14 22 23 -44 49 -113 206 -114 259 0 24 -9 49 -20 56 -11 7
-20 -4 -20 -24z"/>
<path d="M4851 5443 c65 -56 347 -95 399 -54 39 31 39 31 -12 20 -28 -6 -126
2 -217 20 -192 36 -195 36 -170 14z"/>
<path d="M5280 5148 c0 -11 13 -38 29 -59 36 -48 40 -182 6 -196 -15 -6 -11
-10 10 -11 22 -1 35 -18 35 -47 1 -36 4 -39 19 -15 29 45 0 202 -52 280 -26
38 -47 60 -47 48z"/>
<path d="M5221 4926 c-2 -45 35 -116 88 -170 56 -56 68 -194 18 -210 -34 -12
-67 99 -42 143 15 27 14 33 -3 22 -16 -9 -35 14 -56 67 -18 45 -41 82 -51 82
-22 0 -2 -170 26 -222 9 -17 17 -84 17 -150 0 -65 1 -144 1 -175 0 -136 -351
-1229 -458 -1428 -32 -58 -50 -105 -42 -105 34 0 128 217 249 577 72 210 157
432 190 492 33 61 87 216 120 345 34 130 78 297 100 371 l39 135 -80 84 c-45
46 -89 102 -98 125 -9 22 -17 30 -18 17z"/>
<path d="M3540 4255 c0 -41 9 -75 20 -75 25 0 25 81 0 120 -14 22 -19 11 -20
-45z"/>
<path d="M4791 2522 c-7 -12 -30 -69 -50 -127 -70 -196 -220 -505 -291 -597
-66 -88 -93 -154 -50 -128 27 17 149 207 186 290 17 39 51 115 75 170 107 242
187 484 130 392z"/>
<path d="M3971 2045 c8 -41 14 -95 12 -120 -3 -52 27 -58 71 -14 23 24 37 25
59 7 66 -55 44 5 -31 85 -45 48 -82 94 -82 102 0 8 -10 15 -22 15 -15 0 -18
-24 -7 -75z"/>
<path d="M2871 4738 c7 -23 16 -61 19 -85 4 -24 16 -70 27 -103 l20 -60 1 73
c1 39 -12 105 -28 145 -33 77 -61 100 -39 30z"/>
<path d="M2710 2246 c-58 -120 -134 -348 -121 -361 4 -4 18 27 31 69 14 42 56
146 94 233 81 182 78 229 -4 59z"/>
<path d="M3493 1490 c6 -17 48 -52 93 -79 101 -60 483 -434 546 -534 26 -41
57 -80 71 -89 14 -8 4 18 -21 58 -53 87 -41 93 42 24 99 -83 110 -56 16 40
-101 103 -98 119 17 93 46 -10 83 -11 83 -3 0 9 -36 23 -80 30 -89 15 -89 15
-59 76 19 40 19 41 -7 9 -53 -65 -285 56 -463 242 -44 46 -95 83 -114 83 -19
0 -40 9 -47 20 -24 38 -90 64 -77 30z"/>
<path d="M3720 1446 c66 -29 263 -85 460 -132 114 -27 108 -19 71 -97 -31 -66
-31 -66 4 -19 62 85 168 282 151 282 -9 0 -36 -36 -61 -79 -54 -95 -219 -77
-561 61 -84 33 -144 19 -64 -16z"/>
<path d="M6554 1371 c-20 -48 -74 -142 -120 -209 -46 -67 -131 -189 -188 -272
-107 -155 -122 -195 -32 -89 148 175 411 621 383 648 -4 5 -24 -31 -43 -78z"/>
<path d="M3094 430 c-24 -57 -93 -418 -83 -428 18 -18 33 18 71 178 40 162 48
338 12 250z"/>
<path d="M1560 313 c0 -52 -7 -71 -23 -61 -17 10 -19 0 -9 -34 8 -26 20 -86
26 -133 10 -74 18 -85 61 -85 37 0 46 8 37 32 -7 18 -22 96 -34 175 -25 161
-58 222 -58 106z"/>
</g>
</svg>
