<?xml version="1.0" standalone="no"?>
<!DOCTYPE svg PUBLIC "-//W3C//DTD SVG 20010904//EN"
 "http://www.w3.org/TR/2001/REC-SVG-20010904/DTD/svg10.dtd">
<svg version="1.0" xmlns="http://www.w3.org/2000/svg"
 width="450.000000pt" height="450.000000pt" viewBox="0 0 450.000000 450.000000"
 preserveAspectRatio="xMidYMid meet">
<metadata>
Created by potrace 1.10, written by Peter Selinger 2001-2011
</metadata>
<g transform="translate(0.000000,450.000000) scale(0.100000,-0.100000)"
fill="#000000" stroke="none">
<path d="M2333 4070 c-5 -17 -14 -20 -67 -20 -33 0 -83 7 -110 15 -55 17 -80
19 -72 7 2 -4 1 -13 -3 -20 -11 -17 -130 -62 -136 -51 -4 5 -18 9 -33 9 -15 0
-40 9 -57 20 -35 23 -47 25 -43 8 6 -26 -79 -171 -137 -236 -79 -87 -168 -223
-196 -298 -12 -32 -41 -99 -65 -149 -28 -58 -44 -104 -44 -130 -2 -123 13
-369 27 -427 9 -39 12 -79 8 -95 -4 -15 -6 -41 -4 -58 1 -16 2 -57 1 -90 -11
-344 0 -422 55 -409 44 10 54 26 14 22 -30 -3 -35 0 -42 24 -12 47 -23 268
-12 268 5 0 8 12 6 28 -3 15 0 38 5 52 l9 24 13 -24 c8 -14 15 -43 16 -65 3
-50 40 -268 54 -315 5 -19 26 -102 45 -185 20 -82 42 -176 50 -207 8 -32 15
-68 15 -81 0 -13 9 -57 20 -98 49 -188 15 -267 -135 -319 -30 -10 -94 -36
-142 -58 -49 -22 -142 -56 -208 -77 -66 -20 -157 -53 -203 -72 -71 -29 -101
-35 -198 -42 -95 -6 -119 -11 -144 -30 -17 -12 -83 -42 -148 -67 -64 -25 -122
-50 -129 -56 -7 -5 -29 -40 -49 -76 -21 -37 -56 -94 -79 -127 -51 -71 -88
-144 -161 -313 l-54 -126 0 -113 0 -113 25 0 c14 0 26 5 26 10 1 6 2 14 3 19
2 16 16 25 16 11 0 -33 91 -57 103 -26 4 10 15 12 49 5 24 -4 112 -8 196 -7
84 0 156 -3 159 -6 4 -3 15 -6 26 -6 17 0 17 2 -7 21 -14 11 -26 24 -26 29 0
14 81 -18 95 -36 6 -9 18 -15 25 -12 9 3 5 14 -16 36 -25 28 -42 35 -129 53
-138 28 -217 52 -213 64 5 16 150 6 220 -15 34 -11 64 -17 67 -14 18 18 -142
66 -225 68 -39 1 -64 5 -64 12 0 6 10 10 23 8 70 -10 107 -11 107 -4 0 12 -34
19 -213 44 -93 13 -170 26 -173 28 -2 3 1 20 7 38 l12 33 81 -6 c90 -5 145 5
87 16 -19 4 -52 7 -75 7 -46 0 -86 9 -86 19 0 3 7 15 15 25 11 14 37 23 92 32
l78 12 -72 1 c-40 0 -73 5 -73 11 0 21 45 100 56 100 7 0 28 -19 46 -42 67
-84 156 -171 268 -261 120 -96 200 -193 200 -243 0 -20 5 -24 30 -24 28 0 29
1 19 28 -6 15 -18 54 -25 86 -8 33 -27 85 -43 115 -16 31 -37 74 -47 96 -11
22 -46 67 -79 101 -119 120 -193 204 -182 204 25 0 -49 39 -85 45 -21 4 -38 9
-38 11 0 2 15 27 33 56 19 29 36 61 40 71 9 23 31 21 60 -5 14 -13 87 -115
162 -228 138 -207 165 -243 172 -236 7 6 -37 86 -104 189 -35 54 -71 113 -81
130 -10 18 -26 44 -36 59 -10 15 -15 32 -11 38 4 6 2 9 -3 8 -12 -4 -103 97
-95 106 16 16 53 4 73 -25 28 -38 37 -31 16 13 l-17 33 37 -35 c20 -19 70 -80
111 -135 66 -87 75 -96 69 -66 -3 19 -19 50 -34 69 -78 98 -82 106 -64 119 14
11 12 13 -16 13 -21 0 -35 6 -42 20 -6 11 -15 18 -21 15 -5 -4 -9 -2 -9 4 0
13 40 25 50 14 4 -4 10 -16 12 -25 2 -13 7 -15 17 -8 12 7 13 14 4 32 -10 22
-7 26 39 52 27 15 51 26 53 24 2 -2 9 -51 14 -108 6 -58 13 -121 16 -140 4
-25 -2 -17 -21 30 -28 71 -31 76 -40 68 -3 -4 1 -19 9 -35 8 -15 18 -44 22
-63 4 -19 20 -47 36 -62 16 -15 29 -35 29 -45 -1 -17 -2 -17 -15 1 -14 19 -15
19 -15 1 0 -10 9 -29 21 -41 31 -33 52 -135 53 -259 1 -60 6 -118 12 -127 14
-25 10 256 -5 308 -6 23 -15 62 -20 85 -5 24 -16 61 -25 81 -16 36 -15 38 3
38 12 0 21 -9 25 -25 4 -14 11 -25 16 -25 13 0 13 7 -1 32 -11 20 -9 20 27 13
22 -4 45 -11 52 -17 8 -8 12 -6 12 4 0 23 -22 38 -57 38 -24 0 -33 5 -33 16 0
13 -3 14 -14 5 -12 -10 -17 -8 -25 8 -15 27 -14 51 3 51 8 0 45 34 84 75 74
80 78 80 103 20 19 -46 23 -73 22 -170 0 -91 -25 -217 -48 -245 -15 -19 -37
-166 -36 -249 0 -33 7 -87 15 -118 9 -32 17 -74 19 -93 2 -23 9 -36 20 -38 9
-2 17 1 17 7 0 6 8 11 18 11 16 1 16 1 -1 11 -16 10 -16 12 8 41 27 32 109
196 141 282 19 51 78 121 94 111 5 -3 7 -12 3 -20 -4 -11 -1 -13 11 -9 27 10
20 -37 -19 -125 -19 -43 -35 -87 -35 -97 0 -10 -19 -56 -42 -101 -40 -81 -41
-84 -22 -98 31 -24 47 -19 29 9 -12 18 -13 30 -6 43 16 31 51 121 51 133 0 6
25 62 55 125 51 110 55 115 85 115 38 0 39 -14 5 -135 -14 -50 -32 -130 -40
-180 -9 -50 -18 -98 -21 -107 -5 -16 2 -18 54 -18 l59 0 18 83 c51 238 80 342
95 342 17 0 20 -57 8 -159 -4 -32 -5 -56 -2 -53 7 7 32 115 39 170 4 30 11 47
18 45 17 -6 57 -90 51 -108 -3 -8 -12 -51 -19 -95 -7 -44 -20 -111 -29 -148
-9 -38 -16 -70 -16 -73 0 -2 18 -4 39 -4 35 0 40 3 50 31 6 18 11 40 11 49 0
9 32 59 71 111 69 91 111 140 94 110 -12 -21 -24 -81 -15 -76 5 3 7 -9 4 -27
-3 -18 -8 -70 -12 -115 l-8 -83 53 0 c60 0 58 -4 67 117 3 39 2 74 -3 77 -5 4
-3 28 5 59 7 28 14 63 14 77 0 38 12 49 43 43 28 -5 28 -7 27 -72 -1 -36 2
-88 6 -116 7 -46 9 -47 14 -20 l6 30 18 -40 c10 -22 20 -66 23 -97 l6 -58 58
0 c58 0 59 1 59 28 -1 24 -2 25 -14 10 -7 -10 -17 -18 -21 -18 -13 0 -34 31
-64 95 -15 33 -35 66 -44 74 -13 10 -17 30 -17 87 0 67 2 74 20 74 11 0 20 -7
20 -15 0 -18 17 -20 22 -3 3 8 23 3 64 -17 l59 -30 0 -95 c0 -52 -3 -116 -7
-142 -7 -43 -6 -48 11 -48 22 0 31 19 31 63 0 32 38 278 44 284 1 1 15 -3 30
-10 l28 -12 -6 -80 c-3 -44 -15 -115 -26 -159 -11 -43 -20 -80 -20 -82 0 -2
14 -4 30 -4 17 0 30 5 30 13 0 6 5 75 11 152 7 95 15 145 25 156 8 8 12 18 9
21 -3 3 8 27 25 54 16 27 33 57 36 67 4 10 16 17 30 17 13 0 24 5 24 10 0 6
-7 10 -15 10 -19 0 -19 24 0 40 8 7 15 21 15 31 0 10 8 26 19 36 10 10 30 41
44 69 14 27 51 83 81 124 31 40 56 78 56 83 0 13 -127 -147 -146 -185 -8 -15
-19 -28 -25 -28 -6 0 1 20 15 44 14 25 26 53 26 63 0 10 -13 -4 -29 -32 -33
-58 -65 -90 -81 -80 -6 4 -8 15 -5 25 3 10 2 21 -3 24 -6 3 -13 21 -16 40 -7
37 -46 82 -46 53 0 -8 7 -23 16 -31 8 -9 13 -22 11 -29 -4 -9 -6 -9 -6 1 -1
17 -21 15 -21 -3 0 -8 -7 -15 -15 -15 -8 0 -15 -7 -15 -16 0 -9 -10 -30 -22
-47 -13 -18 -24 -45 -24 -61 -1 -15 -9 -35 -19 -45 -16 -15 -17 -14 -11 9 7
24 6 24 -8 6 -13 -16 -18 -17 -33 -5 -10 7 -20 14 -22 16 -2 1 6 14 18 29 31
40 26 47 -9 12 -41 -40 -51 -104 -23 -145 44 -64 53 -135 19 -141 -10 -2 -80
11 -156 29 -125 30 -140 36 -155 61 -14 24 -15 32 -3 46 12 15 11 16 -5 3 -15
-12 -19 -12 -30 2 -63 83 -97 125 -126 156 -18 19 -50 63 -70 96 -45 74 -121
178 -127 173 -4 -5 28 -70 44 -91 20 -26 72 -130 68 -135 -3 -2 1 -17 9 -33 8
-15 18 -45 21 -66 3 -21 10 -46 15 -55 14 -26 12 -32 -33 -92 -33 -45 -44 -53
-50 -41 -5 8 -14 15 -19 15 -6 0 -23 9 -38 20 -27 19 -28 22 -35 152 -9 165
-13 211 -27 262 -14 54 -50 146 -67 171 -13 19 -13 19 -7 -5 4 -14 14 -37 21
-51 22 -44 53 -245 57 -372 3 -110 2 -117 -15 -111 -11 3 -20 0 -24 -10 -4
-11 -19 -16 -43 -16 -57 0 -81 10 -82 34 -1 17 -2 17 -6 4 -5 -20 -52 -24
-118 -8 -28 6 -42 6 -47 -3 -4 -6 -9 -9 -12 -6 -3 2 15 33 39 68 25 35 47 72
50 82 4 12 16 19 33 20 l27 0 -24 10 c-13 5 -25 8 -26 7 -1 -2 -17 -25 -35
-53 -18 -27 -49 -70 -69 -95 -20 -24 -46 -65 -59 -90 -12 -25 -20 -34 -16 -20
3 14 9 42 13 62 8 37 91 173 120 194 19 15 5 34 -26 34 -21 0 -23 -2 -13 -15
9 -11 6 -25 -20 -72 -34 -65 -76 -120 -84 -112 -3 3 10 52 29 109 33 103 36
118 16 106 -10 -7 -23 -45 -71 -216 -18 -63 -43 -135 -55 -160 -12 -25 -32
-74 -46 -110 l-23 -65 -15 50 c-15 55 -6 156 22 245 8 25 29 99 46 165 18 66
37 127 42 135 5 8 11 21 14 28 19 47 19 47 23 15 6 -55 20 -37 20 26 0 33 3
73 7 90 4 17 1 47 -6 68 -11 35 -11 37 22 65 27 23 28 26 6 12 -22 -13 -30
-14 -42 -4 -12 10 -15 9 -15 -4 0 -11 -5 -14 -12 -10 -8 5 -9 0 -4 -17 18 -58
26 -116 20 -139 l-7 -25 -13 30 c-13 29 -13 29 -11 -24 1 -36 -2 -55 -10 -58
-8 -3 -13 4 -13 16 0 12 -19 61 -43 109 l-43 87 61 27 c33 14 94 38 135 53 41
15 107 38 145 52 85 30 111 41 198 81 78 37 77 37 77 17 0 -29 54 -151 91
-205 20 -30 54 -71 76 -91 33 -32 65 -54 211 -142 29 -17 33 -24 28 -49 -3
-18 -2 -27 4 -23 6 3 10 13 10 21 0 17 -1 17 85 -1 108 -23 120 -21 174 30
l49 46 85 4 c130 5 261 70 337 166 49 62 110 186 110 223 0 18 4 26 13 22 6
-2 29 -10 50 -17 41 -14 44 -22 23 -89 -21 -69 -50 -130 -94 -204 -23 -36 -37
-66 -32 -66 8 0 -44 -133 -60 -155 -4 -5 -15 -36 -25 -68 -17 -54 -20 -58 -42
-52 -17 4 -22 2 -18 -5 8 -14 -23 -100 -36 -100 -5 0 -9 8 -10 18 0 10 -3 12
-6 5 -2 -7 -9 -13 -15 -13 -20 0 4 53 53 117 44 57 107 173 94 173 -3 0 -17
-24 -31 -52 -15 -29 -46 -75 -69 -103 -50 -61 -87 -123 -75 -127 5 -2 2 -25
-6 -53 -16 -50 -21 -86 -27 -205 -3 -57 -13 -107 -42 -222 l-7 -28 66 0 c60 0
66 2 71 22 45 208 73 288 98 288 19 0 27 -51 27 -175 0 -68 3 -95 10 -85 5 8
10 31 11 50 0 19 4 44 8 55 7 16 13 6 30 -49 11 -37 21 -77 21 -87 0 -16 7
-19 40 -19 l41 0 -36 52 c-19 29 -35 57 -35 61 0 5 -14 26 -30 48 -26 32 -30
45 -28 84 2 36 6 44 18 39 8 -4 40 -11 70 -16 30 -5 60 -14 66 -19 16 -13 25
-55 33 -156 6 -77 5 -81 -11 -67 -15 15 -16 14 -11 -5 5 -18 13 -21 60 -21 47
0 54 2 49 18 -11 37 -27 144 -22 149 2 3 17 -34 32 -81 14 -47 30 -86 35 -86
12 0 13 -6 -26 114 -39 119 -42 148 -19 167 14 11 14 13 0 21 -12 7 -5 23 41
91 31 45 62 81 70 81 9 -1 11 2 4 10 -7 8 0 26 20 56 17 25 48 83 70 130 62
132 86 176 125 227 l37 48 -6 -40 -6 -40 15 33 c8 18 19 30 24 27 11 -7 -11
-82 -50 -169 -32 -70 -46 -128 -55 -227 -3 -32 -12 -77 -20 -99 -20 -56 -76
-134 -86 -118 -5 8 -24 -3 -62 -35 -31 -26 -59 -47 -63 -47 -4 0 -16 7 -26 17
-25 22 -23 5 7 -59 14 -29 25 -58 25 -65 0 -25 42 -123 52 -123 6 0 8 11 4 28
-4 15 -12 51 -18 80 -10 53 -10 54 22 87 37 38 75 51 97 34 21 -18 63 -105 63
-131 0 -13 -9 -38 -20 -56 -11 -18 -20 -34 -20 -37 0 -2 41 -4 90 -4 l90 1 0
57 c0 59 -32 143 -63 170 -22 18 -22 20 14 61 39 45 54 76 123 245 91 224 92
225 123 225 26 1 27 1 8 13 -11 6 -22 12 -25 12 -3 0 -10 3 -15 7 -15 9 -39
-7 -31 -20 3 -6 -7 -34 -24 -64 -52 -92 -68 -130 -95 -237 -30 -119 -42 -145
-83 -184 -21 -20 -36 -27 -50 -23 -16 6 -18 13 -14 59 5 55 -9 60 -15 5 -4
-42 -16 -52 -48 -44 l-26 7 50 59 c39 48 52 72 61 118 35 184 102 418 119 416
6 -1 23 -2 37 -3 25 -1 26 -4 21 -39 l-5 -37 14 30 c14 29 15 29 8 -20 -3 -27
-17 -85 -31 -128 -13 -44 -22 -81 -20 -84 6 -5 47 83 47 100 0 5 9 41 21 79
l20 69 47 -6 c26 -4 59 -11 74 -17 l27 -10 -30 -56 c-16 -32 -31 -74 -33 -94
-3 -21 -10 -48 -17 -60 -7 -13 -20 -48 -30 -78 -9 -30 -33 -97 -53 -149 -19
-52 -29 -88 -21 -80 13 13 125 266 156 354 9 24 28 49 48 62 73 49 69 13 -8
-80 -68 -83 -151 -261 -182 -390 -22 -91 -24 -114 -5 -72 7 17 31 68 53 115
22 47 52 125 67 173 28 88 85 185 126 214 21 15 21 14 18 -34 -3 -46 -4 -48
-36 -51 -18 -2 -30 -8 -27 -13 4 -5 18 -6 32 -3 26 7 26 6 19 -37 -10 -68 -81
-286 -132 -406 -25 -59 -48 -114 -51 -120 -3 -8 3 -13 16 -13 14 0 25 11 35
33 7 17 25 57 39 87 31 67 80 219 106 331 11 46 30 111 42 144 11 33 24 77 27
98 11 59 27 39 24 -28 l-3 -60 23 32 c21 30 58 45 58 24 0 -5 -21 -53 -46
-108 -47 -100 -79 -191 -71 -200 3 -2 8 6 12 19 4 13 17 36 28 52 12 17 37 73
57 125 35 94 37 96 71 99 70 7 144 -35 94 -54 -8 -4 -15 -16 -15 -28 0 -11 -9
-41 -20 -65 -11 -24 -20 -51 -20 -60 0 -17 -124 -151 -140 -151 -5 0 -17 -15
-26 -32 -9 -18 -30 -48 -45 -66 -31 -35 -37 -55 -15 -46 8 3 19 18 26 34 10
23 170 190 170 177 0 -12 -34 -84 -56 -118 -24 -38 -33 -75 -15 -65 5 4 30 45
56 94 26 48 54 95 62 104 9 10 30 61 47 113 36 107 32 106 89 17 29 -44 26
-52 -11 -26 -23 16 -31 7 -11 -13 8 -8 8 -17 0 -31 -16 -30 -14 -32 17 -16 41
21 77 18 91 -9 11 -20 9 -30 -13 -70 -13 -26 -20 -47 -15 -47 5 0 14 10 18 22
9 22 9 22 17 4 5 -12 1 -30 -9 -48 -9 -17 -17 -35 -17 -42 0 -7 -6 -21 -14
-31 -13 -18 -14 -15 -11 30 2 28 -1 53 -7 56 -6 4 -2 22 11 47 22 44 27 82 11
82 -5 0 -10 -7 -10 -16 0 -9 -11 -37 -24 -63 -14 -25 -35 -74 -48 -108 -17
-47 -30 -65 -51 -74 -15 -6 -27 -15 -27 -19 0 -5 -8 -6 -19 -3 -10 3 -22 0
-25 -5 -7 -11 44 -10 82 2 18 6 22 4 22 -14 0 -18 3 -19 20 -10 26 14 25 10
-5 -50 l-25 -50 77 0 c66 0 80 3 101 23 24 21 24 22 14 1 -11 -20 -9 -22 28
-22 27 -1 43 5 51 16 10 16 10 16 5 0 -5 -15 1 -18 36 -18 l41 0 -6 83 c-4 45
-7 97 -7 115 0 22 -6 35 -17 39 -25 10 -56 46 -125 148 -34 50 -82 110 -107
135 -25 25 -59 62 -74 83 -31 41 -102 91 -117 82 -5 -3 -7 0 -4 8 8 23 -70 92
-132 115 -30 12 -77 22 -103 22 -26 0 -74 9 -107 21 -32 11 -83 25 -111 30
-29 5 -76 20 -105 33 -29 12 -72 28 -95 36 -23 7 -55 25 -70 40 -71 68 -201
174 -228 185 -77 33 -174 64 -213 70 -61 8 -114 38 -151 84 l-32 40 21 138
c11 76 25 158 30 183 19 97 73 329 96 415 14 50 38 140 53 200 40 151 82 277
99 295 12 13 13 9 8 -35 -4 -27 -8 -92 -11 -143 -2 -51 -13 -125 -24 -165 -10
-39 -22 -89 -26 -110 -5 -31 -9 -37 -23 -32 -37 16 -57 18 -46 6 14 -15 72
-32 78 -22 19 30 56 242 56 318 0 48 5 107 10 131 7 30 7 47 -2 61 -10 16 -8
30 8 73 23 58 67 388 58 426 -4 12 -1 28 5 36 22 26 -6 132 -70 270 -33 71
-57 131 -54 134 3 3 -8 20 -25 37 -16 16 -56 77 -88 135 -45 81 -69 114 -109
145 -28 22 -71 56 -95 75 -36 29 -40 31 -26 10 41 -58 38 -62 -13 -17 -104 93
-146 123 -156 113 -4 -4 -1 -16 6 -27 25 -41 1 -31 -48 20 -27 28 -52 51 -56
51 -4 0 -9 -9 -12 -20z m-493 -98 c0 -18 -33 -52 -50 -52 -15 0 -12 9 11 46
21 35 39 37 39 6z m187 12 c-3 -3 -12 -4 -19 -1 -8 3 -5 6 6 6 11 1 17 -2 13
-5z m63 -15 c0 -11 -4 -17 -10 -14 -5 3 -10 13 -10 21 0 8 5 14 10 14 6 0 10
-9 10 -21z m-165 -9 c3 -5 1 -10 -4 -10 -6 0 -11 5 -11 10 0 6 2 10 4 10 3 0
8 -4 11 -10z m657 -74 c10 -19 8 -18 -16 3 -14 14 -26 29 -26 34 0 13 29 -12
42 -37z m-768 0 c-5 -12 -45 -36 -61 -36 -4 0 4 11 17 25 25 27 53 34 44 11z
m803 -63 c-4 -3 -7 0 -7 7 0 7 3 10 7 7 3 -4 3 -10 0 -14z m154 -90 c15 -37
24 -74 21 -82 -3 -7 -15 15 -27 50 -12 35 -30 80 -39 99 -18 34 -18 34 0 18
10 -10 30 -48 45 -85z m-1097 -68 c-23 -36 -29 -24 -8 17 9 18 19 28 21 21 2
-6 -3 -23 -13 -38z m243 -52 c-4 -3 -10 -3 -14 0 -3 4 0 7 7 7 7 0 10 -3 7 -7z
m557 -48 c27 -4 55 -9 62 -12 17 -6 18 -65 2 -81 -9 -9 -8 -12 8 -12 22 0 93
-70 148 -147 21 -29 40 -53 43 -53 3 0 -2 10 -10 23 -9 12 -28 42 -43 67 -15
25 -36 56 -46 70 -19 24 -19 24 4 43 l23 19 -27 -6 c-16 -4 -28 -4 -28 -1 0
11 57 33 82 30 46 -5 116 -97 120 -159 2 -23 9 -38 19 -41 34 -11 80 -195 49
-195 -9 0 -8 -30 6 -161 4 -39 2 -59 -6 -64 -9 -6 -9 -9 0 -15 30 -18 19 -345
-17 -520 -14 -71 -40 -137 -49 -128 -2 3 5 37 17 78 28 101 18 112 -13 14 -41
-125 -80 -228 -93 -244 -6 -8 -29 -50 -50 -92 -20 -43 -41 -78 -46 -78 -9 0
-49 -85 -50 -109 0 -10 -2 -11 -6 -4 -5 14 21 98 43 142 8 14 14 33 13 41 0
22 -40 -58 -55 -110 -7 -25 -31 -112 -54 -194 -41 -149 -88 -257 -132 -307
-49 -56 -203 -75 -334 -43 -60 15 -69 21 -119 80 -30 35 -64 85 -75 112 -26
57 -58 197 -71 307 -5 44 -14 93 -19 109 -15 44 -12 67 10 73 11 3 20 9 20 14
0 5 -11 7 -24 3 -23 -5 -23 -3 -30 75 -4 45 -11 94 -16 111 -11 38 6 41 21 4
5 -15 12 -25 15 -22 2 3 0 17 -5 31 -8 21 -6 29 15 48 13 12 24 27 24 33 0 6
-9 0 -19 -13 -24 -31 -44 -20 -30 16 5 15 7 33 5 40 -3 7 4 36 15 65 11 28 18
52 16 55 -2 2 -13 -20 -24 -49 -30 -78 -48 -70 -48 19 0 39 -3 75 -7 79 -5 4
-8 -5 -8 -19 0 -31 -7 -34 -26 -9 -12 15 -13 13 -3 -13 8 -24 7 -32 -5 -41 -9
-6 -16 -16 -16 -23 0 -6 -5 -11 -11 -11 -6 0 -9 9 -6 19 2 11 -6 37 -18 59
-34 59 -50 113 -37 121 8 5 7 23 -3 61 -16 60 -12 82 6 32 6 -18 15 -32 19
-32 5 0 11 -9 15 -19 3 -10 15 -21 25 -24 26 -7 26 -27 0 -27 -11 0 -20 -5
-20 -10 0 -14 29 -70 36 -70 2 0 0 9 -6 19 -23 45 6 77 41 45 32 -29 21 2 -13
38 -96 102 -102 115 -94 214 7 91 30 179 56 209 10 11 23 30 29 42 6 12 20 25
31 28 26 8 156 -41 191 -72 14 -13 29 -23 35 -23 5 0 -2 9 -16 20 -38 29 -18
34 42 9 67 -28 77 -36 92 -73 22 -51 6 -51 -39 1 -24 26 -47 44 -51 40 -5 -5
5 -20 21 -33 l30 -24 -35 7 c-31 6 -34 5 -22 -10 12 -13 10 -16 -15 -19 -25
-3 -22 -5 25 -23 29 -10 62 -29 74 -42 32 -34 15 -39 -19 -5 -30 30 -100 52
-169 52 -53 0 -130 -44 -153 -88 -10 -18 -9 -23 3 -28 22 -8 318 1 339 10 13
6 17 4 17 -13 0 -17 -5 -20 -27 -15 -16 3 -57 -4 -93 -15 -81 -26 -132 -26
-190 -1 l-45 20 33 -29 c44 -38 77 -42 159 -19 84 23 143 33 143 24 0 -3 -9
-23 -20 -43 -29 -55 -24 -76 6 -25 14 23 29 42 35 42 12 0 -36 -95 -61 -120
-10 -10 -26 -34 -36 -52 -9 -18 -27 -47 -40 -64 -22 -30 -64 -158 -64 -197 0
-29 23 -14 32 20 4 16 44 100 88 185 43 86 88 179 99 207 12 28 37 75 57 105
l36 55 -21 60 c-12 34 -21 70 -21 82 0 11 -4 17 -11 14 -5 -4 -15 7 -22 24 -6
17 -15 31 -19 31 -8 0 0 -29 14 -47 5 -7 5 -14 -1 -17 -6 -4 -22 12 -36 34
-18 28 -31 40 -42 36 -9 -4 -30 7 -53 26 -27 23 -70 43 -144 66 -58 18 -106
36 -106 41 0 5 16 38 36 73 45 78 85 168 76 168 -4 0 -21 -30 -39 -68 -51
-106 -136 -258 -159 -284 -25 -27 -53 -174 -59 -309 -2 -46 -4 -97 -5 -114
l-1 -30 -13 30 c-22 53 -20 -177 3 -276 10 -45 14 -76 9 -71 -6 6 -19 46 -29
89 -24 100 -25 286 -3 398 9 45 17 139 18 216 2 134 3 139 41 230 21 52 44
101 52 110 7 8 13 20 13 26 0 5 25 27 56 49 30 21 70 51 88 67 47 38 50 34 16
-17 -36 -53 -39 -73 -5 -31 23 28 26 29 122 31 148 2 167 3 161 10 -4 3 -57 5
-119 5 l-114 -1 22 21 c23 24 87 32 203 29 127 -4 186 -2 250 7 36 6 74 9 85
7 11 -2 42 -6 69 -9z m-908 -106 c-20 -35 -36 -60 -36 -55 0 18 64 140 67 129
2 -6 -12 -40 -31 -74z m1079 61 c3 -5 1 -10 -4 -10 -6 0 -11 5 -11 10 0 6 2
10 4 10 3 0 8 -4 11 -10z m235 -54 c0 -5 -7 -3 -15 4 -8 7 -15 22 -15 34 1 20
2 20 15 -4 8 -14 14 -29 15 -34z m80 -13 c0 -7 -2 -13 -4 -13 -7 0 -46 66 -46
76 1 14 50 -49 50 -63z m-383 30 c-4 -3 -10 -3 -14 0 -3 4 0 7 7 7 7 0 10 -3
7 -7z m-897 -23 c0 -5 -5 -10 -11 -10 -5 0 -7 5 -4 10 3 6 8 10 11 10 2 0 4
-4 4 -10z m-230 -100 c-6 -12 -14 -19 -17 -17 -2 3 1 15 7 27 6 12 14 19 17
17 2 -3 -1 -15 -7 -27z m1495 -20 c3 -5 4 -10 1 -10 -3 0 -8 5 -11 10 -3 6 -4
10 -1 10 3 0 8 -4 11 -10z m-1458 -207 c-4 -3 -7 0 -7 7 0 7 3 10 7 7 3 -4 3
-10 0 -14z m-37 -95 c0 -87 -7 -100 -15 -27 -4 42 3 109 11 109 2 0 4 -37 4
-82z m1530 -115 c0 -32 -4 -64 -9 -72 -6 -10 -9 11 -8 57 2 85 17 98 17 15z
m-880 -5 c20 -34 27 -88 11 -88 -5 0 -14 20 -20 44 -6 24 -13 51 -17 60 -11
28 5 18 26 -16z m-294 -70 c-3 -13 -6 -29 -6 -35 0 -8 -13 -13 -30 -13 -37 0
-37 6 -3 42 32 34 47 36 39 6z m57 2 c3 -11 1 -20 -4 -20 -5 0 -9 2 -9 4 0 2
-3 11 -6 20 -3 9 -2 16 4 16 5 0 12 -9 15 -20z m97 -6 c44 -29 44 -44 0 -44
-23 0 -30 6 -39 31 -17 49 -16 49 39 13z m-511 -36 c0 -38 -1 -40 -10 -19 -8
22 -4 61 7 61 2 0 4 -19 3 -42z m-8 -175 c13 -34 -1 -52 -17 -22 -16 29 -18
63 -3 54 5 -4 14 -18 20 -32z m108 -73 c11 -24 11 -24 -3 -6 -9 11 -16 24 -16
30 0 12 5 7 19 -24z m67 -167 c26 -76 43 -113 53 -113 11 0 10 -4 -5 -15 -26
-20 -29 -19 -43 13 -16 34 -61 210 -61 237 1 31 13 4 56 -122z m-49 -10 c-4
-3 -7 0 -7 7 0 7 3 10 7 7 3 -4 3 -10 0 -14z m-60 -15 c-3 -8 -6 -5 -6 6 -1
11 2 17 5 13 3 -3 4 -12 1 -19z m173 -23 c0 -28 -15 -34 -24 -9 -10 25 -7 34
9 34 9 0 15 -9 15 -25z m-163 -12 c-4 -3 -7 0 -7 7 0 7 3 10 7 7 3 -4 3 -10 0
-14z m226 -13 c-3 -11 -9 -20 -14 -20 -10 0 -12 24 -2 33 13 13 21 7 16 -13z
m128 -7 c-12 -20 -14 -14 -5 12 4 9 9 14 11 11 3 -2 0 -13 -6 -23z m-236 -105
c18 -18 52 -127 86 -273 12 -49 30 -125 41 -168 20 -80 20 -110 0 -60 -7 15
-30 102 -52 193 -52 210 -78 290 -101 316 -11 11 -19 27 -19 35 1 10 5 8 15
-6 8 -11 21 -28 30 -37z m55 -6 c17 -62 10 -70 -14 -17 -22 48 -24 71 -6 60 5
-3 14 -22 20 -43z m-82 -142 c12 -47 31 -125 43 -175 12 -49 27 -98 34 -110
34 -51 95 -242 74 -229 -5 3 -9 12 -9 21 0 22 -74 207 -78 195 -6 -18 17 -123
49 -227 63 -203 60 -189 42 -202 -30 -23 -38 -14 -40 40 -4 77 -8 102 -36 207
-14 52 -28 124 -31 160 -7 73 -13 104 -63 305 -46 184 -46 187 -25 140 11 -22
28 -78 40 -125z m-1 113 c-4 -3 -7 0 -7 7 0 7 3 10 7 7 3 -4 3 -10 0 -14z
m1210 0 c-4 -3 -7 0 -7 7 0 7 3 10 7 7 3 -4 3 -10 0 -14z m-1172 -102 c4 -21
4 -31 -3 -27 -5 3 -12 23 -16 45 -3 22 -8 48 -11 58 -3 10 1 5 9 -12 7 -16 17
-45 21 -64z m1154 42 c-9 -59 -44 -242 -64 -343 -14 -71 -54 -303 -79 -455 -8
-52 -15 -71 -28 -73 -16 -3 -16 -1 -3 25 15 31 35 147 34 198 0 17 -9 -7 -19
-53 -11 -45 -26 -95 -34 -110 -8 -15 -21 -47 -30 -72 -9 -25 -37 -72 -64 -105
-64 -81 -125 -165 -118 -165 4 0 86 102 108 134 4 6 10 8 13 4 3 -3 -10 -37
-30 -74 -20 -38 -43 -85 -51 -104 l-14 -35 30 35 c17 19 30 40 30 47 0 7 7 10
18 7 13 -5 14 -4 3 4 -12 9 -11 16 6 44 11 19 26 52 33 74 14 42 58 134 64
134 30 0 46 -33 29 -55 -5 -6 -4 -7 1 -3 25 20 29 -10 11 -72 -3 -10 2 -16 14
-16 12 0 17 6 14 17 -3 9 1 22 9 30 7 8 22 31 33 52 30 58 45 67 45 26 -1 -69
-104 -229 -177 -273 -52 -31 -50 -31 -56 -8 -4 13 -5 12 -6 -5 -1 -17 -13 -26
-56 -42 -31 -12 -71 -21 -89 -21 -30 0 -34 3 -29 22 5 21 4 21 -8 7 -17 -21
-59 -35 -59 -20 0 6 11 21 25 33 14 12 32 33 41 47 l17 26 -30 -27 c-16 -16
-34 -28 -40 -28 -7 0 -14 -8 -17 -18 -7 -22 -70 -92 -82 -92 -5 0 -17 11 -27
25 -16 23 -16 25 4 62 l22 38 -26 -30 c-22 -26 -26 -28 -32 -12 -4 9 -5 29 -3
42 3 14 1 25 -3 25 -13 0 -11 28 3 36 6 4 14 2 16 -4 2 -7 8 -12 13 -12 14 0
11 28 -3 33 -8 2 7 24 37 55 28 28 73 89 100 136 28 47 55 86 61 86 16 0 104
88 104 104 0 8 20 61 44 118 24 57 48 119 54 138 45 154 68 218 90 249 14 20
23 29 20 21 -20 -54 -42 -106 -50 -115 -4 -5 -8 -19 -8 -30 0 -12 -9 -48 -20
-80 -14 -42 -17 -61 -9 -66 15 -9 -2 -60 -53 -163 -47 -95 -46 -120 2 -38 32
53 62 134 105 281 9 30 34 81 55 114 43 65 74 146 68 174 -3 11 -11 -4 -21
-36 -17 -53 -62 -141 -74 -141 -13 0 8 61 55 160 27 58 56 122 63 143 18 52
28 46 18 -10z m-1130 -143 l-1 -25 -8 25 c-4 14 -8 32 -9 40 -1 13 0 13 9 0 5
-8 9 -26 9 -40z m18 -87 c-4 -3 -7 0 -7 7 0 7 3 10 7 7 3 -4 3 -10 0 -14z m10
-35 c-3 -8 -6 -5 -6 6 -1 11 2 17 5 13 3 -3 4 -12 1 -19z m854 -144 c-11 -33
-20 -54 -20 -48 -1 18 30 116 35 111 3 -3 -4 -31 -15 -63z m46 -61 c-4 -3 -7
0 -7 7 0 7 3 10 7 7 3 -4 3 -10 0 -14z m-800 -60 c-4 -3 -7 0 -7 7 0 7 3 10 7
7 3 -4 3 -10 0 -14z m49 -138 c12 -35 33 -65 73 -102 30 -29 61 -53 68 -53 15
0 17 -28 4 -49 -7 -10 -22 -12 -67 -6 -79 9 -63 -4 25 -20 38 -8 98 -25 133
-38 89 -36 106 -40 134 -33 34 9 30 26 -7 26 -37 0 -196 47 -204 60 -3 6 -2
17 3 27 8 14 27 16 133 14 72 -1 136 2 153 9 41 15 42 7 7 -37 -16 -21 -37
-54 -45 -74 -8 -20 -39 -62 -67 -94 l-53 -57 -19 24 -19 23 6 -32 c3 -19 1
-33 -6 -35 -8 -3 -8 -16 1 -49 33 -113 25 -132 -45 -109 -36 12 -39 11 -61
-16 -28 -36 -31 -12 -4 33 16 25 24 30 43 25 22 -5 22 -5 6 11 -24 24 -30 22
-62 -30 -37 -58 -46 -40 -12 21 33 59 19 59 -16 0 -26 -42 -29 -44 -50 -32
-20 10 -21 13 -5 16 20 4 21 15 6 43 -8 17 -7 23 8 35 17 13 16 13 -7 14 -18
0 -21 3 -11 9 8 5 12 19 9 35 -3 14 -1 26 4 26 5 0 6 10 2 23 -10 31 -71 110
-76 97 -6 -18 -44 41 -62 97 -17 50 -15 73 4 73 14 0 37 -50 43 -93 3 -21 8
-41 12 -45 9 -9 -5 90 -15 103 -13 16 -52 182 -48 202 3 13 11 6 32 -30 15
-26 26 -54 23 -62 -6 -14 29 -32 40 -21 3 3 -8 39 -26 81 -17 41 -31 78 -31
82 1 15 29 -42 46 -92z m-179 -112 c-4 -3 -7 0 -7 7 0 7 3 10 7 7 3 -4 3 -10
0 -14z m-13 -55 c3 -13 8 -40 11 -61 3 -21 9 -46 11 -55 3 -9 -8 6 -24 35 -19
34 -28 60 -25 77 6 32 21 34 27 4z m88 -34 c12 -65 15 -77 37 -133 12 -29 20
-55 18 -57 -12 -13 -52 71 -68 144 -22 102 -22 95 -7 90 7 -3 16 -22 20 -44z
m-147 0 c8 -4 22 -18 30 -33 20 -40 55 -143 55 -163 0 -10 6 -18 14 -18 7 0
21 -10 30 -22 l17 -23 -11 23 c-9 17 -8 27 1 38 10 12 10 15 -1 12 -16 -4 -34
47 -25 70 5 13 11 7 25 -26 10 -23 24 -42 29 -42 6 0 18 -11 27 -25 13 -20 14
-28 5 -39 -10 -12 -8 -13 8 -9 25 6 27 -13 6 -41 -13 -18 -15 -17 -40 10 l-26
29 18 -30 18 -30 -42 35 c-23 19 -42 38 -42 41 -1 3 -16 22 -34 41 -37 40 -97
155 -97 187 0 22 7 25 35 15z m1339 -50 c13 -33 5 -78 -33 -187 -21 -61 -42
-128 -46 -147 -4 -19 -16 -53 -27 -75 -11 -22 -29 -65 -40 -95 -11 -30 -33
-90 -50 -134 -16 -43 -27 -81 -24 -83 7 -8 -31 -80 -47 -90 -8 -4 -19 -17 -26
-28 -12 -19 -12 -19 -6 -1 3 11 10 40 16 65 5 25 20 80 33 121 13 41 29 94 35
118 9 32 17 42 34 43 17 1 18 2 5 6 -22 5 -22 4 5 77 23 63 53 93 37 37 -5
-17 -7 -31 -5 -31 7 0 41 83 48 115 6 29 6 29 -10 -5 -10 -19 -18 -37 -20 -39
-1 -1 -7 0 -13 4 -7 5 -8 10 -3 14 6 3 34 79 64 169 29 89 56 162 60 162 4 0
10 -7 13 -16z m160 -96 c70 -69 91 -81 61 -34 -18 28 -15 34 7 14 7 -7 31 -23
53 -35 45 -25 53 -53 29 -112 -13 -31 -13 -35 6 -48 19 -13 19 -16 4 -51 -8
-20 -25 -53 -38 -72 -13 -19 -38 -59 -57 -88 -40 -64 -47 -55 -20 24 30 91 69
154 94 154 16 0 18 3 10 11 -11 11 -25 14 -75 18 -10 0 -18 9 -18 18 0 13 -3
14 -11 6 -15 -15 -37 11 -68 79 -26 53 -56 85 -66 69 -3 -6 -2 -11 2 -11 5 0
17 -26 27 -57 10 -32 22 -68 27 -81 15 -40 10 -38 -15 3 -28 47 -70 180 -62
194 3 5 0 11 -6 14 -7 2 -10 8 -6 12 11 12 37 -9 57 -45 10 -19 24 -36 31 -38
7 -3 1 13 -14 34 -14 21 -26 44 -26 51 0 13 -12 17 -37 14 -8 -1 -13 10 -13
29 l0 30 28 -17 c15 -10 58 -48 96 -85z m-1244 -2 c7 -14 10 -32 7 -40 -4 -9
-3 -16 2 -16 5 0 11 -11 14 -25 11 -62 -40 9 -57 78 -8 35 15 37 34 3z m1087
-116 c-4 -109 -27 -152 -27 -51 0 55 16 141 26 141 2 0 2 -41 1 -90z m-2037 7
c0 -16 -142 -157 -157 -157 -7 0 -11 17 -10 43 0 24 -2 48 -6 54 -4 7 1 16 10
22 10 6 12 11 6 11 -7 0 -13 3 -13 8 0 4 22 8 49 9 27 1 62 8 78 16 29 16 43
14 43 -6z m940 -58 c0 -6 7 -18 16 -27 11 -10 13 -17 5 -20 -6 -2 -18 3 -26
11 -8 9 -20 17 -27 19 -10 4 -10 8 1 21 13 17 31 14 31 -4z m1205 -100 c5 -22
3 -29 -8 -29 -10 0 -18 19 -26 63 -6 35 -11 70 -11 78 1 17 36 -71 45 -112z
m285 107 c0 -3 -4 -8 -10 -11 -5 -3 -10 -1 -10 4 0 6 5 11 10 11 6 0 10 -2 10
-4z m-384 -93 c-5 -35 -5 -36 6 -13 12 24 13 23 16 -22 3 -51 -11 -111 -57
-237 -17 -46 -30 -86 -28 -88 2 -2 16 24 31 57 15 33 28 60 30 60 5 0 -41
-230 -47 -236 -8 -8 -117 5 -117 14 0 4 16 52 36 107 26 72 37 120 39 170 3
64 22 157 39 184 4 6 14 11 22 11 8 0 17 7 20 15 11 28 16 15 10 -22z m156 5
c-7 -7 -12 -8 -12 -2 0 14 12 26 19 19 2 -3 -1 -11 -7 -17z m-957 -8 c3 -5 1
-10 -4 -10 -6 0 -11 5 -11 10 0 6 2 10 4 10 3 0 8 -4 11 -10z m1045 6 c0 -3
-45 -104 -85 -191 -43 -93 -54 -125 -44 -125 6 0 16 15 24 34 18 42 41 60 30
25 -20 -70 -93 -201 -146 -263 -5 -5 -13 3 -19 18 -8 23 -3 49 35 161 25 74
45 143 44 152 0 11 -3 13 -6 6 -2 -7 -8 -13 -13 -13 -9 0 3 62 21 106 l12 29
8 -35 c5 -22 2 -60 -6 -100 -7 -36 -12 -66 -10 -68 2 -2 17 41 34 95 35 108
74 173 102 173 11 0 19 -2 19 -4z m-1137 -17 c12 -7 26 -19 31 -28 8 -13 10
-13 17 4 7 19 8 18 8 -2 1 -26 -14 -29 -71 -12 -40 11 -45 18 -26 37 15 15 14
15 41 1z m94 -39 c1 -11 -2 -22 -8 -25 -5 -4 -9 5 -9 19 0 30 15 35 17 6z m28
11 c3 -5 1 -12 -5 -16 -5 -3 -10 1 -10 9 0 18 6 21 15 7z m1557 -15 c6 -28 -8
-46 -34 -46 -17 0 -17 2 -1 35 20 41 29 44 35 11z m162 5 c8 -12 -3 -41 -15
-41 -5 0 -9 11 -9 25 0 25 14 34 24 16z m-104 -17 c0 -8 -5 -12 -10 -9 -6 4
-8 11 -5 16 9 14 15 11 15 -7z m-710 -3 c0 -6 -4 -13 -10 -16 -5 -3 -10 1 -10
9 0 9 5 16 10 16 6 0 10 -4 10 -9z m870 -6 c14 -8 22 -15 18 -16 -5 -1 -11 -2
-15 -3 -5 -1 -18 -7 -30 -14 -19 -11 -23 -10 -23 2 0 20 11 46 19 46 3 -1 17
-7 31 -15z m-1135 -120 c-15 -52 -23 -99 -20 -115 4 -18 -3 -51 -21 -94 -24
-60 -29 -66 -55 -66 l-30 0 17 32 c9 18 29 44 44 58 15 14 31 36 35 50 7 22 5
22 -25 -8 -36 -36 -50 -36 -26 0 8 12 29 64 47 113 17 50 36 98 41 108 20 39
17 7 -7 -78z m846 62 c-10 -9 -11 -8 -5 6 3 10 9 15 12 12 3 -3 0 -11 -7 -18z
m320 -6 c-7 -13 -17 -18 -28 -14 -14 5 -13 9 7 25 27 22 36 18 21 -11z m-1554
2 c-4 -3 -10 -3 -14 0 -3 4 0 7 7 7 7 0 10 -3 7 -7z m1587 -8 c-6 -16 -24 -21
-24 -7 0 11 11 22 21 22 5 0 6 -7 3 -15z m-1618 -30 c6 -24 0 -44 -10 -34 -11
11 -17 59 -7 59 6 0 13 -11 17 -25z m-39 -22 c-4 -3 -7 0 -7 7 0 7 3 10 7 7 3
-4 3 -10 0 -14z m-580 -51 c53 -61 93 -120 93 -137 0 -5 -20 -31 -45 -58 -25
-26 -70 -78 -101 -115 -31 -37 -70 -80 -86 -96 l-30 -29 7 44 c16 97 38 157
80 228 44 71 45 75 36 125 -5 28 -12 61 -16 74 -12 37 8 25 62 -36z m718 21
c-12 -17 -20 -23 -23 -15 -4 14 28 56 36 47 3 -2 -3 -17 -13 -32z m-2138 -4
c10 -13 39 -47 65 -75 58 -62 62 -79 13 -70 -40 8 -49 -8 -10 -18 13 -3 30
-16 36 -29 7 -12 38 -49 69 -82 57 -61 90 -113 53 -84 -146 112 -328 292 -319
316 3 7 2 13 -2 13 -4 1 -17 9 -30 20 -36 30 -18 43 50 38 48 -4 62 -9 75 -29z
m2650 14 c-4 -3 -7 0 -7 7 0 7 3 10 7 7 3 -4 3 -10 0 -14z m-647 -34 c0 -6 -9
-22 -20 -36 -14 -18 -19 -36 -16 -60 4 -31 -25 -123 -38 -123 -3 0 -3 29 1 65
5 55 4 65 -10 65 -17 0 -33 18 -23 27 3 3 11 1 19 -5 10 -8 19 -1 41 34 27 42
46 56 46 33z m60 -7 c0 -4 -6 -14 -12 -21 -10 -11 -10 -14 0 -18 15 -6 16 -53
1 -53 -7 0 -20 10 -30 21 -18 21 -18 22 4 50 22 28 37 36 37 21z m720 4 c0 -3
-5 -8 -12 -12 -7 -4 -8 -3 -4 4 7 12 16 16 16 8z m-905 -55 c0 -41 -19 -36
-23 8 -3 24 0 32 10 29 7 -3 13 -19 13 -37z m394 -7 c-12 -43 -29 -68 -29 -42
0 19 30 92 35 86 3 -2 0 -22 -6 -44z m-182 14 c-3 -8 -6 -5 -6 6 -1 11 2 17 5
13 3 -3 4 -12 1 -19z m-87 -52 c0 -3 -4 -8 -10 -11 -5 -3 -10 -1 -10 4 0 6 5
11 10 11 6 0 10 -2 10 -4z m-100 -27 c17 -30 6 -34 -14 -4 -9 14 -12 25 -7 25
6 0 15 -9 21 -21z m152 16 c3 -3 -3 -22 -13 -43 -11 -20 -19 -41 -19 -48 0
-14 -28 -39 -36 -32 -2 3 0 18 6 34 9 27 9 27 -5 10 -8 -10 -16 -24 -18 -30
-2 -6 -7 -8 -11 -4 -8 7 4 35 38 85 19 30 44 42 58 28z m157 -4 c11 -7 10 -15
-7 -47 -11 -22 -29 -55 -39 -74 l-18 -35 -3 33 c-4 40 25 132 41 132 7 0 18
-4 26 -9z m-2048 -50 c47 -29 109 -97 109 -118 0 -30 -22 -17 -93 53 -99 96
-105 122 -16 65z m2069 -20 c-6 -23 -17 -41 -24 -41 -9 0 -7 12 8 44 25 54 31
53 16 -3z m-685 1 c-11 -11 -34 8 -28 24 6 15 7 15 20 -1 7 -10 11 -21 8 -23z
m-482 2 c-7 -3 -10 -11 -7 -18 3 -7 -2 -28 -10 -47 l-15 -34 0 30 c-1 47 10
75 28 74 9 0 11 -3 4 -5z m444 -56 c-3 -7 -5 -2 -5 12 0 14 2 19 5 13 2 -7 2
-19 0 -25z m700 -21 c11 4 14 2 9 -5 -13 -21 -36 -13 -35 11 1 16 3 17 6 5 3
-11 10 -15 20 -11z m173 7 c0 -12 -6 -15 -22 -10 -13 3 -31 6 -40 6 -10 0 -18
5 -18 10 0 6 18 10 40 10 30 0 40 -4 40 -16z m149 -6 l8 -23 8 25 c7 23 8 24
15 5 10 -28 4 -35 -33 -35 -63 0 -107 12 -107 29 0 14 -2 14 -10 1 -5 -8 -12
-11 -15 -8 -17 16 11 28 66 28 53 0 61 -3 68 -22z m1431 -6 c0 -15 -2 -15 -10
-2 -13 20 -13 33 0 25 6 -3 10 -14 10 -23z m-2463 -9 c-4 -3 -7 0 -7 7 0 7 3
10 7 7 3 -4 3 -10 0 -14z m-832 -60 c-17 -40 -25 -52 -25 -36 0 12 30 73 36
73 2 0 -3 -17 -11 -37z m2127 7 c-12 -11 -24 -20 -28 -20 -4 0 1 9 11 20 10
11 23 20 28 20 6 0 1 -9 -11 -20z m-2991 -14 c41 -8 91 -17 112 -21 24 -4 37
-11 37 -22 0 -13 -7 -14 -37 -9 -21 3 -82 6 -135 6 l-97 0 10 30 c13 35 13 35
110 16z m2380 -58 l-20 -43 6 40 c3 22 10 49 16 60 22 39 19 -11 -2 -57z
m-1891 42 c6 -11 9 -20 7 -20 -2 0 -12 9 -22 20 -10 11 -13 20 -7 20 6 0 16
-9 22 -20z m3660 5 c-7 -8 -18 -15 -24 -15 -6 0 -2 7 8 15 25 19 32 19 16 0z
m-2930 -55 c-6 -23 -13 -40 -16 -37 -3 2 1 25 8 51 7 26 14 43 16 37 2 -5 -2
-28 -8 -51z m1557 18 c-3 -8 -6 -5 -6 6 -1 11 2 17 5 13 3 -3 4 -12 1 -19z
m-1944 -13 c-3 -9 -8 -14 -10 -11 -3 3 -2 9 2 15 9 16 15 13 8 -4z m3397 -16
c-7 -11 -14 -19 -16 -16 -7 7 7 37 17 37 6 0 5 -9 -1 -21z m-4086 -26 c-5 -18
-3 -22 10 -17 9 3 16 2 16 -4 0 -5 17 -14 37 -19 28 -6 39 -15 43 -33 6 -24 7
-24 13 -4 7 20 10 20 54 9 26 -7 49 -17 51 -23 5 -17 -91 -15 -246 3 -221 27
-262 40 -262 85 0 18 10 20 133 22 72 2 138 3 144 4 8 0 10 -8 7 -23z m1547
-75 l-11 -33 5 34 c3 18 6 50 7 70 l1 36 4 -37 c2 -20 -1 -51 -6 -70z m2346
70 c-3 -8 -6 -5 -6 6 -1 11 2 17 5 13 3 -3 4 -12 1 -19z m-1680 -15 c-4 -3 -7
0 -7 7 0 7 3 10 7 7 3 -4 3 -10 0 -14z m-1166 -20 c-12 -20 -14 -14 -5 12 4 9
9 14 11 11 3 -2 0 -13 -6 -23z m-404 -10 c-4 -3 -7 0 -7 7 0 7 3 10 7 7 3 -4
3 -10 0 -14z m3460 0 c-4 -3 -7 0 -7 7 0 7 3 10 7 7 3 -4 3 -10 0 -14z m-1047
-28 c0 -19 -4 -35 -10 -35 -11 0 -13 30 -4 54 10 25 14 19 14 -19z m1031 -26
c-6 -16 -10 -18 -10 -7 -1 22 12 55 16 42 2 -6 -1 -22 -6 -35z"/>
<path d="M2401 3534 c0 -11 3 -14 6 -6 3 7 2 16 -1 19 -3 4 -6 -2 -5 -13z"/>
<path d="M2402 3490 c0 -14 2 -19 5 -12 2 6 2 18 0 25 -3 6 -5 1 -5 -13z"/>
<path d="M2289 3414 c18 -8 47 -17 65 -20 19 -3 11 3 -24 16 -64 23 -91 25
-41 4z"/>
<path d="M2560 3410 c-6 -11 -8 -20 -6 -20 3 0 10 9 16 20 6 11 8 20 6 20 -3
0 -10 -9 -16 -20z"/>
<path d="M1960 3385 c0 -7 11 -10 30 -7 17 2 30 5 30 7 0 2 -13 5 -30 7 -19 3
-30 0 -30 -7z"/>
<path d="M2168 3385 c-3 -3 -35 -6 -72 -7 -36 0 -64 -3 -61 -6 10 -10 100 -19
106 -11 3 5 32 13 65 18 l59 9 -46 1 c-25 0 -48 -1 -51 -4z"/>
<path d="M2210 3350 c0 -6 7 -10 15 -10 8 0 15 2 15 4 0 2 -7 6 -15 10 -8 3
-15 1 -15 -4z"/>
<path d="M1942 3336 c31 -6 67 -20 80 -31 l23 -20 -20 25 c-30 37 -36 40 -90
39 l-50 -2 57 -11z"/>
<path d="M2153 3343 c4 -3 10 -3 14 0 3 4 0 7 -7 7 -7 0 -10 -3 -7 -7z"/>
<path d="M2210 3318 c0 -6 -8 -21 -17 -32 -13 -16 -11 -15 9 3 15 13 25 28 22
32 -7 13 -14 11 -14 -3z"/>
<path d="M1798 3313 c7 -3 16 -2 19 1 4 3 -2 6 -13 5 -11 0 -14 -3 -6 -6z"/>
<path d="M2350 3308 c-8 -8 -28 -14 -44 -14 -19 1 -33 -7 -44 -23 -16 -23 -16
-24 4 -11 12 7 29 10 38 7 15 -6 13 -15 -20 -74 -86 -158 -87 -160 -64 -130
12 15 39 60 60 100 41 78 65 95 76 52 3 -14 9 -24 11 -21 3 3 -2 23 -11 45
-14 37 -14 41 1 49 8 5 14 15 11 22 -3 10 -7 9 -18 -2z"/>
<path d="M2494 3288 c-4 -7 -3 -8 4 -4 12 7 16 16 8 16 -3 0 -8 -5 -12 -12z"/>
<path d="M2449 3233 l-34 -38 38 34 c34 33 42 41 34 41 -2 0 -19 -17 -38 -37z"/>
<path d="M2056 3233 c-4 -10 -4 -14 0 -10 4 4 15 0 25 -8 21 -20 65 -10 72 15
5 18 3 18 -18 4 -13 -8 -25 -11 -27 -6 -1 5 -13 12 -24 16 -15 5 -24 2 -28
-11z"/>
<path d="M1998 3233 c7 -3 16 -2 19 1 4 3 -2 6 -13 5 -11 0 -14 -3 -6 -6z"/>
<path d="M2194 3232 c-6 -4 -14 -20 -18 -37 l-7 -30 21 34 c22 34 23 45 4 33z"/>
<path d="M2693 3218 c19 -31 15 -35 -33 -33 -58 3 -165 -24 -190 -48 -44 -41
-105 -77 -132 -77 -16 0 -28 -4 -28 -10 0 -5 7 -7 15 -4 22 9 18 -10 -7 -32
-19 -17 -21 -17 -15 -1 10 27 1 20 -22 -17 -12 -18 -21 -43 -21 -55 0 -12 -4
-20 -9 -16 -5 3 -12 -4 -16 -15 -3 -11 -11 -20 -16 -20 -5 0 -9 -20 -9 -45 0
-43 -1 -44 -37 -52 -37 -7 -37 -7 -10 -12 l28 -6 -30 -40 c-17 -22 -31 -45
-31 -52 0 -7 -15 -43 -34 -80 -18 -37 -37 -79 -41 -91 -6 -20 -12 -23 -36 -20
-30 5 -50 -9 -31 -21 12 -7 -24 -100 -50 -131 -9 -10 -22 -38 -29 -62 -6 -24
-16 -46 -23 -50 -7 -5 -8 -8 0 -8 11 0 12 -58 2 -76 -6 -12 17 -55 25 -49 4 3
3 -1 -3 -7 -12 -14 -14 -58 -2 -58 4 0 8 -19 8 -42 1 -24 11 -74 22 -113 36
-116 36 -115 18 -115 -13 0 -16 -13 -16 -72 -1 -79 -2 -79 -48 -12 -12 18 -2
-2 45 -90 12 -22 22 -48 23 -56 0 -8 9 -33 20 -55 20 -39 20 -39 16 -8 -7 47
12 58 98 54 72 -2 159 13 184 32 9 7 16 7 24 -1 7 -7 19 -12 28 -11 9 0 6 4
-7 9 -25 10 -27 18 -14 39 10 15 51 6 51 -12 0 -7 -14 -41 -30 -76 -17 -35
-28 -66 -26 -68 7 -7 53 87 81 166 29 81 32 104 4 42 -14 -31 -23 -41 -35 -37
-9 3 -20 6 -25 6 -14 0 -11 28 10 73 37 80 33 102 -5 29 -20 -40 -45 -77 -56
-83 -28 -15 -190 -17 -195 -1 -3 8 10 12 49 12 55 0 138 33 146 57 2 7 -16 2
-40 -12 -50 -29 -140 -34 -174 -11 -23 16 -80 123 -71 133 10 10 37 -18 37
-38 0 -11 4 -19 10 -19 5 0 7 7 3 16 -5 12 -1 15 13 11 80 -24 113 -28 171
-21 65 7 65 7 59 -17 -6 -22 -5 -23 6 -5 7 10 30 39 51 63 48 57 65 98 83 202
8 47 22 99 30 118 18 36 15 79 -13 188 -16 63 -27 87 -21 45 2 -16 -1 -24 -9
-23 -17 4 -16 -21 2 -81 17 -56 20 -106 5 -106 -5 0 -12 17 -15 38 -10 58 -15
69 -24 54 -6 -11 -25 -11 -97 -1 -103 13 -286 8 -292 -10 -5 -16 -22 -14 -22
4 0 9 -6 12 -16 8 -13 -5 -15 -2 -9 18 4 13 12 30 17 37 8 9 5 12 -12 12 -21
0 -22 1 -6 23 8 12 25 43 37 70 12 26 23 47 26 47 2 0 14 -6 26 -14 12 -8 51
-25 86 -37 115 -39 281 -11 281 48 0 45 26 22 49 -44 39 -110 41 -116 46 -112
2 3 -7 43 -20 89 -13 46 -22 86 -19 89 2 2 14 -4 26 -15 13 -10 18 -12 12 -4
-6 8 -30 40 -53 70 -22 30 -48 74 -57 97 -16 40 -40 53 -28 15 3 -9 -6 -3 -20
13 -31 36 -59 105 -54 131 3 14 13 5 41 -37 38 -56 142 -145 118 -101 -6 11
-21 29 -34 39 -30 24 -69 92 -63 109 4 12 11 12 38 -1 31 -14 338 -37 338 -25
0 16 -63 111 -80 120 -10 6 -61 11 -112 13 -80 2 -93 4 -90 19 2 12 -3 15 -18
11 -25 -7 -25 2 -1 36 13 18 17 32 10 42 -7 12 -9 12 -9 -2 0 -18 -60 -79 -79
-79 -8 0 -1 22 20 60 24 45 39 62 63 69 62 21 225 49 248 44 54 -13 104 -95
138 -227 11 -44 22 -82 25 -84 3 -3 5 15 5 41 0 61 -36 211 -65 267 -12 25
-33 67 -46 93 -13 27 -31 54 -39 60 -11 9 -10 5 3 -15z m-347 -251 c-20 -36
-36 -76 -36 -89 0 -12 -4 -29 -9 -37 -7 -11 -11 -6 -15 20 -6 46 -4 109 5 103
4 -2 17 12 29 31 22 36 53 60 58 45 2 -5 -13 -38 -32 -73z m-103 -117 c6 -24
-8 -36 -17 -14 -8 22 -7 34 3 34 5 0 11 -9 14 -20z m127 1 c-10 -20 -30 -37
-30 -26 0 11 25 45 33 45 4 0 3 -9 -3 -19z m65 9 c-27 -12 -43 -12 -25 0 8 5
22 9 30 9 10 0 8 -3 -5 -9z m44 -36 c-13 -22 -24 -40 -25 -42 -4 -7 -54 11
-54 19 0 10 91 71 97 65 2 -2 -6 -21 -18 -42z m151 -4 c18 -23 31 -42 29 -44
-12 -10 -59 -14 -64 -6 -3 5 -1 10 6 10 7 0 8 4 2 13 -5 6 -14 24 -21 40 -18
43 10 35 48 -13z m-303 -17 c-4 -3 -10 -3 -14 0 -3 4 0 7 7 7 7 0 10 -3 7 -7z
m-61 -55 c6 -24 14 -52 18 -63 6 -16 6 -17 -3 -5 -26 37 -9 -16 26 -78 21 -37
38 -73 38 -81 0 -8 5 -16 12 -18 9 -3 10 4 3 26 -5 17 -5 31 -1 31 8 0 44 -70
39 -76 -13 -13 -135 -34 -196 -34 l-75 0 6 43 c6 40 -1 33 -17 -16 -5 -15 -9
-16 -28 -5 -13 7 -25 14 -27 15 -2 1 12 33 31 70 19 38 41 87 48 108 20 62 67
125 93 125 18 0 25 -8 33 -42z m124 -318 c0 -15 -36 -30 -87 -35 l-48 -5 53
19 c29 10 56 21 59 25 10 9 23 7 23 -4z m-180 -10 c-20 -13 -57 -13 -65 0 -4
6 11 10 37 10 31 0 39 -3 28 -10z m217 -117 c-4 -3 -10 -3 -14 0 -3 4 0 7 7 7
7 0 10 -3 7 -7z m-467 -97 c0 -3 -4 -8 -10 -11 -5 -3 -10 -1 -10 4 0 6 5 11
10 11 6 0 10 -2 10 -4z m363 -25 c14 -12 37 -45 52 -73 24 -44 25 -50 9 -42
-10 5 -53 8 -94 7 -91 -3 -242 14 -251 29 -4 7 -9 7 -13 -1 -10 -16 -46 -14
-52 4 -7 17 42 84 70 96 12 5 74 8 138 6 106 -3 120 -5 141 -26z m67 -24 c-1
-21 -1 -21 -15 -3 -8 10 -12 23 -9 28 9 14 24 -2 24 -25z m-411 -9 c-13 -18
-25 -26 -27 -19 -4 13 25 51 40 51 5 0 -1 -14 -13 -32z m435 -34 c11 -28 6
-39 -9 -20 -8 11 -15 23 -15 28 0 14 18 9 24 -8z m-38 -107 c36 -34 29 -84
-22 -159 -32 -45 -62 -58 -144 -60 -110 -2 -180 20 -180 56 0 17 -2 18 -9 7
-8 -13 -12 -13 -27 0 -38 31 -58 127 -31 153 29 29 53 32 219 29 160 -3 172
-5 194 -26z m-361 -312 c38 -60 40 -65 26 -65 -11 0 -45 53 -60 93 -16 41 -5
33 34 -28z m-15 -71 c0 -2 -7 -4 -15 -4 -8 0 -15 4 -15 10 0 5 7 7 15 4 8 -4
15 -8 15 -10z m277 -30 c-3 -3 -12 -4 -19 -1 -8 3 -5 6 6 6 11 1 17 -2 13 -5z
m-267 -24 c0 -11 -4 -20 -9 -20 -5 0 -11 9 -14 20 -3 13 0 20 9 20 8 0 14 -9
14 -20z"/>
<path d="M2240 2693 c0 -23 33 -117 43 -121 4 -2 7 -10 7 -17 0 -7 7 -16 16
-19 25 -10 28 -7 11 12 -22 24 -57 102 -57 129 0 12 -4 25 -10 28 -5 3 -10 -2
-10 -12z"/>
<path d="M2800 3110 c0 -7 3 -10 7 -7 3 4 3 10 0 14 -4 3 -7 0 -7 -7z"/>
<path d="M1556 3074 c-4 -9 -4 -19 -1 -22 2 -3 7 3 11 12 4 9 4 19 1 22 -2 3
-7 -3 -11 -12z"/>
<path d="M2811 3074 c0 -11 3 -14 6 -6 3 7 2 16 -1 19 -3 4 -6 -2 -5 -13z"/>
<path d="M2265 3059 c-4 -6 -5 -12 -2 -15 2 -3 7 2 10 11 7 17 1 20 -8 4z"/>
<path d="M2820 3040 c0 -7 3 -10 7 -7 3 4 3 10 0 14 -4 3 -7 0 -7 -7z"/>
<path d="M2166 2827 c3 -10 9 -15 12 -12 3 3 0 11 -7 18 -10 9 -11 8 -5 -6z"/>
<path d="M2426 2722 c12 -11 77 -29 134 -37 33 -5 50 -2 65 10 19 15 19 15 -6
9 -14 -3 -63 2 -109 10 -96 19 -97 19 -84 8z"/>
<path d="M2640 2574 c0 -5 7 -19 15 -30 18 -23 20 -90 3 -97 -8 -3 -6 -6 5 -6
11 -1 17 -9 17 -23 0 -18 2 -20 10 -8 14 23 -1 101 -27 140 -12 19 -23 30 -23
24z"/>
<path d="M2611 2463 c-2 -23 17 -58 43 -85 22 -21 27 -34 24 -64 -2 -21 -8
-39 -14 -41 -17 -6 -34 50 -22 72 8 13 7 16 -1 10 -8 -4 -18 8 -28 34 -9 23
-20 41 -26 41 -10 0 0 -85 13 -111 5 -8 9 -42 9 -75 0 -32 0 -72 0 -87 0 -31
-19 -101 -99 -357 -68 -217 -95 -294 -130 -357 -15 -29 -25 -53 -21 -53 17 0
64 108 125 288 36 106 78 217 95 247 16 30 44 107 60 172 17 65 39 148 50 185
l20 68 -41 42 c-22 23 -44 51 -48 62 -5 12 -9 16 -9 9z m29 -201 c0 -15 -2
-15 -10 -2 -13 20 -13 33 0 25 6 -3 10 -14 10 -23z m-3 -84 c-3 -8 -6 -5 -6 6
-1 11 2 17 5 13 3 -3 4 -12 1 -19z"/>
<path d="M1823 2233 c4 -3 10 -3 14 0 3 4 0 7 -7 7 -7 0 -10 -3 -7 -7z"/>
<path d="M2720 2190 c0 -7 3 -10 7 -7 3 4 3 10 0 14 -4 3 -7 0 -7 -7z"/>
<path d="M2710 2160 c0 -7 3 -10 7 -7 3 4 3 10 0 14 -4 3 -7 0 -7 -7z"/>
<path d="M1770 2128 c0 -21 5 -38 10 -38 13 0 13 40 0 60 -7 11 -10 5 -10 -22z"/>
<path d="M1813 1813 c4 -3 10 -3 14 0 3 4 0 7 -7 7 -7 0 -10 -3 -7 -7z"/>
<path d="M1860 1720 c0 -7 3 -10 7 -7 3 4 3 10 0 14 -4 3 -7 0 -7 -7z"/>
<path d="M2510 1260 c-6 -11 -8 -20 -6 -20 3 0 10 9 16 20 6 11 8 20 6 20 -3
0 -10 -9 -16 -20z"/>
<path d="M2396 1261 c-4 -6 -15 -34 -26 -63 -35 -98 -110 -253 -145 -299 -33
-44 -46 -77 -25 -64 14 8 75 104 93 145 8 19 25 58 37 85 54 121 94 242 66
196z"/>
<path d="M2484 1218 c-4 -7 -3 -8 4 -4 12 7 16 16 8 16 -3 0 -8 -5 -12 -12z"/>
<path d="M2240 1040 c-6 -11 -8 -20 -6 -20 3 0 10 9 16 20 6 11 8 20 6 20 -3
0 -10 -9 -16 -20z"/>
<path d="M2584 1008 l-19 -23 23 19 c21 18 27 26 19 26 -2 0 -12 -10 -23 -22z"/>
<path d="M2490 950 c0 -5 5 -10 10 -10 6 0 10 5 10 10 0 6 -4 10 -10 10 -5 0
-10 -4 -10 -10z"/>
<path d="M2240 1190 c0 -7 3 -10 7 -7 3 4 3 10 0 14 -4 3 -7 0 -7 -7z"/>
<path d="M1966 1173 c-6 -14 -5 -15 5 -6 7 7 10 15 7 18 -3 3 -9 -2 -12 -12z"/>
<path d="M2000 1150 c0 -7 3 -10 7 -7 3 4 3 10 0 14 -4 3 -7 0 -7 -7z"/>
<path d="M1985 1023 c5 -21 7 -48 7 -60 -2 -27 13 -30 35 -8 12 12 18 13 29 4
8 -7 17 -9 20 -6 3 3 -13 25 -35 49 -23 23 -41 46 -41 50 0 5 -5 8 -11 8 -8 0
-9 -12 -4 -37z"/>
<path d="M2030 1050 c0 -5 5 -10 11 -10 5 0 7 5 4 10 -3 6 -8 10 -11 10 -2 0
-4 -4 -4 -10z"/>
<path d="M1945 960 c3 -5 8 -10 11 -10 3 0 2 5 -1 10 -3 6 -8 10 -11 10 -3 0
-2 -4 1 -10z"/>
<path d="M2081 894 c0 -11 3 -14 6 -6 3 7 2 16 -1 19 -3 4 -6 -2 -5 -13z"/>
<path d="M2070 860 c0 -7 3 -10 7 -7 3 4 3 10 0 14 -4 3 -7 0 -7 -7z"/>
<path d="M3090 1010 c-8 -5 -10 -10 -5 -10 6 0 17 5 25 10 8 5 11 10 5 10 -5
0 -17 -5 -25 -10z"/>
<path d="M3186 957 c3 -10 9 -15 12 -12 3 3 0 11 -7 18 -10 9 -11 8 -5 -6z"/>
<path d="M2813 423 c4 -3 10 -3 14 0 3 4 0 7 -7 7 -7 0 -10 -3 -7 -7z"/>
<path d="M320 562 c0 -12 19 -26 26 -19 2 2 -2 10 -11 17 -9 8 -15 8 -15 2z"/>
<path d="M291 94 c0 -11 3 -14 6 -6 3 7 2 16 -1 19 -3 4 -6 -2 -5 -13z"/>
<path d="M1435 2369 c4 -12 8 -31 10 -42 2 -12 8 -35 13 -52 l10 -30 1 36 c1
20 -6 53 -14 73 -16 39 -31 50 -20 15z"/>
<path d="M1410 1170 c6 -11 12 -20 14 -20 2 0 2 9 -1 20 -3 11 -9 20 -15 20
-5 0 -4 -9 2 -20z"/>
<path d="M1355 1123 c-29 -60 -67 -174 -61 -181 2 -2 9 14 16 35 7 21 28 73
47 116 41 91 39 115 -2 30z"/>
<path d="M953 983 c4 -3 10 -3 14 0 3 4 0 7 -7 7 -7 0 -10 -3 -7 -7z"/>
<path d="M1225 890 c-3 -5 -1 -10 4 -10 6 0 11 5 11 10 0 6 -2 10 -4 10 -3 0
-8 -4 -11 -10z"/>
<path d="M1287 878 c-8 -29 -4 -32 11 -8 6 10 8 21 3 24 -5 3 -11 -4 -14 -16z"/>
<path d="M1200 860 c0 -7 3 -10 7 -7 3 4 3 10 0 14 -4 3 -7 0 -7 -7z"/>
<path d="M1545 860 c3 -5 8 -10 11 -10 2 0 4 5 4 10 0 6 -5 10 -11 10 -5 0 -7
-4 -4 -10z"/>
<path d="M2714 848 c-4 -7 -3 -8 4 -4 7 4 12 9 12 12 0 8 -9 4 -16 -8z"/>
<path d="M1165 830 c-3 -5 -1 -10 4 -10 6 0 11 5 11 10 0 6 -2 10 -4 10 -3 0
-8 -4 -11 -10z"/>
<path d="M1230 800 c0 -7 3 -10 7 -7 3 4 3 10 0 14 -4 3 -7 0 -7 -7z"/>
<path d="M510 790 c0 -7 3 -10 7 -7 3 4 3 10 0 14 -4 3 -7 0 -7 -7z"/>
<path d="M1340 793 c0 -5 5 -15 10 -23 8 -12 10 -11 10 8 0 12 -4 22 -10 22
-5 0 -10 -3 -10 -7z"/>
<path d="M1130 770 c0 -5 5 -10 11 -10 5 0 7 5 4 10 -3 6 -8 10 -11 10 -2 0
-4 -4 -4 -10z"/>
<path d="M1280 770 c0 -5 7 -10 16 -10 8 0 12 5 9 10 -3 6 -10 10 -16 10 -5 0
-9 -4 -9 -10z"/>
<path d="M1845 770 c3 -5 8 -10 11 -10 3 0 2 5 -1 10 -3 6 -8 10 -11 10 -3 0
-2 -4 1 -10z"/>
<path d="M1220 759 c0 -5 5 -7 10 -4 6 3 10 8 10 11 0 2 -4 4 -10 4 -5 0 -10
-5 -10 -11z"/>
<path d="M1785 760 c3 -5 8 -10 11 -10 2 0 4 5 4 10 0 6 -5 10 -11 10 -5 0 -7
-4 -4 -10z"/>
<path d="M1746 745 c4 -8 25 -26 47 -40 50 -29 241 -216 273 -267 13 -20 29
-40 36 -44 6 -4 2 9 -11 29 -27 43 -20 47 21 12 49 -42 55 -28 8 20 -24 24
-41 47 -38 50 3 3 24 2 47 -4 22 -5 41 -5 41 -1 0 5 -18 11 -40 15 -44 7 -44
7 -29 38 9 20 9 20 -4 5 -8 -10 -21 -18 -29 -18 -24 0 -158 92 -203 139 -21
22 -47 41 -56 41 -10 0 -21 4 -24 10 -3 5 -15 15 -25 20 -16 9 -18 8 -14 -5z
m304 -235 c0 -5 -2 -10 -4 -10 -3 0 -8 5 -11 10 -3 6 -1 10 4 10 6 0 11 -4 11
-10z"/>
<path d="M1190 730 c0 -5 5 -10 10 -10 6 0 10 5 10 10 0 6 -4 10 -10 10 -5 0
-10 -4 -10 -10z"/>
<path d="M1860 723 c33 -14 131 -42 230 -66 25 -6 46 -12 48 -13 2 -1 -4 -17
-12 -36 -16 -32 -16 -32 1 -9 32 43 84 141 76 141 -4 0 -18 -18 -30 -39 -22
-37 -25 -39 -60 -34 -37 5 -174 45 -221 64 -13 5 -33 9 -45 8 -18 0 -15 -4 13
-16z"/>
<path d="M3277 685 c-10 -23 -37 -70 -60 -104 -23 -33 -65 -95 -94 -136 -53
-77 -61 -98 -16 -45 74 88 205 311 192 325 -3 2 -12 -16 -22 -40z"/>
<path d="M1333 703 c4 -3 10 -3 14 0 3 4 0 7 -7 7 -7 0 -10 -3 -7 -7z"/>
<path d="M1320 670 c0 -5 5 -10 10 -10 6 0 10 5 10 10 0 6 -4 10 -10 10 -5 0
-10 -4 -10 -10z"/>
<path d="M830 642 c0 -4 7 -16 15 -26 15 -19 15 -19 15 1 0 11 -7 23 -15 27
-8 3 -15 2 -15 -2z"/>
<path d="M2615 629 c-4 -6 -5 -12 -2 -15 2 -3 7 2 10 11 7 17 1 20 -8 4z"/>
<path d="M1341 593 c0 -25 1 -26 9 -8 12 27 12 35 0 35 -5 0 -10 -12 -9 -27z"/>
<path d="M2173 613 c4 -3 10 -3 14 0 3 4 0 7 -7 7 -7 0 -10 -3 -7 -7z"/>
<path d="M1325 540 c-4 -12 -5 -24 -2 -27 3 -2 8 5 12 17 4 12 5 24 2 27 -3 2
-8 -5 -12 -17z"/>
<path d="M1255 520 c-10 -11 -16 -22 -13 -25 3 -3 13 6 22 20 20 30 16 32 -9
5z"/>
<path d="M3246 509 c-10 -17 -16 -33 -13 -35 3 -3 12 9 21 27 21 42 15 47 -8
8z"/>
<path d="M1310 490 c0 -7 3 -10 7 -7 3 4 3 10 0 14 -4 3 -7 0 -7 -7z"/>
<path d="M1950 470 c0 -7 3 -10 7 -7 3 4 3 10 0 14 -4 3 -7 0 -7 -7z"/>
<path d="M2010 435 c-7 -9 -10 -18 -7 -21 3 -3 10 4 17 15 13 25 8 27 -10 6z"/>
<path d="M3169 378 c-17 -24 -18 -29 -6 -19 18 14 42 51 33 51 -3 0 -15 -15
-27 -32z"/>
<path d="M730 390 c0 -7 3 -10 7 -7 3 4 3 10 0 14 -4 3 -7 0 -7 -7z"/>
<path d="M290 330 c0 -5 5 -10 11 -10 5 0 7 5 4 10 -3 6 -8 10 -11 10 -2 0 -4
-4 -4 -10z"/>
<path d="M740 331 c0 -6 5 -13 10 -16 6 -3 10 1 10 9 0 9 -4 16 -10 16 -5 0
-10 -4 -10 -9z"/>
<path d="M1547 215 c-12 -29 -46 -209 -41 -214 9 -9 16 9 35 89 20 81 24 169
6 125z"/>
<path d="M543 203 c4 -3 10 -3 14 0 3 4 0 7 -7 7 -7 0 -10 -3 -7 -7z"/>
<path d="M4103 203 c4 -3 10 -3 14 0 3 4 0 7 -7 7 -7 0 -10 -3 -7 -7z"/>
<path d="M780 156 c0 -26 -4 -35 -12 -30 -8 5 -9 0 -4 -17 4 -13 10 -43 13
-67 5 -37 9 -42 30 -42 19 0 24 4 19 16 -3 9 -11 48 -17 87 -12 81 -29 112
-29 53z"/>
<path d="M3976 145 c-9 -26 -7 -32 5 -12 6 10 9 21 6 23 -2 3 -7 -2 -11 -11z"/>
<path d="M4024 148 c-4 -7 -3 -8 4 -4 12 7 16 16 8 16 -3 0 -8 -5 -12 -12z"/>
<path d="M753 143 c4 -3 10 -3 14 0 3 4 0 7 -7 7 -7 0 -10 -3 -7 -7z"/>
<path d="M4040 70 c0 -7 3 -10 7 -7 3 4 3 10 0 14 -4 3 -7 0 -7 -7z"/>
<path d="M2402 31 c-6 -17 -7 -31 -3 -31 10 0 25 50 18 57 -3 2 -9 -10 -15
-26z"/>
<path d="M3967 53 c-12 -11 -8 -23 7 -23 8 0 16 7 20 15 5 15 -14 21 -27 8z"/>
<path d="M2618 30 c-7 -24 -3 -38 8 -28 3 4 4 17 2 30 l-3 23 -7 -25z"/>
<path d="M3870 10 c0 -7 3 -10 7 -7 3 4 3 10 0 14 -4 3 -7 0 -7 -7z"/>
<path d="M3950 10 c0 -5 7 -10 15 -10 8 0 15 5 15 10 0 6 -7 10 -15 10 -8 0
-15 -4 -15 -10z"/>
<path d="M4114 8 c-4 -7 -3 -8 4 -4 12 7 16 16 8 16 -3 0 -8 -5 -12 -12z"/>
</g>
</svg>
