<?xml version="1.0" standalone="no"?><!-- Generator: Gravit.io --><svg xmlns="http://www.w3.org/2000/svg" xmlns:xlink="http://www.w3.org/1999/xlink" style="isolation:isolate" viewBox="0 0 3428.41 2962.3" width="3428.41" height="2962.3"><defs><clipPath id="_clipPath_Cb9d24VG2zIhrSp7wTs2YKTW3ShDxpfF"><rect width="3428.41" height="2962.3"/></clipPath></defs><g clip-path="url(#_clipPath_Cb9d24VG2zIhrSp7wTs2YKTW3ShDxpfF)"><g><defs><filter id="BXeLujRGJlp5wf611VbclIfDXFbkCCMc" x="-200%" y="-200%" width="400%" height="400%" filterUnits="objectBoundingBox" color-interpolation-filters="sRGB"><feGaussianBlur xmlns="http://www.w3.org/2000/svg" in="SourceGraphic" stdDeviation="25.76165437703417"/><feOffset xmlns="http://www.w3.org/2000/svg" dx="12" dy="7" result="pf_100_offsetBlur"/><feFlood xmlns="http://www.w3.org/2000/svg" flood-color="#000000" flood-opacity="0.65"/><feComposite xmlns="http://www.w3.org/2000/svg" in2="pf_100_offsetBlur" operator="in" result="pf_100_dropShadow"/><feBlend xmlns="http://www.w3.org/2000/svg" in="SourceGraphic" in2="pf_100_dropShadow" mode="normal"/></filter></defs><g filter="url(#BXeLujRGJlp5wf611VbclIfDXFbkCCMc)"><linearGradient id="_lgradient_2" x1="0" y1="0.49999999999999994" x2="1" y2="0.49999999999999994" gradientTransform="matrix(1539.292,0,0,2660.85,1714.209,150.725)" gradientUnits="userSpaceOnUse"><stop offset="0%" stop-opacity="1" style="stop-color:rgb(0,255,255)"/><stop offset="100%" stop-opacity="1" style="stop-color:rgb(41,171,226)"/></linearGradient><path d=" M 3253.502 150.725 L 3253.502 1901.166 C 3253.502 2403.982 2845.908 2811.575 2343.093 2811.575 C 2099.167 2811.575 1877.671 2715.652 1714.209 2559.449 C 1887.686 2393.688 1995.735 2160.047 1995.735 1901.157 C 1995.735 2093.003 2151.256 2248.524 2343.102 2248.524 C 2534.947 2248.524 2690.468 2093.003 2690.468 1901.157 L 2690.468 713.767 C 2690.459 402.815 2942.532 150.725 3253.502 150.725 Z " fill="url(#_lgradient_2)"/></g><path d=" M 1938.971 2710.635 C 1766.267 2635.263 1646.712 2491.339 1646.712 2491.339 L 1853.208 2259.683 L 1984.889 1841.94 C 1984.889 1841.94 1976.5 2070.371 2140.419 2185.022 C 2145.755 2189.288 2205.991 2357.951 2159.704 2479.913 C 2106.852 2619.203 1945.789 2713.608 1938.971 2710.635 Z " fill="none"/><path d=" M 2690.172 1820.235 L 2690.172 1521.571 L 3071.258 1288.298 L 3253.484 990.155 C 3253.484 990.155 3253.484 1112.881 3252.927 1272.768 C 3253.205 1285.568 3252.927 1381.005 3252.029 1504.064 C 3250.933 1653.046 2690.172 1827.672 2690.172 1820.235 Z " fill="none"/><defs><filter id="e9Eiq6BBbDE7NOU9j2pAMZcXZXzLIj6W" x="-200%" y="-200%" width="400%" height="400%" filterUnits="objectBoundingBox" color-interpolation-filters="sRGB"><feGaussianBlur xmlns="http://www.w3.org/2000/svg" in="SourceGraphic" stdDeviation="25.76165437703417"/><feOffset xmlns="http://www.w3.org/2000/svg" dx="12" dy="7" result="pf_100_offsetBlur"/><feFlood xmlns="http://www.w3.org/2000/svg" flood-color="#000000" flood-opacity="0.35"/><feComposite xmlns="http://www.w3.org/2000/svg" in2="pf_100_offsetBlur" operator="in" result="pf_100_dropShadow"/><feBlend xmlns="http://www.w3.org/2000/svg" in="SourceGraphic" in2="pf_100_dropShadow" mode="normal"/></filter></defs><g filter="url(#e9Eiq6BBbDE7NOU9j2pAMZcXZXzLIj6W)"><linearGradient id="_lgradient_3" x1="0" y1="0.5000024665657019" x2="1.0000000000000002" y2="0.5000024665657019" gradientTransform="matrix(3078.593,0,0,1820.827,174.908,990.164)" gradientUnits="userSpaceOnUse"><stop offset="0%" stop-opacity="1" style="stop-color:rgb(0,255,255)"/><stop offset="100%" stop-opacity="1" style="stop-color:rgb(140,198,63)"/></linearGradient><path d=" M 3253.502 990.173 C 3253.502 1143.466 3190.625 1280.942 3092.825 1383.988 C 2994.675 1487.384 2848.1 1553.216 2690.414 1553.216 L 2344.799 1553.216 C 2152.792 1553.216 1995.627 1708.26 1995.69 1900.277 C 1995.78 2159.284 1887.713 2393.05 1714.165 2558.874 C 1550.757 2715.068 1329.243 2810.991 1085.317 2810.991 C 582.502 2810.991 174.908 2403.398 174.908 1900.582 L 737.951 1900.582 C 737.951 2092.428 893.472 2247.949 1085.317 2247.949 C 1277.163 2247.949 1432.684 2092.428 1432.684 1900.582 C 1432.684 1641.692 1540.733 1408.051 1714.209 1242.291 C 1877.689 1086.087 2099.167 990.164 2343.093 990.164 L 3253.502 990.173 Z " fill="url(#_lgradient_3)"/></g></g></g></svg>