<?xml version="1.0" encoding="iso-8859-1"?>
<!-- Generator: Adobe Illustrator 19.0.0, SVG Export Plug-In . SVG Version: 6.00 Build 0)  -->
<svg version="1.1" id="Capa_1" xmlns="http://www.w3.org/2000/svg" xmlns:xlink="http://www.w3.org/1999/xlink" x="0px" y="0px"
	 viewBox="0 0 512 512" style="enable-background:new 0 0 512 512;" xml:space="preserve">
<linearGradient id="SVGID_1_" gradientUnits="userSpaceOnUse" x1="181.5" y1="258" x2="330.5" y2="258" gradientTransform="matrix(1 0 0 -1 0 514)">
	<stop  offset="0" style="stop-color:#00F2FE"/>
	<stop  offset="0.021" style="stop-color:#03EFFE"/>
	<stop  offset="0.293" style="stop-color:#24D2FE"/>
	<stop  offset="0.554" style="stop-color:#3CBDFE"/>
	<stop  offset="0.796" style="stop-color:#4AB0FE"/>
	<stop  offset="1" style="stop-color:#4FACFE"/>
</linearGradient>
<path style="fill:url(#SVGID_1_);" d="M255.5,512c-40.804,0-74-33.196-74-74V263c0-40.804,33.196-74,74-74s74,33.196,74,74v75
	c0,11.046-8.954,20-20,20s-20-8.954-20-20v-75c0-18.748-15.252-34-34-34s-34,15.252-34,34v175c0,18.748,15.252,34,34,34
	s34-15.252,34-34c0-11.046,8.954-20,20-20s20,8.954,20,20C329.5,478.804,296.304,512,255.5,512z M330.5,74c0-40.804-33.196-74-74-74
	s-74,33.196-74,74s33.196,74,74,74S330.5,114.804,330.5,74z M290.5,74c0,18.748-15.252,34-34,34s-34-15.252-34-34s15.252-34,34-34
	S290.5,55.252,290.5,74z"/>
<g>
</g>
<g>
</g>
<g>
</g>
<g>
</g>
<g>
</g>
<g>
</g>
<g>
</g>
<g>
</g>
<g>
</g>
<g>
</g>
<g>
</g>
<g>
</g>
<g>
</g>
<g>
</g>
<g>
</g>
</svg>
