<svg aria-hidden="true" style="position: absolute; width: 0; height: 0; overflow: hidden;" version="1.1" xmlns="http://www.w3.org/2000/svg" xmlns:xlink="http://www.w3.org/1999/xlink">
<defs>
<symbol id="icon-activity" viewBox="0 0 24 24">
<title>activity</title>
<path d="M22 11h-4c-0.439 0-0.812 0.283-0.949 0.684l-2.051 6.154-5.051-15.154c-0.175-0.524-0.741-0.807-1.265-0.633-0.31 0.103-0.535 0.343-0.633 0.633l-2.772 8.316h-3.279c-0.552 0-1 0.448-1 1s0.448 1 1 1h4c0.423-0.003 0.81-0.267 0.949-0.684l2.051-6.154 5.051 15.154c0.098 0.29 0.323 0.529 0.632 0.632 0.524 0.175 1.090-0.109 1.265-0.632l2.773-8.316h3.279c0.552 0 1-0.448 1-1s-0.448-1-1-1z"></path>
</symbol>
<symbol id="icon-alert-circle" viewBox="0 0 24 24">
<title>alert-circle</title>
<path d="M23 12c0-1.488-0.296-2.91-0.833-4.207-0.558-1.347-1.375-2.558-2.388-3.571s-2.224-1.831-3.571-2.388c-1.298-0.538-2.72-0.834-4.208-0.834s-2.91 0.296-4.207 0.833c-1.347 0.558-2.558 1.375-3.571 2.389s-1.831 2.224-2.389 3.571c-0.537 1.297-0.833 2.719-0.833 4.207s0.296 2.91 0.833 4.207c0.558 1.347 1.375 2.558 2.388 3.571s2.224 1.831 3.571 2.388c1.298 0.538 2.72 0.834 4.208 0.834s2.91-0.296 4.207-0.833c1.347-0.558 2.558-1.375 3.571-2.388s1.831-2.224 2.388-3.571c0.538-1.298 0.834-2.72 0.834-4.208zM21 12c0 1.221-0.243 2.383-0.681 3.442-0.456 1.101-1.124 2.092-1.955 2.922s-1.822 1.499-2.922 1.955c-1.059 0.438-2.221 0.681-3.442 0.681s-2.383-0.243-3.442-0.681c-1.101-0.456-2.092-1.124-2.922-1.955-0.831-0.831-1.499-1.822-1.955-2.922-0.438-1.059-0.681-2.221-0.681-3.442s0.243-2.383 0.681-3.442c0.456-1.101 1.124-2.092 1.955-2.922s1.822-1.499 2.922-1.955c1.059-0.438 2.221-0.681 3.442-0.681s2.383 0.243 3.442 0.681c1.101 0.456 2.092 1.124 2.922 1.955 0.831 0.831 1.499 1.822 1.955 2.922 0.438 1.059 0.681 2.221 0.681 3.442zM11 8v4c0 0.552 0.448 1 1 1s1-0.448 1-1v-4c0-0.552-0.448-1-1-1s-1 0.448-1 1zM13 16c0-0.552-0.448-1-1-1s-1 0.448-1 1 0.448 1 1 1 1-0.448 1-1z"></path>
</symbol>
<symbol id="icon-align-center" viewBox="0 0 24 24">
<title>align-center</title>
<path d="M18 9h-12c-0.552 0-1 0.448-1 1s0.448 1 1 1h12c0.552 0 1-0.448 1-1s-0.448-1-1-1zM21 5h-18c-0.552 0-1 0.448-1 1s0.448 1 1 1h18c0.552 0 1-0.448 1-1s-0.448-1-1-1zM21 13h-18c-0.552 0-1 0.448-1 1s0.448 1 1 1h18c0.552 0 1-0.448 1-1s-0.448-1-1-1zM18 17h-12c-0.552 0-1 0.448-1 1s0.448 1 1 1h12c0.552 0 1-0.448 1-1s-0.448-1-1-1z"></path>
</symbol>
<symbol id="icon-align-right" viewBox="0 0 24 24">
<title>align-right</title>
<path d="M21 9h-14c-0.552 0-1 0.448-1 1s0.448 1 1 1h14c0.552 0 1-0.448 1-1s-0.448-1-1-1zM21 5h-18c-0.552 0-1 0.448-1 1s0.448 1 1 1h18c0.552 0 1-0.448 1-1s-0.448-1-1-1zM21 13h-18c-0.552 0-1 0.448-1 1s0.448 1 1 1h18c0.552 0 1-0.448 1-1s-0.448-1-1-1zM21 17h-14c-0.552 0-1 0.448-1 1s0.448 1 1 1h14c0.552 0 1-0.448 1-1s-0.448-1-1-1z"></path>
</symbol>
<symbol id="icon-chevrons-down" viewBox="0 0 24 24">
<title>chevrons-down</title>
<path d="M6.293 13.707l5 5c0.391 0.391 1.024 0.391 1.414 0l5-5c0.391-0.391 0.391-1.024 0-1.414s-1.024-0.391-1.414 0l-4.293 4.293-4.293-4.293c-0.391-0.391-1.024-0.391-1.414 0s-0.391 1.024 0 1.414zM6.293 6.707l5 5c0.391 0.391 1.024 0.391 1.414 0l5-5c0.391-0.391 0.391-1.024 0-1.414s-1.024-0.391-1.414 0l-4.293 4.293-4.293-4.293c-0.391-0.391-1.024-0.391-1.414 0s-0.391 1.024 0 1.414z"></path>
</symbol>
<symbol id="icon-chevrons-left" viewBox="0 0 24 24">
<title>chevrons-left</title>
<path d="M11.707 16.293l-4.293-4.293 4.293-4.293c0.391-0.391 0.391-1.024 0-1.414s-1.024-0.391-1.414 0l-5 5c-0.391 0.391-0.391 1.024 0 1.414l5 5c0.391 0.391 1.024 0.391 1.414 0s0.391-1.024 0-1.414zM18.707 16.293l-4.293-4.293 4.293-4.293c0.391-0.391 0.391-1.024 0-1.414s-1.024-0.391-1.414 0l-5 5c-0.391 0.391-0.391 1.024 0 1.414l5 5c0.391 0.391 1.024 0.391 1.414 0s0.391-1.024 0-1.414z"></path>
</symbol>
<symbol id="icon-chevrons-right" viewBox="0 0 24 24">
<title>chevrons-right</title>
<path d="M13.707 17.707l5-5c0.391-0.391 0.391-1.024 0-1.414l-5-5c-0.391-0.391-1.024-0.391-1.414 0s-0.391 1.024 0 1.414l4.293 4.293-4.293 4.293c-0.391 0.391-0.391 1.024 0 1.414s1.024 0.391 1.414 0zM6.707 17.707l5-5c0.391-0.391 0.391-1.024 0-1.414l-5-5c-0.391-0.391-1.024-0.391-1.414 0s-0.391 1.024 0 1.414l4.293 4.293-4.293 4.293c-0.391 0.391-0.391 1.024 0 1.414s1.024 0.391 1.414 0z"></path>
</symbol>
<symbol id="icon-coffee" viewBox="0 0 24 24">
<title>coffee</title>
<path d="M19 15v-6c0.408 0 0.795 0.081 1.147 0.227 0.366 0.152 0.697 0.375 0.974 0.652s0.5 0.608 0.652 0.974c0.146 0.352 0.227 0.739 0.227 1.147s-0.081 0.795-0.227 1.147c-0.152 0.366-0.375 0.697-0.652 0.974s-0.608 0.5-0.974 0.652c-0.352 0.146-0.739 0.227-1.147 0.227zM2 7c-0.552 0-1 0.448-1 1v9c0 0.675 0.134 1.322 0.379 1.912 0.254 0.613 0.625 1.163 1.085 1.623s1.011 0.832 1.623 1.085c0.591 0.246 1.238 0.38 1.913 0.38h8c0.675 0 1.322-0.134 1.912-0.379 0.613-0.254 1.163-0.625 1.623-1.085s0.832-1.011 1.085-1.623c0.246-0.591 0.38-1.238 0.38-1.913 0.675 0 1.322-0.134 1.912-0.379 0.613-0.254 1.163-0.625 1.623-1.085s0.832-1.011 1.085-1.623c0.246-0.591 0.38-1.238 0.38-1.913s-0.134-1.322-0.379-1.912c-0.254-0.613-0.625-1.163-1.085-1.623s-1.011-0.832-1.623-1.085c-0.591-0.246-1.238-0.38-1.913-0.38h-1zM3 9h14v8c0 0.408-0.081 0.795-0.227 1.147-0.152 0.366-0.375 0.697-0.652 0.974s-0.608 0.5-0.974 0.652c-0.352 0.146-0.739 0.227-1.147 0.227h-8c-0.408 0-0.795-0.081-1.147-0.227-0.366-0.152-0.697-0.375-0.974-0.652s-0.5-0.608-0.652-0.974c-0.146-0.352-0.227-0.739-0.227-1.147zM5 1v3c0 0.552 0.448 1 1 1s1-0.448 1-1v-3c0-0.552-0.448-1-1-1s-1 0.448-1 1zM9 1v3c0 0.552 0.448 1 1 1s1-0.448 1-1v-3c0-0.552-0.448-1-1-1s-1 0.448-1 1zM13 1v3c0 0.552 0.448 1 1 1s1-0.448 1-1v-3c0-0.552-0.448-1-1-1s-1 0.448-1 1z"></path>
</symbol>
<symbol id="icon-external-link" viewBox="0 0 24 24">
<title>external-link</title>
<path d="M17 13v6c0 0.137-0.027 0.266-0.075 0.382-0.050 0.122-0.125 0.232-0.218 0.325s-0.203 0.167-0.325 0.218c-0.116 0.048-0.245 0.075-0.382 0.075h-11c-0.137 0-0.266-0.027-0.382-0.075-0.122-0.050-0.232-0.125-0.325-0.218s-0.167-0.203-0.218-0.325c-0.048-0.116-0.075-0.245-0.075-0.382v-11c0-0.137 0.027-0.266 0.075-0.382 0.050-0.122 0.125-0.232 0.218-0.325s0.203-0.167 0.325-0.218c0.116-0.048 0.245-0.075 0.382-0.075h6c0.552 0 1-0.448 1-1s-0.448-1-1-1h-6c-0.405 0-0.793 0.081-1.148 0.228-0.367 0.152-0.697 0.375-0.973 0.651s-0.499 0.606-0.651 0.973c-0.147 0.355-0.228 0.743-0.228 1.148v11c0 0.405 0.081 0.793 0.228 1.148 0.152 0.368 0.375 0.698 0.651 0.974s0.606 0.499 0.974 0.651c0.354 0.146 0.742 0.227 1.147 0.227h11c0.405 0 0.793-0.081 1.148-0.228 0.368-0.152 0.698-0.375 0.974-0.651s0.499-0.606 0.651-0.974c0.146-0.354 0.227-0.742 0.227-1.147v-6c0-0.552-0.448-1-1-1s-1 0.448-1 1zM10.707 14.707l9.293-9.293v3.586c0 0.552 0.448 1 1 1s1-0.448 1-1v-6c0-0.003 0-0.005 0-0.008-0.001-0.132-0.028-0.258-0.075-0.374-0.101-0.245-0.297-0.441-0.543-0.543-0.115-0.047-0.241-0.074-0.373-0.075-0.003 0-0.006 0-0.009 0h-6c-0.552 0-1 0.448-1 1s0.448 1 1 1h3.586l-9.293 9.293c-0.391 0.391-0.391 1.024 0 1.414s1.024 0.391 1.414 0z"></path>
</symbol>
<symbol id="icon-github" viewBox="0 0 24 24">
<title>github</title>
<path d="M8 18.223c-0.4 0.082-0.742 0.113-1.033 0.111-0.336-0.002-0.609-0.050-0.837-0.122-0.231-0.073-0.432-0.176-0.614-0.302-0.119-0.082-0.234-0.177-0.346-0.282-0.078-0.073-0.154-0.151-0.23-0.234-0.184-0.2-0.353-0.415-0.543-0.656-0.104-0.132-0.215-0.273-0.329-0.41-0.046-0.055-0.093-0.111-0.142-0.167-0.067-0.076-0.137-0.153-0.211-0.229-0.1-0.103-0.208-0.205-0.325-0.303-0.161-0.134-0.341-0.261-0.544-0.368-0.185-0.098-0.386-0.177-0.604-0.232-0.536-0.134-1.079 0.192-1.213 0.728s0.192 1.079 0.728 1.213c0.051 0.013 0.102 0.032 0.155 0.060 0.059 0.031 0.124 0.075 0.198 0.136 0.054 0.045 0.111 0.098 0.172 0.161 0.045 0.046 0.091 0.097 0.14 0.152 0.035 0.040 0.071 0.083 0.108 0.127 0.094 0.113 0.189 0.234 0.296 0.37 0.183 0.232 0.397 0.505 0.64 0.769 0.104 0.114 0.215 0.228 0.335 0.341 0.173 0.163 0.364 0.322 0.578 0.469 0.332 0.229 0.711 0.426 1.149 0.564 0.431 0.136 0.904 0.211 1.425 0.215 0.33 0.002 0.679-0.024 1.047-0.080v1.746c0 0.552 0.448 1 1 1s1-0.448 1-1v-3.87c0-0.021-0.001-0.045-0.002-0.069-0.006-0.084-0.007-0.168-0.004-0.251 0.010-0.29 0.073-0.577 0.187-0.846 0.11-0.258 0.269-0.502 0.478-0.719 0.145-0.149 0.246-0.347 0.274-0.572 0.068-0.548-0.321-1.048-0.869-1.116-0.34-0.042-0.677-0.094-1.006-0.159-0.79-0.156-1.518-0.385-2.147-0.733-0.349-0.193-0.666-0.422-0.946-0.696-0.249-0.243-0.475-0.526-0.671-0.858-0.208-0.353-0.386-0.768-0.52-1.262-0.172-0.626-0.274-1.384-0.274-2.305-0.003-0.564 0.1-1.129 0.312-1.661 0.203-0.513 0.506-0.997 0.912-1.423 0.257-0.274 0.35-0.672 0.213-1.040-0.18-0.482-0.27-0.997-0.257-1.519 0.007-0.29 0.045-0.582 0.117-0.872 0.175 0.038 0.398 0.103 0.673 0.21 0.491 0.191 1.145 0.518 1.973 1.073 0.235 0.157 0.533 0.214 0.825 0.133 1.997-0.557 4.242-0.602 6.47 0.002 0.271 0.073 0.569 0.033 0.818-0.135 0.829-0.555 1.482-0.882 1.973-1.073 0.275-0.107 0.499-0.171 0.673-0.209 0.070 0.284 0.109 0.576 0.117 0.872 0.012 0.503-0.069 1.017-0.257 1.521-0.129 0.352-0.058 0.755 0.213 1.040 0.386 0.405 0.696 0.883 0.907 1.411 0.205 0.505 0.318 1.061 0.318 1.646 0 0.936-0.105 1.708-0.281 2.347-0.138 0.499-0.319 0.918-0.53 1.272-0.199 0.333-0.427 0.615-0.679 0.857-0.284 0.272-0.603 0.498-0.955 0.688-0.623 0.336-1.343 0.555-2.123 0.7-0.322 0.060-0.651 0.106-0.983 0.143-0.21 0.023-0.418 0.114-0.584 0.275-0.397 0.384-0.408 1.017-0.024 1.414 0.067 0.069 0.13 0.143 0.188 0.219 0.174 0.229 0.306 0.489 0.387 0.767 0.078 0.267 0.111 0.554 0.087 0.851 0 0.024-0.001 0.051-0.003 0.078v3.869c0 0.552 0.448 1 1 1s1-0.448 1-1v-3.833c0.037-0.529-0.023-1.044-0.165-1.529-0.037-0.126-0.080-0.25-0.127-0.372 0.777-0.171 1.563-0.427 2.297-0.823 0.492-0.266 0.962-0.595 1.388-1.004 0.38-0.364 0.722-0.787 1.014-1.276 0.31-0.52 0.559-1.106 0.741-1.765 0.232-0.84 0.353-1.795 0.353-2.878 0-0.844-0.163-1.652-0.46-2.393-0.231-0.576-0.542-1.11-0.919-1.589 0.148-0.561 0.212-1.128 0.198-1.687-0.019-0.781-0.189-1.543-0.491-2.246-0.122-0.283-0.359-0.482-0.635-0.564-0.146-0.043-0.511-0.115-1.113-0.024-0.349 0.053-0.772 0.16-1.276 0.356-0.559 0.217-1.218 0.544-1.984 1.029-2.273-0.541-4.557-0.509-6.646-0.002-0.765-0.484-1.423-0.81-1.981-1.027-0.504-0.196-0.927-0.303-1.276-0.356-0.602-0.092-0.967-0.020-1.113 0.024-0.296 0.088-0.521 0.3-0.635 0.565-0.313 0.732-0.472 1.494-0.49 2.247-0.013 0.574 0.055 1.141 0.199 1.686-0.393 0.497-0.702 1.039-0.927 1.607-0.307 0.774-0.457 1.593-0.452 2.41 0 1.056 0.118 1.994 0.343 2.821 0.178 0.653 0.422 1.234 0.727 1.751 0.287 0.487 0.624 0.91 0.999 1.275 0.421 0.41 0.885 0.742 1.372 1.012 0.752 0.416 1.56 0.685 2.357 0.867-0.186 0.469-0.287 0.962-0.304 1.457-0.005 0.141-0.003 0.282 0.005 0.423z"></path>
</symbol>
<symbol id="icon-heart" viewBox="0 0 24 24">
<title>heart</title>
<path d="M20.133 5.317c0.434 0.434 0.759 0.931 0.977 1.459 0.228 0.55 0.342 1.137 0.342 1.725s-0.115 1.175-0.342 1.725c-0.219 0.529-0.544 1.025-0.976 1.457l-8.134 8.133-8.133-8.133c-0.432-0.432-0.757-0.929-0.976-1.458-0.228-0.55-0.342-1.137-0.342-1.725s0.114-1.175 0.342-1.725c0.219-0.529 0.544-1.025 0.976-1.458s0.929-0.757 1.458-0.976c0.55-0.228 1.137-0.342 1.725-0.342s1.175 0.114 1.725 0.342c0.529 0.219 1.025 0.544 1.458 0.976l1.060 1.060c0.391 0.391 1.024 0.391 1.414 0l1.062-1.062c0.432-0.432 0.929-0.757 1.458-0.976 0.55-0.228 1.137-0.342 1.725-0.342s1.175 0.115 1.725 0.342c0.529 0.219 1.025 0.544 1.457 0.976zM21.547 3.903c-0.621-0.621-1.339-1.092-2.106-1.41-0.796-0.33-1.643-0.495-2.49-0.495s-1.694 0.164-2.49 0.494c-0.767 0.318-1.485 0.788-2.107 1.409l-0.354 0.355-0.353-0.353c-0.621-0.621-1.339-1.092-2.107-1.41-0.796-0.33-1.644-0.494-2.49-0.494s-1.694 0.164-2.49 0.494c-0.767 0.318-1.485 0.788-2.107 1.41s-1.092 1.339-1.41 2.107c-0.33 0.796-0.494 1.643-0.494 2.49s0.165 1.694 0.494 2.49c0.318 0.767 0.788 1.485 1.41 2.107l8.84 8.84c0.391 0.391 1.024 0.391 1.414 0l8.84-8.84c0.621-0.621 1.092-1.339 1.41-2.106 0.33-0.796 0.495-1.643 0.495-2.49s-0.164-1.694-0.494-2.49c-0.318-0.767-0.788-1.485-1.411-2.108z"></path>
</symbol>
<symbol id="icon-home" viewBox="0 0 24 24">
<title>home</title>
<path d="M2.386 8.211c-0.236 0.184-0.386 0.469-0.386 0.789v11c0 0.405 0.081 0.793 0.228 1.148 0.152 0.368 0.375 0.698 0.651 0.974s0.606 0.499 0.974 0.651c0.354 0.146 0.742 0.227 1.147 0.227h14c0.405 0 0.793-0.081 1.148-0.228 0.368-0.152 0.698-0.375 0.974-0.651s0.499-0.606 0.651-0.974c0.146-0.354 0.227-0.742 0.227-1.147v-11c-0.001-0.3-0.134-0.593-0.386-0.789l-9-7c-0.358-0.275-0.861-0.285-1.228 0zM16 21v-9c0-0.552-0.448-1-1-1h-6c-0.552 0-1 0.448-1 1v9h-3c-0.137 0-0.266-0.027-0.382-0.075-0.122-0.050-0.232-0.125-0.325-0.218s-0.167-0.203-0.218-0.325c-0.048-0.116-0.075-0.245-0.075-0.382v-10.511l8-6.222 8 6.222v10.511c0 0.137-0.027 0.266-0.075 0.382-0.050 0.122-0.125 0.232-0.218 0.325s-0.203 0.167-0.325 0.218c-0.116 0.048-0.245 0.075-0.382 0.075zM10 21v-8h4v8z"></path>
</symbol>
<symbol id="icon-image" viewBox="0 0 24 24">
<title>image</title>
<path d="M11 8.5c0-0.337-0.067-0.66-0.19-0.956-0.127-0.307-0.313-0.582-0.543-0.811s-0.504-0.416-0.811-0.543c-0.296-0.123-0.619-0.19-0.956-0.19s-0.66 0.067-0.956 0.19c-0.307 0.127-0.582 0.312-0.812 0.542s-0.415 0.505-0.542 0.812c-0.123 0.296-0.19 0.619-0.19 0.956s0.067 0.66 0.19 0.956c0.127 0.307 0.313 0.582 0.543 0.811s0.505 0.415 0.811 0.543c0.296 0.123 0.619 0.19 0.956 0.19s0.66-0.067 0.956-0.19c0.307-0.127 0.582-0.313 0.811-0.543s0.415-0.505 0.543-0.811c0.123-0.296 0.19-0.619 0.19-0.956zM9 8.5c0 0.070-0.014 0.133-0.037 0.191-0.025 0.060-0.063 0.116-0.109 0.163s-0.103 0.084-0.163 0.109c-0.058 0.023-0.121 0.037-0.191 0.037s-0.133-0.014-0.191-0.037c-0.060-0.025-0.116-0.063-0.163-0.109s-0.084-0.103-0.109-0.163c-0.023-0.058-0.037-0.121-0.037-0.191s0.014-0.133 0.037-0.191c0.025-0.060 0.063-0.116 0.109-0.163s0.102-0.084 0.163-0.109c0.058-0.023 0.121-0.037 0.191-0.037s0.133 0.014 0.191 0.037c0.060 0.025 0.116 0.063 0.163 0.109s0.084 0.102 0.109 0.163c0.023 0.058 0.037 0.121 0.037 0.191zM7.414 20l8.586-8.586 4 4v3.586c0 0.137-0.027 0.266-0.075 0.382-0.050 0.122-0.125 0.232-0.218 0.325s-0.203 0.167-0.325 0.218c-0.116 0.048-0.245 0.075-0.382 0.075zM5.001 22h13.999c0.405 0 0.793-0.081 1.148-0.228 0.368-0.152 0.698-0.375 0.974-0.651s0.499-0.606 0.651-0.974c0.146-0.354 0.227-0.742 0.227-1.147v-14c0-0.405-0.081-0.793-0.228-1.148-0.152-0.368-0.375-0.698-0.651-0.974s-0.606-0.499-0.974-0.651c-0.354-0.146-0.742-0.227-1.147-0.227h-14c-0.405 0-0.793 0.081-1.148 0.228-0.367 0.152-0.697 0.375-0.973 0.651s-0.499 0.606-0.651 0.973c-0.147 0.355-0.228 0.743-0.228 1.148v14c0 0.405 0.081 0.793 0.228 1.148 0.152 0.368 0.375 0.698 0.651 0.974s0.606 0.499 0.974 0.651c0.354 0.146 0.742 0.227 1.146 0.227 0 0 0.001 0 0.001 0zM20 12.586l-3.293-3.293c-0.391-0.391-1.024-0.391-1.414 0l-10.644 10.644c-0.010-0.004-0.021-0.008-0.031-0.012-0.122-0.050-0.232-0.125-0.325-0.218s-0.167-0.203-0.218-0.325c-0.048-0.116-0.075-0.245-0.075-0.382v-14c0-0.137 0.027-0.266 0.075-0.382 0.050-0.122 0.125-0.232 0.218-0.325s0.203-0.167 0.325-0.218c0.116-0.048 0.245-0.075 0.382-0.075h14c0.137 0 0.266 0.027 0.382 0.075 0.122 0.050 0.232 0.125 0.325 0.218s0.167 0.203 0.218 0.325c0.048 0.116 0.075 0.245 0.075 0.382z"></path>
</symbol>
<symbol id="icon-info" viewBox="0 0 24 24">
<title>info</title>
<path d="M23 12c0-1.488-0.296-2.91-0.833-4.207-0.558-1.347-1.375-2.558-2.388-3.571s-2.224-1.831-3.571-2.388c-1.298-0.538-2.72-0.834-4.208-0.834s-2.91 0.296-4.207 0.833c-1.347 0.558-2.558 1.375-3.571 2.389s-1.831 2.224-2.389 3.571c-0.537 1.297-0.833 2.719-0.833 4.207s0.296 2.91 0.833 4.207c0.558 1.347 1.375 2.558 2.388 3.571s2.224 1.831 3.571 2.388c1.298 0.538 2.72 0.834 4.208 0.834s2.91-0.296 4.207-0.833c1.347-0.558 2.558-1.375 3.571-2.388s1.831-2.224 2.388-3.571c0.538-1.298 0.834-2.72 0.834-4.208zM21 12c0 1.221-0.243 2.383-0.681 3.442-0.456 1.101-1.124 2.092-1.955 2.922s-1.822 1.499-2.922 1.955c-1.059 0.438-2.221 0.681-3.442 0.681s-2.383-0.243-3.442-0.681c-1.101-0.456-2.092-1.124-2.922-1.955-0.831-0.831-1.499-1.822-1.955-2.922-0.438-1.059-0.681-2.221-0.681-3.442s0.243-2.383 0.681-3.442c0.456-1.101 1.124-2.092 1.955-2.922s1.822-1.499 2.922-1.955c1.059-0.438 2.221-0.681 3.442-0.681s2.383 0.243 3.442 0.681c1.101 0.456 2.092 1.124 2.922 1.955 0.831 0.831 1.499 1.822 1.955 2.922 0.438 1.059 0.681 2.221 0.681 3.442zM13 16v-4c0-0.552-0.448-1-1-1s-1 0.448-1 1v4c0 0.552 0.448 1 1 1s1-0.448 1-1zM13 8c0-0.552-0.448-1-1-1s-1 0.448-1 1 0.448 1 1 1 1-0.448 1-1z"></path>
</symbol>
<symbol id="icon-instagram" viewBox="0 0 24 24">
<title>instagram</title>
<path d="M7 1c-0.811 0-1.587 0.161-2.295 0.455-0.735 0.304-1.395 0.75-1.948 1.302s-0.998 1.213-1.302 1.948c-0.294 0.708-0.455 1.484-0.455 2.295v10c0 0.811 0.161 1.587 0.455 2.295 0.304 0.735 0.75 1.395 1.303 1.948s1.213 0.998 1.948 1.303c0.707 0.293 1.483 0.454 2.294 0.454h10c0.811 0 1.587-0.161 2.295-0.455 0.735-0.304 1.395-0.75 1.948-1.303s0.998-1.213 1.303-1.948c0.293-0.707 0.454-1.483 0.454-2.294v-10c0-0.811-0.161-1.587-0.455-2.295-0.304-0.735-0.75-1.395-1.303-1.948s-1.213-0.998-1.948-1.303c-0.707-0.293-1.483-0.454-2.294-0.454zM7 3h10c0.544 0 1.060 0.108 1.529 0.303 0.489 0.202 0.929 0.5 1.299 0.869s0.667 0.81 0.869 1.299c0.195 0.469 0.303 0.985 0.303 1.529v10c0 0.544-0.108 1.060-0.303 1.529-0.202 0.489-0.5 0.929-0.869 1.299s-0.81 0.667-1.299 0.869c-0.469 0.195-0.985 0.303-1.529 0.303h-10c-0.544 0-1.060-0.108-1.529-0.303-0.489-0.202-0.929-0.5-1.299-0.869s-0.667-0.81-0.869-1.299c-0.195-0.469-0.303-0.985-0.303-1.529v-10c0-0.544 0.108-1.060 0.303-1.529 0.202-0.489 0.5-0.929 0.869-1.299s0.81-0.667 1.299-0.869c0.469-0.195 0.985-0.303 1.529-0.303zM16.989 11.223c-0.15-0.972-0.571-1.857-1.194-2.567-0.383-0.437-0.842-0.808-1.362-1.092-0.503-0.275-1.061-0.465-1.647-0.552-0.464-0.074-0.97-0.077-1.477-0.002-0.668 0.099-1.288 0.327-1.836 0.655-0.569 0.341-1.059 0.789-1.446 1.312s-0.674 1.123-0.835 1.766c-0.155 0.62-0.193 1.279-0.094 1.947s0.327 1.288 0.655 1.836c0.341 0.569 0.789 1.059 1.312 1.446s1.122 0.674 1.765 0.836c0.62 0.155 1.279 0.193 1.947 0.094s1.288-0.327 1.836-0.655c0.569-0.341 1.059-0.789 1.446-1.312s0.674-1.122 0.836-1.765c0.155-0.62 0.193-1.279 0.094-1.947zM15.011 11.517c0.060 0.404 0.037 0.798-0.056 1.168-0.096 0.385-0.268 0.744-0.502 1.059s-0.528 0.584-0.868 0.788c-0.327 0.196-0.698 0.333-1.101 0.393s-0.798 0.037-1.168-0.056c-0.385-0.096-0.744-0.268-1.059-0.502s-0.584-0.528-0.788-0.868c-0.196-0.327-0.333-0.698-0.393-1.101s-0.037-0.798 0.056-1.168c0.096-0.385 0.268-0.744 0.502-1.059s0.528-0.584 0.868-0.788c0.327-0.196 0.698-0.333 1.101-0.393 0.313-0.046 0.615-0.042 0.87-0.002 0.37 0.055 0.704 0.17 1.003 0.333 0.31 0.169 0.585 0.391 0.815 0.654 0.375 0.428 0.63 0.963 0.72 1.543zM18.5 6.5c0-0.552-0.448-1-1-1s-1 0.448-1 1 0.448 1 1 1 1-0.448 1-1z"></path>
</symbol>
<symbol id="icon-linkedin" viewBox="0 0 24 24">
<title>linkedin</title>
<path d="M16 7c-0.946 0-1.851 0.188-2.677 0.53-0.857 0.355-1.628 0.875-2.273 1.52s-1.165 1.415-1.52 2.273c-0.342 0.826-0.53 1.731-0.53 2.677v7c0 0.552 0.448 1 1 1h4c0.552 0 1-0.448 1-1v-7c0-0.137 0.027-0.266 0.075-0.382 0.050-0.122 0.125-0.232 0.218-0.325s0.203-0.167 0.325-0.218c0.116-0.048 0.245-0.075 0.382-0.075s0.266 0.027 0.382 0.075c0.122 0.050 0.232 0.125 0.325 0.218s0.167 0.203 0.218 0.325c0.048 0.116 0.075 0.245 0.075 0.382v7c0 0.552 0.448 1 1 1h4c0.552 0 1-0.448 1-1v-7c0-0.946-0.188-1.851-0.53-2.677-0.355-0.857-0.875-1.628-1.52-2.273s-1.415-1.165-2.273-1.52c-0.826-0.342-1.731-0.53-2.677-0.53zM16 9c0.679 0 1.324 0.135 1.912 0.378 0.611 0.253 1.162 0.624 1.624 1.086s0.833 1.013 1.086 1.624c0.243 0.588 0.378 1.233 0.378 1.912v6h-2v-6c0-0.405-0.081-0.793-0.228-1.148-0.152-0.368-0.375-0.698-0.651-0.974s-0.606-0.499-0.974-0.651c-0.354-0.146-0.742-0.227-1.147-0.227s-0.793 0.081-1.148 0.228c-0.368 0.152-0.698 0.375-0.974 0.651s-0.499 0.606-0.651 0.974c-0.146 0.354-0.227 0.742-0.227 1.147v6h-2v-6c0-0.679 0.135-1.324 0.378-1.912 0.253-0.611 0.624-1.162 1.086-1.624s1.013-0.833 1.624-1.086c0.588-0.243 1.233-0.378 1.912-0.378zM2 8c-0.552 0-1 0.448-1 1v12c0 0.552 0.448 1 1 1h4c0.552 0 1-0.448 1-1v-12c0-0.552-0.448-1-1-1zM3 10h2v10h-2zM7 4c0-0.405-0.081-0.793-0.228-1.148-0.152-0.367-0.375-0.697-0.651-0.973s-0.606-0.499-0.973-0.651c-0.355-0.147-0.743-0.228-1.148-0.228s-0.793 0.081-1.148 0.228c-0.367 0.152-0.697 0.375-0.973 0.651s-0.499 0.606-0.651 0.973c-0.147 0.355-0.228 0.743-0.228 1.148s0.081 0.793 0.228 1.148c0.152 0.367 0.375 0.697 0.651 0.973s0.606 0.499 0.973 0.651c0.355 0.147 0.743 0.228 1.148 0.228s0.793-0.081 1.148-0.228c0.367-0.152 0.697-0.375 0.973-0.651s0.499-0.606 0.651-0.973c0.147-0.355 0.228-0.743 0.228-1.148zM5 4c0 0.137-0.027 0.266-0.075 0.382-0.051 0.122-0.125 0.232-0.218 0.325s-0.203 0.167-0.325 0.218c-0.116 0.048-0.245 0.075-0.382 0.075s-0.266-0.027-0.382-0.075c-0.122-0.051-0.232-0.125-0.325-0.218s-0.167-0.203-0.218-0.325c-0.048-0.116-0.075-0.245-0.075-0.382s0.027-0.266 0.075-0.382c0.051-0.122 0.125-0.232 0.218-0.325s0.203-0.167 0.325-0.218c0.116-0.048 0.245-0.075 0.382-0.075s0.266 0.027 0.382 0.075c0.122 0.051 0.232 0.125 0.325 0.218s0.167 0.203 0.218 0.325c0.048 0.116 0.075 0.245 0.075 0.382z"></path>
</symbol>
<symbol id="icon-mail" viewBox="0 0 24 24">
<title>mail</title>
<path d="M3 7.921l8.427 5.899c0.34 0.235 0.795 0.246 1.147 0l8.426-5.899v10.079c0 0.134-0.027 0.261-0.075 0.377-0.051 0.122-0.126 0.234-0.22 0.328s-0.206 0.169-0.328 0.22c-0.116 0.048-0.243 0.075-0.377 0.075h-16c-0.134 0-0.261-0.027-0.377-0.075-0.122-0.051-0.234-0.126-0.328-0.22s-0.169-0.206-0.22-0.328c-0.048-0.116-0.075-0.243-0.075-0.377zM1 6.012v11.988c0 0.403 0.081 0.79 0.227 1.143 0.153 0.369 0.377 0.7 0.653 0.977s0.608 0.501 0.977 0.653c0.353 0.146 0.74 0.227 1.143 0.227h16c0.403 0 0.79-0.081 1.143-0.227 0.369-0.153 0.7-0.377 0.977-0.653s0.501-0.608 0.653-0.977c0.146-0.353 0.227-0.74 0.227-1.143v-12c0-0.006 0-0.012 0-0.017-0.002-0.397-0.083-0.777-0.227-1.125-0.153-0.369-0.377-0.7-0.653-0.977s-0.608-0.501-0.977-0.653c-0.353-0.147-0.74-0.228-1.143-0.228h-16c-0.403 0-0.79 0.081-1.143 0.227-0.369 0.153-0.7 0.377-0.977 0.653s-0.5 0.608-0.653 0.977c-0.144 0.348-0.225 0.729-0.227 1.126 0 0.005 0 0.011 0 0.017zM20.894 5.554l-8.894 6.225-8.894-6.225c0.048-0.095 0.112-0.183 0.188-0.259 0.095-0.095 0.206-0.17 0.329-0.22 0.116-0.048 0.243-0.075 0.377-0.075h16c0.134 0 0.261 0.027 0.377 0.075 0.122 0.051 0.234 0.126 0.328 0.22 0.076 0.076 0.14 0.164 0.188 0.259z"></path>
</symbol>
<symbol id="icon-map-pin" viewBox="0 0 24 24">
<title>map-pin</title>
<path d="M22 10c0-1.353-0.269-2.645-0.758-3.824-0.507-1.224-1.25-2.325-2.171-3.247-0.921-0.921-2.022-1.664-3.247-2.171-1.179-0.489-2.471-0.758-3.824-0.758s-2.645 0.269-3.824 0.758c-1.225 0.507-2.326 1.25-3.247 2.171s-1.664 2.022-2.171 3.247c-0.489 1.179-0.758 2.471-0.758 3.824 0 0.569 0.053 1.128 0.15 1.676 0.274 1.548 0.899 3.004 1.682 4.32 0.859 1.443 1.923 2.744 2.969 3.845 0.877 0.923 1.75 1.715 2.496 2.343 0.528 0.444 0.994 0.808 1.356 1.079 0.222 0.167 0.406 0.299 0.54 0.394 0.157 0.111 0.253 0.175 0.253 0.175 0.331 0.217 0.765 0.229 1.109 0 0 0 0.097-0.065 0.253-0.175 0.134-0.095 0.317-0.227 0.54-0.394 0.362-0.271 0.828-0.635 1.356-1.079 0.746-0.628 1.619-1.42 2.496-2.343 1.046-1.101 2.11-2.402 2.969-3.845 0.783-1.316 1.408-2.772 1.682-4.32 0.096-0.548 0.149-1.107 0.149-1.676zM20 10c0 0.444-0.041 0.887-0.119 1.328-0.221 1.25-0.737 2.478-1.432 3.646-0.762 1.28-1.724 2.463-2.7 3.49-0.815 0.858-1.632 1.599-2.334 2.19-0.496 0.417-0.933 0.758-1.268 1.010-0.052 0.039-0.101 0.075-0.147 0.11-0.047-0.034-0.096-0.071-0.147-0.11-0.336-0.252-0.773-0.593-1.268-1.010-0.702-0.591-1.518-1.332-2.334-2.19-0.976-1.027-1.938-2.21-2.7-3.49-0.695-1.168-1.211-2.396-1.432-3.646-0.078-0.441-0.119-0.884-0.119-1.328 0-1.085 0.216-2.118 0.605-3.059 0.406-0.978 1-1.86 1.738-2.598s1.62-1.333 2.598-1.738c0.941-0.389 1.974-0.605 3.059-0.605s2.118 0.216 3.059 0.605c0.978 0.405 1.859 0.999 2.598 1.738s1.333 1.62 1.738 2.598c0.389 0.941 0.605 1.974 0.605 3.059zM16 10c0-0.54-0.108-1.057-0.303-1.53-0.203-0.49-0.5-0.93-0.868-1.298s-0.809-0.666-1.299-0.869c-0.473-0.195-0.99-0.303-1.53-0.303s-1.057 0.108-1.53 0.303c-0.49 0.203-0.93 0.5-1.298 0.868s-0.666 0.809-0.869 1.299c-0.195 0.473-0.303 0.99-0.303 1.53s0.108 1.057 0.303 1.53c0.203 0.49 0.5 0.93 0.868 1.298s0.808 0.665 1.298 0.868c0.474 0.196 0.991 0.304 1.531 0.304s1.057-0.108 1.53-0.303c0.49-0.203 0.93-0.5 1.298-0.868s0.665-0.808 0.868-1.298c0.196-0.474 0.304-0.991 0.304-1.531zM14 10c0 0.273-0.054 0.53-0.151 0.765-0.101 0.244-0.25 0.464-0.435 0.65s-0.406 0.334-0.65 0.435c-0.234 0.096-0.491 0.15-0.764 0.15s-0.53-0.054-0.765-0.151c-0.244-0.101-0.464-0.25-0.65-0.435s-0.334-0.406-0.435-0.65c-0.096-0.234-0.15-0.491-0.15-0.764s0.054-0.53 0.151-0.765c0.101-0.244 0.25-0.464 0.435-0.65s0.406-0.334 0.65-0.435c0.234-0.096 0.491-0.15 0.764-0.15s0.53 0.054 0.765 0.151c0.244 0.101 0.464 0.25 0.65 0.435s0.334 0.406 0.435 0.65c0.096 0.234 0.15 0.491 0.15 0.764z"></path>
</symbol>
<symbol id="icon-send" viewBox="0 0 24 24">
<title>send</title>
<path d="M22.963 2.269c0.042-0.151 0.050-0.314 0.015-0.476-0.009-0.041-0.020-0.082-0.035-0.123-0.025-0.072-0.058-0.14-0.097-0.202-0.064-0.102-0.145-0.19-0.238-0.261-0.114-0.087-0.246-0.149-0.386-0.181-0.137-0.031-0.282-0.034-0.426-0.004-0.042 0.009-0.085 0.021-0.127 0.035l-0.021 0.007-19.978 6.992c-0.252 0.088-0.467 0.276-0.584 0.538-0.224 0.505 0.003 1.096 0.508 1.32l8.649 3.844 3.844 8.649c0.108 0.243 0.313 0.443 0.583 0.538 0.521 0.182 1.092-0.092 1.274-0.614l7-20c0.007-0.020 0.014-0.041 0.019-0.061zM10.779 11.807l-6.068-2.696 13.483-4.72zM19.609 5.806l-4.72 13.483-2.696-6.068z"></path>
</symbol>
<symbol id="icon-twitter" viewBox="0 0 24 24">
<title>twitter</title>
<path d="M20.833 5.262c-0.186 0.242-0.391 0.475-0.616 0.696-0.233 0.232-0.347 0.567-0.278 0.908 0.037 0.182 0.060 0.404 0.061 0.634 0 1.405-0.174 2.697-0.49 3.871-0.292 1.085-0.707 2.072-1.222 2.958-1.019 1.754-2.437 3.123-4.098 4.069-0.853 0.486-1.772 0.862-2.735 1.12-1.004 0.269-2.056 0.41-3.133 0.416-1.101 0.006-2.227-0.13-3.353-0.416 1.246-0.361 2.46-0.922 3.593-1.69 0.147-0.099 0.273-0.243 0.352-0.421 0.224-0.505-0.003-1.096-0.508-1.32-1.438-0.639-2.487-1.4-3.251-2.205-0.72-0.758-1.203-1.57-1.518-2.389-0.185-0.481-0.313-0.967-0.396-1.449-0.105-0.606-0.138-1.206-0.123-1.778 0.021-0.811 0.138-1.56 0.278-2.182 0.393 0.343 0.802 0.706 1.234 1.038 1.042 0.801 2.22 1.429 3.491 1.843 1.229 0.4 2.544 0.6 3.905 0.565 0.541-0.015 0.974-0.457 0.974-1v-1.011c-0.002-0.179 0.009-0.357 0.034-0.534 0.058-0.411 0.188-0.81 0.387-1.178 0.192-0.354 0.45-0.681 0.774-0.963 0.357-0.311 0.757-0.534 1.177-0.675 0.436-0.146 0.895-0.203 1.349-0.171s0.9 0.151 1.312 0.357c0.396 0.197 0.761 0.474 1.072 0.831 0.252 0.286 0.649 0.416 1.033 0.304 0.231-0.067 0.463-0.143 0.695-0.228zM22.424 2.183c-0.74 0.522-1.523 0.926-2.287 1.205-0.371-0.333-0.779-0.608-1.211-0.823-0.65-0.324-1.353-0.512-2.065-0.562s-1.434 0.039-2.123 0.27c-0.664 0.222-1.295 0.576-1.854 1.062-0.507 0.441-0.915 0.957-1.22 1.518-0.316 0.582-0.52 1.211-0.61 1.854-0.037 0.265-0.055 0.533-0.054 0.8-0.783-0.058-1.539-0.209-2.26-0.444-1.050-0.342-2.026-0.861-2.891-1.526-0.775-0.596-1.461-1.309-2.033-2.116-0.32-0.45-0.944-0.556-1.395-0.237-0.153 0.109-0.267 0.254-0.335 0.41-0.017 0.039-0.367 0.832-0.642 2.050-0.162 0.722-0.301 1.603-0.326 2.571-0.017 0.684 0.022 1.416 0.152 2.169 0.103 0.6 0.265 1.214 0.501 1.827 0.404 1.051 1.024 2.090 1.934 3.048 0.609 0.641 1.34 1.238 2.212 1.775-0.511 0.237-1.034 0.429-1.562 0.579-1.094 0.31-2.214 0.436-3.311 0.388-0.552-0.024-1.019 0.403-1.043 0.955-0.017 0.389 0.19 0.736 0.513 0.918 2.529 1.405 5.221 2.073 7.819 2.059 1.245-0.007 2.468-0.17 3.64-0.484 1.125-0.301 2.203-0.741 3.208-1.314 1.96-1.117 3.636-2.736 4.837-4.802 0.605-1.041 1.087-2.191 1.424-3.442 0.363-1.353 0.558-2.82 0.558-4.391-0.001-0.167-0.008-0.33-0.023-0.489 1.006-1.115 1.676-2.429 1.996-3.781 0.127-0.537-0.206-1.076-0.743-1.203-0.29-0.069-0.58-0.003-0.807 0.156z"></path>
</symbol>
<symbol id="icon-user-check" viewBox="0 0 24 24">
<title>user-check</title>
<path d="M17 21v-2c0-0.675-0.134-1.322-0.379-1.912-0.254-0.613-0.625-1.163-1.085-1.623s-1.011-0.832-1.623-1.085c-0.591-0.246-1.238-0.38-1.913-0.38h-7c-0.675 0-1.322 0.134-1.912 0.379-0.613 0.254-1.163 0.625-1.623 1.085s-0.832 1.011-1.085 1.623c-0.246 0.591-0.38 1.238-0.38 1.913v2c0 0.552 0.448 1 1 1s1-0.448 1-1v-2c0-0.408 0.081-0.795 0.227-1.147 0.152-0.366 0.375-0.697 0.652-0.974s0.608-0.5 0.974-0.652c0.352-0.146 0.739-0.227 1.147-0.227h7c0.408 0 0.795 0.081 1.147 0.227 0.366 0.152 0.697 0.375 0.974 0.652s0.5 0.608 0.652 0.974c0.146 0.352 0.227 0.739 0.227 1.147v2c0 0.552 0.448 1 1 1s1-0.448 1-1zM13.5 7c0-0.675-0.134-1.322-0.379-1.912-0.254-0.613-0.625-1.163-1.085-1.623s-1.011-0.832-1.623-1.085c-0.591-0.246-1.238-0.38-1.913-0.38s-1.322 0.134-1.912 0.379c-0.613 0.254-1.163 0.625-1.624 1.085s-0.831 1.011-1.085 1.624c-0.245 0.59-0.379 1.237-0.379 1.912s0.134 1.322 0.379 1.912c0.254 0.613 0.625 1.163 1.085 1.623s1.011 0.832 1.623 1.085c0.591 0.246 1.238 0.38 1.913 0.38s1.322-0.134 1.912-0.379c0.613-0.254 1.163-0.625 1.623-1.085s0.832-1.011 1.085-1.623c0.246-0.591 0.38-1.238 0.38-1.913zM11.5 7c0 0.408-0.081 0.795-0.227 1.147-0.152 0.366-0.375 0.697-0.652 0.974s-0.608 0.5-0.974 0.652c-0.352 0.146-0.739 0.227-1.147 0.227s-0.795-0.081-1.147-0.227c-0.366-0.152-0.697-0.374-0.974-0.652s-0.5-0.608-0.652-0.974c-0.146-0.352-0.227-0.739-0.227-1.147s0.081-0.795 0.227-1.147c0.152-0.366 0.375-0.697 0.652-0.974s0.608-0.5 0.974-0.652c0.352-0.146 0.739-0.227 1.147-0.227s0.795 0.081 1.147 0.227c0.366 0.152 0.697 0.375 0.974 0.652s0.5 0.608 0.652 0.974c0.146 0.352 0.227 0.739 0.227 1.147zM16.293 11.707l2 2c0.391 0.391 1.024 0.391 1.414 0l4-4c0.391-0.391 0.391-1.024 0-1.414s-1.024-0.391-1.414 0l-3.293 3.293-1.293-1.293c-0.391-0.391-1.024-0.391-1.414 0s-0.391 1.024 0 1.414z"></path>
</symbol>
<symbol id="icon-x" viewBox="0 0 24 24">
<title>x</title>
<path d="M5.293 6.707l5.293 5.293-5.293 5.293c-0.391 0.391-0.391 1.024 0 1.414s1.024 0.391 1.414 0l5.293-5.293 5.293 5.293c0.391 0.391 1.024 0.391 1.414 0s0.391-1.024 0-1.414l-5.293-5.293 5.293-5.293c0.391-0.391 0.391-1.024 0-1.414s-1.024-0.391-1.414 0l-5.293 5.293-5.293-5.293c-0.391-0.391-1.024-0.391-1.414 0s-0.391 1.024 0 1.414z"></path>
</symbol>
<symbol id="icon-youtube" viewBox="0 0 24 24">
<title>youtube</title>
<path d="M21.563 6.637c0.287 1.529 0.448 3.295 0.437 5.125 0.019 1.528-0.123 3.267-0.437 5.021-0.057 0.208-0.15 0.403-0.272 0.575-0.116 0.164-0.259 0.307-0.423 0.423-0.159 0.112-0.339 0.2-0.526 0.253-0.101 0.027-0.252 0.057-0.457 0.088-0.226 0.034-0.496 0.066-0.802 0.095-0.751 0.071-1.677 0.122-2.618 0.158-0.742 0.028-1.485 0.047-2.147 0.060-0.53 0.010-1.007 0.016-1.389 0.020-0.574 0.005-0.929 0.005-0.929 0.005s-0.355 0-0.928-0.005c-0.382-0.004-0.859-0.010-1.389-0.020-0.662-0.013-1.406-0.032-2.147-0.060-0.941-0.036-1.867-0.087-2.618-0.158-0.307-0.029-0.577-0.061-0.802-0.095-0.205-0.031-0.355-0.061-0.446-0.085-0.205-0.057-0.396-0.148-0.566-0.268-0.164-0.116-0.308-0.258-0.424-0.422-0.105-0.148-0.189-0.316-0.246-0.501-0.286-1.526-0.445-3.286-0.434-5.11-0.021-1.54 0.121-3.292 0.437-5.060 0.057-0.208 0.15-0.403 0.272-0.575 0.116-0.164 0.259-0.307 0.423-0.423 0.159-0.112 0.339-0.2 0.526-0.253 0.101-0.027 0.252-0.057 0.457-0.088 0.226-0.034 0.496-0.066 0.802-0.095 0.751-0.071 1.677-0.122 2.618-0.158 0.742-0.028 1.485-0.047 2.147-0.060 1.327-0.024 2.318-0.024 2.318-0.024s0.992 0 2.318 0.023c0.663 0.012 1.406 0.029 2.148 0.055 0.944 0.033 1.874 0.080 2.629 0.145 0.307 0.026 0.578 0.055 0.805 0.087 0.205 0.028 0.358 0.056 0.422 0.071 0.219 0.063 0.421 0.165 0.598 0.299 0.16 0.121 0.299 0.268 0.409 0.435 0.103 0.155 0.183 0.33 0.234 0.522zM23.51 6.177c-0.106-0.425-0.281-0.816-0.512-1.165-0.238-0.36-0.534-0.672-0.871-0.927-0.373-0.282-0.796-0.494-1.249-0.625-0.238-0.059-0.465-0.098-0.704-0.131-0.272-0.038-0.579-0.070-0.907-0.098-0.804-0.069-1.774-0.117-2.731-0.151-0.757-0.026-1.513-0.044-2.183-0.056-1.342-0.024-2.353-0.024-2.353-0.024s-0.367 0-0.948 0.006c-0.387 0.004-0.871 0.010-1.408 0.020-0.671 0.013-1.428 0.032-2.186 0.061-0.955 0.037-1.923 0.089-2.728 0.165-0.33 0.031-0.639 0.067-0.914 0.108-0.241 0.037-0.473 0.080-0.674 0.134-0.435 0.123-0.822 0.31-1.163 0.551-0.353 0.249-0.656 0.554-0.901 0.899-0.27 0.381-0.469 0.811-0.587 1.268-0.006 0.024-0.011 0.049-0.015 0.071-0.343 1.898-0.499 3.793-0.476 5.481-0.012 1.924 0.161 3.831 0.477 5.502 0.006 0.031 0.013 0.062 0.021 0.088 0.12 0.421 0.308 0.807 0.55 1.149 0.25 0.353 0.556 0.655 0.902 0.899 0.357 0.252 0.757 0.442 1.181 0.561 0.212 0.057 0.444 0.1 0.686 0.137 0.274 0.041 0.584 0.077 0.913 0.108 0.805 0.076 1.774 0.128 2.729 0.165 0.758 0.029 1.514 0.048 2.186 0.061 1.343 0.026 2.355 0.026 2.355 0.026s1.012 0 2.356-0.026c0.671-0.013 1.428-0.032 2.186-0.061 0.955-0.037 1.924-0.089 2.729-0.165 0.33-0.031 0.639-0.067 0.913-0.108 0.241-0.036 0.473-0.080 0.675-0.134 0.435-0.123 0.821-0.31 1.163-0.551 0.353-0.249 0.656-0.554 0.9-0.899 0.27-0.381 0.47-0.811 0.587-1.268 0.006-0.025 0.012-0.050 0.015-0.071 0.34-1.884 0.496-3.765 0.476-5.44 0.012-1.925-0.161-3.833-0.477-5.504-0.004-0.020-0.008-0.040-0.012-0.057zM10.75 13.301v-3.102l2.727 1.551zM10.244 15.889l5.75-3.27c0.48-0.273 0.648-0.884 0.375-1.364-0.093-0.164-0.226-0.292-0.375-0.375l-5.75-3.27c-0.48-0.273-1.091-0.105-1.364 0.375-0.090 0.158-0.132 0.33-0.131 0.494v6.54c0 0.552 0.448 1 1 1 0.182 0 0.352-0.049 0.494-0.131z"></path>
</symbol>
<symbol id="icon-dribbble" viewBox="0 0 32 32">
<title>dribbble</title>
<path d="M16 32c-8.825 0-16-7.175-16-16s7.175-16 16-16c8.825 0 16 7.175 16 16s-7.175 16-16 16v0zM29.494 18.188c-0.469-0.15-4.231-1.269-8.512-0.581 1.788 4.912 2.512 8.912 2.656 9.744 3.063-2.075 5.25-5.356 5.856-9.163v0zM21.337 28.6c-0.206-1.2-0.994-5.375-2.913-10.363-0.031 0.012-0.063 0.019-0.087 0.031-7.713 2.688-10.481 8.031-10.725 8.531 2.319 1.806 5.231 2.887 8.387 2.887 1.894 0 3.7-0.387 5.338-1.087v0zM5.844 25.156c0.313-0.531 4.063-6.738 11.106-9.019 0.175-0.056 0.356-0.113 0.538-0.162-0.344-0.775-0.719-1.556-1.106-2.319-6.819 2.044-13.444 1.956-14.044 1.95-0.006 0.137-0.006 0.275-0.006 0.419 0 3.506 1.331 6.712 3.512 9.131v0zM2.625 13.219c0.612 0.006 6.244 0.031 12.637-1.662-2.262-4.025-4.706-7.412-5.069-7.906-3.825 1.806-6.688 5.331-7.569 9.569v0zM12.8 2.731c0.375 0.506 2.863 3.888 5.1 8 4.863-1.819 6.919-4.588 7.163-4.938-2.413-2.144-5.587-3.444-9.063-3.444-1.1 0.006-2.175 0.138-3.2 0.381v0zM26.581 7.381c-0.288 0.388-2.581 3.325-7.631 5.388 0.319 0.65 0.625 1.313 0.906 1.981 0.1 0.238 0.2 0.469 0.294 0.706 4.55-0.569 9.069 0.344 9.519 0.438-0.031-3.225-1.188-6.188-3.087-8.512v0z"></path>
</symbol>
</defs>
</svg>
